<?xml version="1.0" encoding="utf-8"?>
<!-- Generator: Adobe Illustrator 21.0.2, SVG Export Plug-In . SVG Version: 6.00 Build 0)  -->
<svg version="1.1" id="Layer_1" xmlns="http://www.w3.org/2000/svg" xmlns:xlink="http://www.w3.org/1999/xlink" x="0px" y="0px"
	 viewBox="0 0 432 288" style="enable-background:new 0 0 432 288;" xml:space="preserve">
<style type="text/css">
	.st0{fill:#FFFFFF;}
	.st1{stroke:#000000;stroke-width:0.8;stroke-linejoin:round;}
	.st2{clip-path:url(#SVGID_2_);fill:none;stroke:#1F77B4;stroke-width:1.5;stroke-linecap:square;stroke-linejoin:round;}
	.st3{fill:none;stroke:#000000;stroke-width:0.8;stroke-linecap:square;}
	.st4{opacity:0.8;fill:#FFFFFF;stroke:#CCCCCC;enable-background:new    ;}
	.st5{fill:none;stroke:#1F77B4;stroke-width:1.5;stroke-linecap:square;stroke-linejoin:round;}
</style>
<g id="figure_1">
	<g id="patch_1">
		<path class="st0" d="M0,288h432V0H0V288z"/>
	</g>
	<g id="axes_1">
		<g id="patch_2">
			<path class="st0" d="M54,252h334.8V34.6H54V252z"/>
		</g>
		<g id="matplotlib.axis_1">
			<g id="xtick_1">
				<g id="line2d_1">
					<g>
						<g>
							<path id="mf906c03105" class="st1" d="M86.2,252v3.5"/>
						</g>
					</g>
				</g>
				<g id="text_1">
					<g transform="translate(73.467308 266.598437)scale(0.1 -0.1)">
						<g>
							<path id="DejaVuSans-31" d="M12.4,8.3h16.1v55.6L11,60.4v9l17.4,3.5h9.9V8.3h16.1V0h-42V8.3z"/>
						</g>
						<g>
							<path id="DejaVuSans-39" d="M74.6,1.5v9c2.5-1.2,5-2.1,7.5-2.7c2.5-0.6,5-0.9,7.5-0.9c6.5,0,11.5,2.2,14.9,6.6
								c3.4,4.4,5.4,11,5.9,20c-1.9-2.8-4.3-5-7.2-6.5c-2.9-1.5-6.1-2.2-9.6-2.2c-7.3,0-13.1,2.2-17.3,6.6
								c-4.2,4.4-6.4,10.5-6.4,18.1c0,7.5,2.2,13.5,6.6,18c4.4,4.5,10.3,6.8,17.7,6.8c8.4,0,14.9-3.2,19.3-9.7
								c4.4-6.5,6.7-15.8,6.7-28.1c0-11.5-2.7-20.7-8.2-27.5C106.6,2,99.3-1.4,90-1.4c-2.5,0-5,0.2-7.5,0.7
								C80-0.2,77.3,0.5,74.6,1.5z M94.2,32.4c4.4,0,7.9,1.5,10.5,4.5c2.6,3,3.9,7.2,3.9,12.5c0,5.2-1.3,9.4-3.9,12.4
								c-2.6,3-6.1,4.6-10.5,4.6s-7.9-1.5-10.5-4.6s-3.9-7.2-3.9-12.4c0-5.3,1.3-9.4,3.9-12.5C86.3,33.9,89.8,32.4,94.2,32.4z"/>
						</g>
						<g>
							<path id="DejaVuSans-37" d="M135.4,72.9h46.9v-4.2L155.9,0h-10.3l24.9,64.6h-35V72.9z"/>
						</g>
						<g>
							<path id="DejaVuSans-30" d="M222.7,66.4c-5.1,0-8.9-2.5-11.5-7.5c-2.6-5-3.8-12.5-3.8-22.5c0-10,1.3-17.5,3.8-22.5
								c2.6-5,6.4-7.5,11.5-7.5c5.1,0,8.9,2.5,11.5,7.5c2.6,5,3.8,12.5,3.8,22.5c0,10-1.3,17.5-3.8,22.5
								C231.6,63.9,227.8,66.4,222.7,66.4z M222.7,74.2c8.2,0,14.4-3.2,18.7-9.7c4.3-6.5,6.5-15.8,6.5-28.1
								c0-12.3-2.2-21.6-6.5-28.1c-4.3-6.5-10.6-9.7-18.7-9.7c-8.2,0-14.4,3.2-18.7,9.7c-4.3,6.5-6.5,15.8-6.5,28.1
								c0,12.3,2.2,21.7,6.5,28.1C208.2,71,214.5,74.2,222.7,74.2z"/>
						</g>
					</g>
				</g>
			</g>
			<g id="xtick_2">
				<g id="line2d_2">
					<g>
						<g>
							<path id="mf906c03105_1_" class="st1" d="M150.6,252v3.5"/>
						</g>
					</g>
				</g>
				<g id="text_2">
					<g transform="translate(137.851923 266.598437)scale(0.1 -0.1)">
						<g>
							<path id="DejaVuSans-31_1_" d="M12.4,8.3h16.1v55.6L11,60.4v9l17.4,3.5h9.9V8.3h16.1V0h-42V8.3z"/>
						</g>
						<g>
							<path id="DejaVuSans-39_1_" d="M74.6,1.5v9c2.5-1.2,5-2.1,7.5-2.7c2.5-0.6,5-0.9,7.5-0.9c6.5,0,11.5,2.2,14.9,6.6
								c3.4,4.4,5.4,11,5.9,20c-1.9-2.8-4.3-5-7.2-6.5c-2.9-1.5-6.1-2.2-9.6-2.2c-7.3,0-13.1,2.2-17.3,6.6
								c-4.2,4.4-6.4,10.5-6.4,18.1c0,7.5,2.2,13.5,6.6,18c4.4,4.5,10.3,6.8,17.7,6.8c8.4,0,14.9-3.2,19.3-9.7
								c4.4-6.5,6.7-15.8,6.7-28.1c0-11.5-2.7-20.7-8.2-27.5C106.6,2,99.3-1.4,90-1.4c-2.5,0-5,0.2-7.5,0.7
								C80-0.2,77.3,0.5,74.6,1.5z M94.2,32.4c4.4,0,7.9,1.5,10.5,4.5c2.6,3,3.9,7.2,3.9,12.5c0,5.2-1.3,9.4-3.9,12.4
								c-2.6,3-6.1,4.6-10.5,4.6c-4.4,0-7.9-1.5-10.5-4.6s-3.9-7.2-3.9-12.4c0-5.3,1.3-9.4,3.9-12.5C86.3,33.9,89.8,32.4,94.2,32.4z
								"/>
						</g>
						<g>
							<path id="DejaVuSans-38" d="M159,34.6c-4.7,0-8.4-1.3-11.1-3.8c-2.7-2.5-4-6-4-10.3c0-4.4,1.3-7.8,4-10.4
								c2.7-2.5,6.4-3.8,11.1-3.8s8.4,1.3,11.1,3.8c2.7,2.5,4.1,6,4.1,10.3c0,4.4-1.3,7.8-4,10.3C167.5,33.4,163.8,34.6,159,34.6z
								 M149.2,38.8c-4.2,1-7.5,3-9.9,5.9c-2.4,2.9-3.5,6.4-3.5,10.6c0,5.8,2.1,10.4,6.2,13.8c4.2,3.4,9.8,5.1,17.1,5.1
								c7.3,0,13-1.7,17.1-5.1s6.2-8,6.2-13.8c0-4.2-1.2-7.7-3.5-10.6c-2.4-2.9-5.6-4.9-9.8-5.9c4.8-1.1,8.4-3.3,11.1-6.5
								c2.7-3.2,4-7.2,4-11.8c0-7.1-2.2-12.5-6.5-16.3c-4.3-3.8-10.5-5.7-18.5-5.7c-8,0-14.2,1.9-18.5,5.7
								c-4.3,3.8-6.5,9.2-6.5,16.3c0,4.6,1.3,8.6,4,11.8C140.7,35.5,144.4,37.7,149.2,38.8z M145.6,54.4c0-3.8,1.2-6.7,3.5-8.8
								c2.4-2.1,5.7-3.2,9.9-3.2c4.2,0,7.6,1.1,9.9,3.2c2.4,2.1,3.6,5.1,3.6,8.8c0,3.8-1.2,6.7-3.6,8.8c-2.4,2.1-5.7,3.2-9.9,3.2
								c-4.3,0-7.6-1.1-9.9-3.2C146.7,61.1,145.6,58.2,145.6,54.4z"/>
						</g>
						<g>
							<path id="DejaVuSans-30_1_" d="M222.7,66.4c-5.1,0-8.9-2.5-11.5-7.5c-2.6-5-3.8-12.5-3.8-22.5c0-10,1.3-17.5,3.8-22.5
								c2.6-5,6.4-7.5,11.5-7.5c5.1,0,8.9,2.5,11.5,7.5c2.6,5,3.8,12.5,3.8,22.5c0,10-1.3,17.5-3.8,22.5
								C231.6,63.9,227.8,66.4,222.7,66.4z M222.7,74.2c8.2,0,14.4-3.2,18.7-9.7c4.3-6.5,6.5-15.8,6.5-28.1
								c0-12.3-2.2-21.6-6.5-28.1c-4.3-6.5-10.6-9.7-18.7-9.7c-8.2,0-14.4,3.2-18.7,9.7c-4.3,6.5-6.5,15.8-6.5,28.1
								c0,12.3,2.2,21.7,6.5,28.1C208.2,71,214.5,74.2,222.7,74.2z"/>
						</g>
					</g>
				</g>
			</g>
			<g id="xtick_3">
				<g id="line2d_3">
					<g>
						<g>
							<path id="mf906c03105_2_" class="st1" d="M215,252v3.5"/>
						</g>
					</g>
				</g>
				<g id="text_3">
					<g transform="translate(202.236538 266.598437)scale(0.1 -0.1)">
						<g>
							<path id="DejaVuSans-31_2_" d="M12.4,8.3h16.1v55.6L11,60.4v9l17.4,3.5h9.9V8.3h16.1V0h-42V8.3z"/>
						</g>
						<g>
							<path id="DejaVuSans-39_2_" d="M74.6,1.5v9c2.5-1.2,5-2.1,7.5-2.7c2.5-0.6,5-0.9,7.5-0.9c6.5,0,11.5,2.2,14.9,6.6
								c3.4,4.4,5.4,11,5.9,20c-1.9-2.8-4.3-5-7.2-6.5c-2.9-1.5-6.1-2.2-9.6-2.2c-7.3,0-13.1,2.2-17.3,6.6
								c-4.2,4.4-6.4,10.5-6.4,18.1c0,7.5,2.2,13.5,6.6,18c4.4,4.5,10.3,6.8,17.7,6.8c8.4,0,14.9-3.2,19.3-9.7
								c4.4-6.5,6.7-15.8,6.7-28.1c0-11.5-2.7-20.7-8.2-27.5C106.6,2,99.3-1.4,90-1.4c-2.5,0-5,0.2-7.5,0.7
								C80-0.2,77.3,0.5,74.6,1.5z M94.2,32.4c4.4,0,7.9,1.5,10.5,4.5c2.6,3,3.9,7.2,3.9,12.5c0,5.2-1.3,9.4-3.9,12.4
								c-2.6,3-6.1,4.6-10.5,4.6c-4.4,0-7.9-1.5-10.5-4.6s-3.9-7.2-3.9-12.4c0-5.3,1.3-9.4,3.9-12.5C86.3,33.9,89.8,32.4,94.2,32.4z
								"/>
						</g>
						<g>
							<path id="DejaVuSans-39_3_" d="M138.2,1.5v9c2.5-1.2,5-2.1,7.5-2.7c2.5-0.6,5-0.9,7.5-0.9c6.5,0,11.5,2.2,14.9,6.6
								c3.4,4.4,5.4,11,5.9,20c-1.9-2.8-4.3-5-7.2-6.5c-2.9-1.5-6.1-2.2-9.6-2.2c-7.3,0-13.1,2.2-17.3,6.6
								c-4.2,4.4-6.4,10.5-6.4,18.1c0,7.5,2.2,13.5,6.6,18c4.4,4.5,10.3,6.8,17.7,6.8c8.4,0,14.9-3.2,19.3-9.7
								c4.4-6.5,6.7-15.8,6.7-28.1c0-11.5-2.7-20.7-8.2-27.5c-5.4-6.9-12.8-10.3-22-10.3c-2.5,0-5,0.2-7.5,0.7
								C143.6-0.2,141,0.5,138.2,1.5z M157.9,32.4c4.4,0,7.9,1.5,10.5,4.5c2.6,3,3.9,7.2,3.9,12.5c0,5.2-1.3,9.4-3.9,12.4
								c-2.6,3-6.1,4.6-10.5,4.6s-7.9-1.5-10.5-4.6s-3.9-7.2-3.9-12.4c0-5.3,1.3-9.4,3.9-12.5C149.9,33.9,153.4,32.4,157.9,32.4z"/>
						</g>
						<g>
							<path id="DejaVuSans-30_2_" d="M222.7,66.4c-5.1,0-8.9-2.5-11.5-7.5c-2.6-5-3.8-12.5-3.8-22.5c0-10,1.3-17.5,3.8-22.5
								c2.6-5,6.4-7.5,11.5-7.5c5.1,0,8.9,2.5,11.5,7.5c2.6,5,3.8,12.5,3.8,22.5c0,10-1.3,17.5-3.8,22.5
								C231.6,63.9,227.8,66.4,222.7,66.4z M222.7,74.2c8.2,0,14.4-3.2,18.7-9.7c4.3-6.5,6.5-15.8,6.5-28.1
								c0-12.3-2.2-21.6-6.5-28.1c-4.3-6.5-10.6-9.7-18.7-9.7c-8.2,0-14.4,3.2-18.7,9.7c-4.3,6.5-6.5,15.8-6.5,28.1
								c0,12.3,2.2,21.7,6.5,28.1C208.2,71,214.5,74.2,222.7,74.2z"/>
						</g>
					</g>
				</g>
			</g>
			<g id="xtick_4">
				<g id="line2d_4">
					<g>
						<g>
							<path id="mf906c03105_3_" class="st1" d="M279.3,252v3.5"/>
						</g>
					</g>
				</g>
				<g id="text_4">
					<g transform="translate(266.621154 266.598437)scale(0.1 -0.1)">
						<g>
							<path id="DejaVuSans-32" d="M19.2,8.3h34.4V0H7.3v8.3c3.7,3.9,8.8,9.1,15.3,15.6c6.5,6.5,10.5,10.7,12.2,12.6
								c3.2,3.5,5.4,6.5,6.6,9c1.3,2.5,1.9,4.9,1.9,7.2c0,3.9-1.4,7-4.1,9.5c-2.7,2.4-6.3,3.7-10.6,3.7c-3.1,0-6.4-0.5-9.8-1.6
								c-3.4-1.1-7.1-2.7-11-4.9v10c4,1.6,7.7,2.8,11.1,3.6c3.5,0.8,6.6,1.2,9.5,1.2c7.6,0,13.6-1.9,18.1-5.7
								c4.5-3.8,6.7-8.8,6.7-15.1c0-3-0.6-5.8-1.7-8.5c-1.1-2.7-3.2-5.8-6.1-9.5c-0.8-0.9-3.4-3.7-7.8-8.2
								C33.3,22.7,27.1,16.4,19.2,8.3z"/>
						</g>
						<g>
							<path id="DejaVuSans-30_3_" d="M95.4,66.4c-5.1,0-8.9-2.5-11.5-7.5c-2.6-5-3.8-12.5-3.8-22.5c0-10,1.3-17.5,3.8-22.5
								c2.6-5,6.4-7.5,11.5-7.5c5.1,0,8.9,2.5,11.5,7.5c2.6,5,3.8,12.5,3.8,22.5c0,10-1.3,17.5-3.8,22.5
								C104.4,63.9,100.5,66.4,95.4,66.4z M95.4,74.2c8.2,0,14.4-3.2,18.7-9.7c4.3-6.5,6.5-15.8,6.5-28.1c0-12.3-2.2-21.6-6.5-28.1
								c-4.3-6.5-10.6-9.7-18.7-9.7c-8.2,0-14.4,3.2-18.7,9.7c-4.3,6.5-6.5,15.8-6.5,28.1c0,12.3,2.2,21.7,6.5,28.1
								C81,71,87.2,74.2,95.4,74.2z"/>
						</g>
						<g>
							<path id="DejaVuSans-30_4_" d="M159,66.4c-5.1,0-8.9-2.5-11.5-7.5c-2.6-5-3.8-12.5-3.8-22.5c0-10,1.3-17.5,3.8-22.5
								c2.6-5,6.4-7.5,11.5-7.5c5.1,0,8.9,2.5,11.5,7.5c2.6,5,3.8,12.5,3.8,22.5c0,10-1.3,17.5-3.8,22.5
								C168,63.9,164.1,66.4,159,66.4z M159,74.2c8.2,0,14.4-3.2,18.7-9.7c4.3-6.5,6.5-15.8,6.5-28.1c0-12.3-2.2-21.6-6.5-28.1
								c-4.3-6.5-10.6-9.7-18.7-9.7c-8.2,0-14.4,3.2-18.7,9.7c-4.3,6.5-6.5,15.8-6.5,28.1c0,12.3,2.2,21.7,6.5,28.1
								C144.6,71,150.9,74.2,159,74.2z"/>
						</g>
						<g>
							<path id="DejaVuSans-30_5_" d="M222.7,66.4c-5.1,0-8.9-2.5-11.5-7.5c-2.6-5-3.8-12.5-3.8-22.5c0-10,1.3-17.5,3.8-22.5
								c2.6-5,6.4-7.5,11.5-7.5c5.1,0,8.9,2.5,11.5,7.5c2.6,5,3.8,12.5,3.8,22.5c0,10-1.3,17.5-3.8,22.5
								C231.6,63.9,227.8,66.4,222.7,66.4z M222.7,74.2c8.2,0,14.4-3.2,18.7-9.7c4.3-6.5,6.5-15.8,6.5-28.1
								c0-12.3-2.2-21.6-6.5-28.1c-4.3-6.5-10.6-9.7-18.7-9.7c-8.2,0-14.4,3.2-18.7,9.7c-4.3,6.5-6.5,15.8-6.5,28.1
								c0,12.3,2.2,21.7,6.5,28.1C208.2,71,214.5,74.2,222.7,74.2z"/>
						</g>
					</g>
				</g>
			</g>
			<g id="xtick_5">
				<g id="line2d_5">
					<g>
						<g>
							<path id="mf906c03105_4_" class="st1" d="M343.7,252v3.5"/>
						</g>
					</g>
				</g>
				<g id="text_5">
					<g transform="translate(331.005769 266.598437)scale(0.1 -0.1)">
						<g>
							<path id="DejaVuSans-32_1_" d="M19.2,8.3h34.4V0H7.3v8.3c3.7,3.9,8.8,9.1,15.3,15.6c6.5,6.5,10.5,10.7,12.2,12.6
								c3.2,3.5,5.4,6.5,6.6,9c1.3,2.5,1.9,4.9,1.9,7.2c0,3.9-1.4,7-4.1,9.5c-2.7,2.4-6.3,3.7-10.6,3.7c-3.1,0-6.4-0.5-9.8-1.6
								c-3.4-1.1-7.1-2.7-11-4.9v10c4,1.6,7.7,2.8,11.1,3.6c3.5,0.8,6.6,1.2,9.5,1.2c7.6,0,13.6-1.9,18.1-5.7
								c4.5-3.8,6.7-8.8,6.7-15.1c0-3-0.6-5.8-1.7-8.5c-1.1-2.7-3.2-5.8-6.1-9.5c-0.8-0.9-3.4-3.7-7.8-8.2
								C33.3,22.7,27.1,16.4,19.2,8.3z"/>
						</g>
						<g>
							<path id="DejaVuSans-30_6_" d="M95.4,66.4c-5.1,0-8.9-2.5-11.5-7.5c-2.6-5-3.8-12.5-3.8-22.5c0-10,1.3-17.5,3.8-22.5
								c2.6-5,6.4-7.5,11.5-7.5c5.1,0,8.9,2.5,11.5,7.5c2.6,5,3.8,12.5,3.8,22.5c0,10-1.3,17.5-3.8,22.5
								C104.4,63.9,100.5,66.4,95.4,66.4z M95.4,74.2c8.2,0,14.4-3.2,18.7-9.7c4.3-6.5,6.5-15.8,6.5-28.1c0-12.3-2.2-21.6-6.5-28.1
								c-4.3-6.5-10.6-9.7-18.7-9.7c-8.2,0-14.4,3.2-18.7,9.7c-4.3,6.5-6.5,15.8-6.5,28.1c0,12.3,2.2,21.7,6.5,28.1
								C81,71,87.2,74.2,95.4,74.2z"/>
						</g>
						<g>
							<path id="DejaVuSans-31_3_" d="M139.7,8.3h16.1v55.6l-17.5-3.5v9l17.4,3.5h9.9V8.3h16.1V0h-42V8.3z"/>
						</g>
						<g>
							<path id="DejaVuSans-30_7_" d="M222.7,66.4c-5.1,0-8.9-2.5-11.5-7.5c-2.6-5-3.8-12.5-3.8-22.5c0-10,1.3-17.5,3.8-22.5
								c2.6-5,6.4-7.5,11.5-7.5c5.1,0,8.9,2.5,11.5,7.5c2.6,5,3.8,12.5,3.8,22.5c0,10-1.3,17.5-3.8,22.5
								C231.6,63.9,227.8,66.4,222.7,66.4z M222.7,74.2c8.2,0,14.4-3.2,18.7-9.7c4.3-6.5,6.5-15.8,6.5-28.1
								c0-12.3-2.2-21.6-6.5-28.1c-4.3-6.5-10.6-9.7-18.7-9.7c-8.2,0-14.4,3.2-18.7,9.7c-4.3,6.5-6.5,15.8-6.5,28.1
								c0,12.3,2.2,21.7,6.5,28.1C208.2,71,214.5,74.2,222.7,74.2z"/>
						</g>
					</g>
				</g>
			</g>
			<g id="text_6">
				<g transform="translate(188.367969 280.276563)scale(0.1 -0.1)">
					<g>
						<path id="DejaVuSans-73" d="M44.3,53.1v-8.5c-2.5,1.3-5.2,2.3-7.9,2.9c-2.7,0.7-5.6,1-8.5,1c-4.5,0-7.8-0.7-10-2
							s-3.3-3.4-3.3-6.2c0-2.1,0.8-3.7,2.4-4.9s4.8-2.3,9.6-3.4l3.1-0.7c6.4-1.4,10.9-3.3,13.6-5.8s4-6,4-10.4c0-5.1-2-9.1-6-12.1
							c-4-3-9.5-4.4-16.6-4.4c-2.9,0-6,0.3-9.2,0.9S8.9,0.9,5.4,2v9.3c3.3-1.7,6.6-3,9.8-3.9c3.2-0.9,6.4-1.3,9.6-1.3
							c4.2,0,7.5,0.7,9.7,2.2c2.3,1.4,3.4,3.5,3.4,6.1c0,2.4-0.8,4.3-2.5,5.6c-1.6,1.3-5.2,2.6-10.8,3.8l-3.1,0.7
							c-5.6,1.2-9.6,3-12.1,5.4c-2.5,2.4-3.7,5.8-3.7,10c0,5.1,1.8,9.1,5.5,11.9c3.6,2.8,8.8,4.2,15.5,4.2c3.3,0,6.4-0.2,9.4-0.7
							C39.1,54.8,41.8,54.1,44.3,53.1z"/>
					</g>
					<g>
						<path id="DejaVuSans-74" d="M70.4,70.2V54.7h18.5v-7H70.4V18c0-4.5,0.6-7.3,1.8-8.6s3.7-1.9,7.5-1.9h9.2V0h-9.2
							C72.8,0,68,1.3,65.3,3.9c-2.6,2.6-4,7.3-4,14.1v29.7h-6.6v7h6.6v15.5H70.4z"/>
					</g>
					<g>
						<path id="DejaVuSans-61" d="M125.6,27.5c-7.3,0-12.3-0.8-15.1-2.5s-4.2-4.5-4.2-8.5c0-3.2,1.1-5.7,3.2-7.6
							c2.1-1.9,5-2.8,8.6-2.8c5,0,9,1.8,12,5.3s4.5,8.2,4.5,14.1v2H125.6z M143.5,31.2V0h-9v8.3c-2.1-3.3-4.6-5.8-7.7-7.3
							s-6.8-2.4-11.2-2.4c-5.6,0-10,1.6-13.4,4.7c-3.3,3.1-5,7.4-5,12.6c0,6.1,2.1,10.8,6.2,13.9c4.1,3.1,10.3,4.7,18.4,4.7h12.6
							v0.9c0,4.1-1.4,7.3-4.1,9.6s-6.5,3.4-11.5,3.4c-3.1,0-6.2-0.4-9.1-1.1c-3-0.8-5.8-1.9-8.5-3.4v8.3c3.3,1.3,6.5,2.2,9.6,2.8
							c3.1,0.6,6.1,1,9,1c7.9,0,13.8-2.1,17.7-6.2C141.6,45.7,143.5,39.5,143.5,31.2z"/>
					</g>
					<g>
						<path id="DejaVuSans-72" d="M193.7,46.3c-1,0.6-2.1,1-3.3,1.3c-1.2,0.3-2.5,0.4-3.9,0.4c-5.1,0-9-1.7-11.7-5s-4.1-8-4.1-14.2
							V0h-9v54.7h9v-8.5c1.9,3.3,4.4,5.8,7.4,7.4c3,1.6,6.7,2.4,11,2.4c0.6,0,1.3,0,2-0.1c0.8-0.1,1.6-0.2,2.5-0.4L193.7,46.3z"/>
					</g>
					<g>
						<path id="DejaVuSans-74_1_" d="M212,70.2V54.7h18.5v-7H212V18c0-4.5,0.6-7.3,1.8-8.6s3.7-1.9,7.5-1.9h9.2V0h-9.2
							c-6.9,0-11.7,1.3-14.4,3.9c-2.6,2.6-4,7.3-4,14.1v29.7h-6.6v7h6.6v15.5H212z"/>
					</g>
					<g>
						<path id="DejaVuSans-69" d="M242.3,54.7h9V0h-9V54.7z M242.3,76h9V64.6h-9V76z"/>
					</g>
					<g>
						<path id="DejaVuSans-6e" d="M315.6,33V0h-9v32.7c0,5.2-1,9-3,11.6c-2,2.6-5,3.9-9.1,3.9c-4.9,0-8.7-1.5-11.5-4.6
							c-2.8-3.1-4.2-7.3-4.2-12.6V0h-9v54.7h9v-8.5c2.2,3.3,4.7,5.8,7.6,7.4c2.9,1.6,6.3,2.4,10.1,2.4c6.3,0,11-1.9,14.2-5.8
							C314,46.3,315.6,40.6,315.6,33z"/>
					</g>
					<g>
						<path id="DejaVuSans-67" d="M369.5,28c0,6.5-1.3,11.6-4,15.1c-2.7,3.6-6.4,5.4-11.3,5.4c-4.8,0-8.6-1.8-11.2-5.4
							c-2.7-3.6-4-8.6-4-15.1c0-6.5,1.3-11.5,4-15.1s6.4-5.4,11.2-5.4c4.9,0,8.6,1.8,11.3,5.4C368.1,16.5,369.5,21.5,369.5,28z
							 M378.5,6.8c0-9.3-2.1-16.2-6.2-20.8c-4.1-4.5-10.5-6.8-19-6.8c-3.2,0-6.1,0.2-8.9,0.7s-5.5,1.2-8.2,2.2v8.7
							c2.6-1.4,5.2-2.5,7.8-3.2c2.6-0.7,5.2-1,7.9-1c5.9,0,10.3,1.5,13.2,4.6s4.4,7.7,4.4,13.9v4.5c-1.9-3.2-4.2-5.6-7.1-7.2
							S356,0,351.9,0c-6.7,0-12.1,2.6-16.2,7.7c-4.1,5.1-6.2,11.9-6.2,20.3c0,8.5,2.1,15.2,6.2,20.3c4.1,5.1,9.5,7.7,16.2,7.7
							c4,0,7.5-0.8,10.4-2.4s5.3-4,7.1-7.2v8.3h9V6.8z"/>
					</g>
					<g>
						<path id="DejaVuSans-5f" d="M438.5-16.6v-7h-52v7H438.5z"/>
					</g>
					<g>
						<path id="DejaVuSans-79" d="M469.7-5.1c-2.5-6.5-5-10.8-7.4-12.7c-2.4-2-5.6-3-9.7-3h-7.2v7.5h5.3c2.5,0,4.4,0.6,5.8,1.8
							c1.4,1.2,2.9,3.9,4.5,8.3l1.6,4.1l-22.1,53.8h9.5l17.1-42.8l17.1,42.8h9.5L469.7-5.1z"/>
					</g>
					<g>
						<path id="DejaVuSans-65" d="M552.9,29.6v-4.4h-41.3c0.4-6.2,2.3-10.9,5.6-14.1s8-4.9,13.9-4.9c3.4,0,6.8,0.4,10,1.3
							s6.5,2.1,9.7,3.8V2.8c-3.2-1.4-6.5-2.4-9.9-3.1s-6.8-1.1-10.3-1.1c-8.7,0-15.6,2.5-20.7,7.6c-5.1,5.1-7.6,12-7.6,20.6
							c0,8.9,2.4,16,7.2,21.3c4.8,5.3,11.4,7.9,19.6,7.9c7.4,0,13.2-2.4,17.5-7.1C550.8,44.2,552.9,37.7,552.9,29.6z M543.9,32.2
							c-0.1,4.9-1.4,8.8-4.1,11.8c-2.7,2.9-6.2,4.4-10.7,4.4c-5,0-9-1.4-12-4.2s-4.7-6.8-5.2-12L543.9,32.2z"/>
					</g>
					<g>
						<path id="DejaVuSans-61_1_" d="M592.5,27.5c-7.3,0-12.3-0.8-15.1-2.5s-4.2-4.5-4.2-8.5c0-3.2,1.1-5.7,3.2-7.6
							c2.1-1.9,5-2.8,8.6-2.8c5,0,9,1.8,12,5.3s4.5,8.2,4.5,14.1v2H592.5z M610.5,31.2V0h-9v8.3c-2.1-3.3-4.6-5.8-7.7-7.3
							s-6.8-2.4-11.2-2.4c-5.6,0-10,1.6-13.4,4.7c-3.3,3.1-5,7.4-5,12.6c0,6.1,2.1,10.8,6.2,13.9c4.1,3.1,10.3,4.7,18.4,4.7h12.6
							v0.9c0,4.1-1.4,7.3-4.1,9.6s-6.5,3.4-11.5,3.4c-3.1,0-6.2-0.4-9.1-1.1c-3-0.8-5.8-1.9-8.5-3.4v8.3c3.3,1.3,6.5,2.2,9.6,2.8
							c3.1,0.6,6.1,1,9,1c7.9,0,13.8-2.1,17.7-6.2C608.5,45.7,610.5,39.5,610.5,31.2z"/>
					</g>
					<g>
						<path id="DejaVuSans-72_1_" d="M660.6,46.3c-1,0.6-2.1,1-3.3,1.3c-1.2,0.3-2.5,0.4-3.9,0.4c-5.1,0-9-1.7-11.7-5
							s-4.1-8-4.1-14.2V0h-9v54.7h9v-8.5c1.9,3.3,4.4,5.8,7.4,7.4c3,1.6,6.7,2.4,11,2.4c0.6,0,1.3,0,2-0.1c0.8-0.1,1.6-0.2,2.5-0.4
							L660.6,46.3z"/>
					</g>
				</g>
			</g>
		</g>
		<g id="matplotlib.axis_2">
			<g id="ytick_1">
				<g id="line2d_6">
					<g>
						<g>
							<path id="m0d20ab68f9" class="st1" d="M54,252h-3.5"/>
						</g>
					</g>
				</g>
				<g id="text_7">
					<g transform="translate(40.6375 255.799219)scale(0.1 -0.1)">
						<g>
							<path id="DejaVuSans-30_8_" d="M31.8,66.4c-5.1,0-8.9-2.5-11.5-7.5c-2.6-5-3.8-12.5-3.8-22.5c0-10,1.3-17.5,3.8-22.5
								c2.6-5,6.4-7.5,11.5-7.5c5.1,0,8.9,2.5,11.5,7.5c2.6,5,3.8,12.5,3.8,22.5c0,10-1.3,17.5-3.8,22.5
								C40.7,63.9,36.9,66.4,31.8,66.4z M31.8,74.2c8.2,0,14.4-3.2,18.7-9.7c4.3-6.5,6.5-15.8,6.5-28.1c0-12.3-2.2-21.6-6.5-28.1
								C46.2,1.8,40-1.4,31.8-1.4c-8.2,0-14.4,3.2-18.7,9.7c-4.3,6.5-6.5,15.8-6.5,28.1c0,12.3,2.2,21.7,6.5,28.1
								C17.4,71,23.6,74.2,31.8,74.2z"/>
						</g>
					</g>
				</g>
			</g>
			<g id="ytick_2">
				<g id="line2d_7">
					<g>
						<g>
							<path id="m0d20ab68f9_1_" class="st1" d="M54,206.2h-3.5"/>
						</g>
					</g>
				</g>
				<g id="text_8">
					<g transform="translate(21.55 209.958742)scale(0.1 -0.1)">
						<g>
							<path id="DejaVuSans-32_2_" d="M19.2,8.3h34.4V0H7.3v8.3c3.7,3.9,8.8,9.1,15.3,15.6c6.5,6.5,10.5,10.7,12.2,12.6
								c3.2,3.5,5.4,6.5,6.6,9c1.3,2.5,1.9,4.9,1.9,7.2c0,3.9-1.4,7-4.1,9.5c-2.7,2.4-6.3,3.7-10.6,3.7c-3.1,0-6.4-0.5-9.8-1.6
								c-3.4-1.1-7.1-2.7-11-4.9v10c4,1.6,7.7,2.8,11.1,3.6c3.5,0.8,6.6,1.2,9.5,1.2c7.6,0,13.6-1.9,18.1-5.7
								c4.5-3.8,6.7-8.8,6.7-15.1c0-3-0.6-5.8-1.7-8.5c-1.1-2.7-3.2-5.8-6.1-9.5c-0.8-0.9-3.4-3.7-7.8-8.2
								C33.3,22.7,27.1,16.4,19.2,8.3z"/>
						</g>
						<g>
							<path id="DejaVuSans-30_9_" d="M95.4,66.4c-5.1,0-8.9-2.5-11.5-7.5c-2.6-5-3.8-12.5-3.8-22.5c0-10,1.3-17.5,3.8-22.5
								c2.6-5,6.4-7.5,11.5-7.5c5.1,0,8.9,2.5,11.5,7.5c2.6,5,3.8,12.5,3.8,22.5c0,10-1.3,17.5-3.8,22.5
								C104.4,63.9,100.5,66.4,95.4,66.4z M95.4,74.2c8.2,0,14.4-3.2,18.7-9.7c4.3-6.5,6.5-15.8,6.5-28.1c0-12.3-2.2-21.6-6.5-28.1
								c-4.3-6.5-10.6-9.7-18.7-9.7c-8.2,0-14.4,3.2-18.7,9.7c-4.3,6.5-6.5,15.8-6.5,28.1c0,12.3,2.2,21.7,6.5,28.1
								C81,71,87.2,74.2,95.4,74.2z"/>
						</g>
						<g>
							<path id="DejaVuSans-30_10_" d="M159,66.4c-5.1,0-8.9-2.5-11.5-7.5c-2.6-5-3.8-12.5-3.8-22.5c0-10,1.3-17.5,3.8-22.5
								c2.6-5,6.4-7.5,11.5-7.5c5.1,0,8.9,2.5,11.5,7.5c2.6,5,3.8,12.5,3.8,22.5c0,10-1.3,17.5-3.8,22.5
								C168,63.9,164.1,66.4,159,66.4z M159,74.2c8.2,0,14.4-3.2,18.7-9.7c4.3-6.5,6.5-15.8,6.5-28.1c0-12.3-2.2-21.6-6.5-28.1
								c-4.3-6.5-10.6-9.7-18.7-9.7c-8.2,0-14.4,3.2-18.7,9.7c-4.3,6.5-6.5,15.8-6.5,28.1c0,12.3,2.2,21.7,6.5,28.1
								C144.6,71,150.9,74.2,159,74.2z"/>
						</g>
						<g>
							<path id="DejaVuSans-30_11_" d="M222.7,66.4c-5.1,0-8.9-2.5-11.5-7.5c-2.6-5-3.8-12.5-3.8-22.5c0-10,1.3-17.5,3.8-22.5
								c2.6-5,6.4-7.5,11.5-7.5c5.1,0,8.9,2.5,11.5,7.5c2.6,5,3.8,12.5,3.8,22.5c0,10-1.3,17.5-3.8,22.5
								C231.6,63.9,227.8,66.4,222.7,66.4z M222.7,74.2c8.2,0,14.4-3.2,18.7-9.7c4.3-6.5,6.5-15.8,6.5-28.1
								c0-12.3-2.2-21.6-6.5-28.1c-4.3-6.5-10.6-9.7-18.7-9.7c-8.2,0-14.4,3.2-18.7,9.7c-4.3,6.5-6.5,15.8-6.5,28.1
								c0,12.3,2.2,21.7,6.5,28.1C208.2,71,214.5,74.2,222.7,74.2z"/>
						</g>
					</g>
				</g>
			</g>
			<g id="ytick_3">
				<g id="line2d_8">
					<g>
						<g>
							<path id="m0d20ab68f9_2_" class="st1" d="M54,160.3h-3.5"/>
						</g>
					</g>
				</g>
				<g id="text_9">
					<g transform="translate(21.55 164.118266)scale(0.1 -0.1)">
						<g>
							<path id="DejaVuSans-34" d="M37.8,64.3L12.9,25.4h24.9V64.3z M35.2,72.9h12.4V25.4H58v-8.2H47.6V0h-9.8v17.2H4.9v9.5
								L35.2,72.9z"/>
						</g>
						<g>
							<path id="DejaVuSans-30_12_" d="M95.4,66.4c-5.1,0-8.9-2.5-11.5-7.5c-2.6-5-3.8-12.5-3.8-22.5c0-10,1.3-17.5,3.8-22.5
								c2.6-5,6.4-7.5,11.5-7.5c5.1,0,8.9,2.5,11.5,7.5c2.6,5,3.8,12.5,3.8,22.5c0,10-1.3,17.5-3.8,22.5
								C104.4,63.9,100.5,66.4,95.4,66.4z M95.4,74.2c8.2,0,14.4-3.2,18.7-9.7c4.3-6.5,6.5-15.8,6.5-28.1c0-12.3-2.2-21.6-6.5-28.1
								c-4.3-6.5-10.6-9.7-18.7-9.7c-8.2,0-14.4,3.2-18.7,9.7c-4.3,6.5-6.5,15.8-6.5,28.1c0,12.3,2.2,21.7,6.5,28.1
								C81,71,87.2,74.2,95.4,74.2z"/>
						</g>
						<g>
							<path id="DejaVuSans-30_13_" d="M159,66.4c-5.1,0-8.9-2.5-11.5-7.5c-2.6-5-3.8-12.5-3.8-22.5c0-10,1.3-17.5,3.8-22.5
								c2.6-5,6.4-7.5,11.5-7.5c5.1,0,8.9,2.5,11.5,7.5c2.6,5,3.8,12.5,3.8,22.5c0,10-1.3,17.5-3.8,22.5
								C168,63.9,164.1,66.4,159,66.4z M159,74.2c8.2,0,14.4-3.2,18.7-9.7c4.3-6.5,6.5-15.8,6.5-28.1c0-12.3-2.2-21.6-6.5-28.1
								c-4.3-6.5-10.6-9.7-18.7-9.7c-8.2,0-14.4,3.2-18.7,9.7c-4.3,6.5-6.5,15.8-6.5,28.1c0,12.3,2.2,21.7,6.5,28.1
								C144.6,71,150.9,74.2,159,74.2z"/>
						</g>
						<g>
							<path id="DejaVuSans-30_14_" d="M222.7,66.4c-5.1,0-8.9-2.5-11.5-7.5c-2.6-5-3.8-12.5-3.8-22.5c0-10,1.3-17.5,3.8-22.5
								c2.6-5,6.4-7.5,11.5-7.5c5.1,0,8.9,2.5,11.5,7.5c2.6,5,3.8,12.5,3.8,22.5c0,10-1.3,17.5-3.8,22.5
								C231.6,63.9,227.8,66.4,222.7,66.4z M222.7,74.2c8.2,0,14.4-3.2,18.7-9.7c4.3-6.5,6.5-15.8,6.5-28.1
								c0-12.3-2.2-21.6-6.5-28.1c-4.3-6.5-10.6-9.7-18.7-9.7c-8.2,0-14.4,3.2-18.7,9.7c-4.3,6.5-6.5,15.8-6.5,28.1
								c0,12.3,2.2,21.7,6.5,28.1C208.2,71,214.5,74.2,222.7,74.2z"/>
						</g>
					</g>
				</g>
			</g>
			<g id="ytick_4">
				<g id="line2d_9">
					<g>
						<g>
							<path id="m0d20ab68f9_3_" class="st1" d="M54,114.5h-3.5"/>
						</g>
					</g>
				</g>
				<g id="text_10">
					<g transform="translate(21.55 118.27779)scale(0.1 -0.1)">
						<g>
							<path id="DejaVuSans-36" d="M33,40.4c-4.4,0-7.9-1.5-10.5-4.5c-2.6-3-3.9-7.2-3.9-12.4c0-5.2,1.3-9.4,3.9-12.4
								c2.6-3,6.1-4.6,10.5-4.6s7.9,1.5,10.5,4.6c2.6,3.1,3.9,7.2,3.9,12.4c0,5.3-1.3,9.4-3.9,12.4C40.9,38.9,37.4,40.4,33,40.4z
								 M52.6,71.3v-9c-2.5,1.2-5,2.1-7.5,2.7c-2.5,0.6-5,0.9-7.5,0.9c-6.5,0-11.5-2.2-14.9-6.6c-3.4-4.4-5.4-11-5.9-19.9
								c1.9,2.8,4.3,5,7.2,6.5c2.9,1.5,6.1,2.3,9.6,2.3c7.3,0,13.1-2.2,17.4-6.7c4.2-4.4,6.4-10.5,6.4-18.1c0-7.5-2.2-13.5-6.6-18
								C46.3,0.8,40.4-1.4,33-1.4c-8.4,0-14.9,3.2-19.3,9.7C9.2,14.7,7,24.1,7,36.4c0,11.5,2.7,20.7,8.2,27.6s12.8,10.3,22,10.3
								c2.5,0,5-0.2,7.5-0.7S49.9,72.3,52.6,71.3z"/>
						</g>
						<g>
							<path id="DejaVuSans-30_15_" d="M95.4,66.4c-5.1,0-8.9-2.5-11.5-7.5c-2.6-5-3.8-12.5-3.8-22.5c0-10,1.3-17.5,3.8-22.5
								c2.6-5,6.4-7.5,11.5-7.5c5.1,0,8.9,2.5,11.5,7.5c2.6,5,3.8,12.5,3.8,22.5c0,10-1.3,17.5-3.8,22.5
								C104.4,63.9,100.5,66.4,95.4,66.4z M95.4,74.2c8.2,0,14.4-3.2,18.7-9.7c4.3-6.5,6.5-15.8,6.5-28.1c0-12.3-2.2-21.6-6.5-28.1
								c-4.3-6.5-10.6-9.7-18.7-9.7c-8.2,0-14.4,3.2-18.7,9.7c-4.3,6.5-6.5,15.8-6.5,28.1c0,12.3,2.2,21.7,6.5,28.1
								C81,71,87.2,74.2,95.4,74.2z"/>
						</g>
						<g>
							<path id="DejaVuSans-30_16_" d="M159,66.4c-5.1,0-8.9-2.5-11.5-7.5c-2.6-5-3.8-12.5-3.8-22.5c0-10,1.3-17.5,3.8-22.5
								c2.6-5,6.4-7.5,11.5-7.5c5.1,0,8.9,2.5,11.5,7.5c2.6,5,3.8,12.5,3.8,22.5c0,10-1.3,17.5-3.8,22.5
								C168,63.9,164.1,66.4,159,66.4z M159,74.2c8.2,0,14.4-3.2,18.7-9.7c4.3-6.5,6.5-15.8,6.5-28.1c0-12.3-2.2-21.6-6.5-28.1
								c-4.3-6.5-10.6-9.7-18.7-9.7c-8.2,0-14.4,3.2-18.7,9.7c-4.3,6.5-6.5,15.8-6.5,28.1c0,12.3,2.2,21.7,6.5,28.1
								C144.6,71,150.9,74.2,159,74.2z"/>
						</g>
						<g>
							<path id="DejaVuSans-30_17_" d="M222.7,66.4c-5.1,0-8.9-2.5-11.5-7.5c-2.6-5-3.8-12.5-3.8-22.5c0-10,1.3-17.5,3.8-22.5
								c2.6-5,6.4-7.5,11.5-7.5c5.1,0,8.9,2.5,11.5,7.5c2.6,5,3.8,12.5,3.8,22.5c0,10-1.3,17.5-3.8,22.5
								C231.6,63.9,227.8,66.4,222.7,66.4z M222.7,74.2c8.2,0,14.4-3.2,18.7-9.7c4.3-6.5,6.5-15.8,6.5-28.1
								c0-12.3-2.2-21.6-6.5-28.1c-4.3-6.5-10.6-9.7-18.7-9.7c-8.2,0-14.4,3.2-18.7,9.7c-4.3,6.5-6.5,15.8-6.5,28.1
								c0,12.3,2.2,21.7,6.5,28.1C208.2,71,214.5,74.2,222.7,74.2z"/>
						</g>
					</g>
				</g>
			</g>
			<g id="ytick_5">
				<g id="line2d_10">
					<g>
						<g>
							<path id="m0d20ab68f9_4_" class="st1" d="M54,68.6h-3.5"/>
						</g>
					</g>
				</g>
				<g id="text_11">
					<g transform="translate(21.55 72.437313)scale(0.1 -0.1)">
						<g>
							<path id="DejaVuSans-38_1_" d="M31.8,34.6c-4.7,0-8.4-1.3-11.1-3.8c-2.7-2.5-4-6-4-10.3c0-4.4,1.3-7.8,4-10.4
								c2.7-2.5,6.4-3.8,11.1-3.8s8.4,1.3,11.1,3.8c2.7,2.5,4.1,6,4.1,10.3c0,4.4-1.3,7.8-4,10.3C40.2,33.4,36.5,34.6,31.8,34.6z
								 M21.9,38.8c-4.2,1-7.5,3-9.9,5.9c-2.4,2.9-3.5,6.4-3.5,10.6c0,5.8,2.1,10.4,6.2,13.8c4.2,3.4,9.8,5.1,17.1,5.1
								c7.3,0,13-1.7,17.1-5.1s6.2-8,6.2-13.8c0-4.2-1.2-7.7-3.5-10.6c-2.4-2.9-5.6-4.9-9.8-5.9c4.8-1.1,8.4-3.3,11.1-6.5
								c2.7-3.2,4-7.2,4-11.8c0-7.1-2.2-12.5-6.5-16.3C46,0.5,39.8-1.4,31.8-1.4c-8,0-14.2,1.9-18.5,5.7C8.9,8,6.8,13.4,6.8,20.5
								c0,4.6,1.3,8.6,4,11.8C13.5,35.5,17.2,37.7,21.9,38.8z M18.3,54.4c0-3.8,1.2-6.7,3.5-8.8c2.4-2.1,5.7-3.2,9.9-3.2
								c4.2,0,7.6,1.1,9.9,3.2c2.4,2.1,3.6,5.1,3.6,8.8c0,3.8-1.2,6.7-3.6,8.8c-2.4,2.1-5.7,3.2-9.9,3.2c-4.3,0-7.6-1.1-9.9-3.2
								C19.5,61.1,18.3,58.2,18.3,54.4z"/>
						</g>
						<g>
							<path id="DejaVuSans-30_18_" d="M95.4,66.4c-5.1,0-8.9-2.5-11.5-7.5c-2.6-5-3.8-12.5-3.8-22.5c0-10,1.3-17.5,3.8-22.5
								c2.6-5,6.4-7.5,11.5-7.5c5.1,0,8.9,2.5,11.5,7.5c2.6,5,3.8,12.5,3.8,22.5c0,10-1.3,17.5-3.8,22.5
								C104.4,63.9,100.5,66.4,95.4,66.4z M95.4,74.2c8.2,0,14.4-3.2,18.7-9.7c4.3-6.5,6.5-15.8,6.5-28.1c0-12.3-2.2-21.6-6.5-28.1
								c-4.3-6.5-10.6-9.7-18.7-9.7c-8.2,0-14.4,3.2-18.7,9.7c-4.3,6.5-6.5,15.8-6.5,28.1c0,12.3,2.2,21.7,6.5,28.1
								C81,71,87.2,74.2,95.4,74.2z"/>
						</g>
						<g>
							<path id="DejaVuSans-30_19_" d="M159,66.4c-5.1,0-8.9-2.5-11.5-7.5c-2.6-5-3.8-12.5-3.8-22.5c0-10,1.3-17.5,3.8-22.5
								c2.6-5,6.4-7.5,11.5-7.5c5.1,0,8.9,2.5,11.5,7.5c2.6,5,3.8,12.5,3.8,22.5c0,10-1.3,17.5-3.8,22.5
								C168,63.9,164.1,66.4,159,66.4z M159,74.2c8.2,0,14.4-3.2,18.7-9.7c4.3-6.5,6.5-15.8,6.5-28.1c0-12.3-2.2-21.6-6.5-28.1
								c-4.3-6.5-10.6-9.7-18.7-9.7c-8.2,0-14.4,3.2-18.7,9.7c-4.3,6.5-6.5,15.8-6.5,28.1c0,12.3,2.2,21.7,6.5,28.1
								C144.6,71,150.9,74.2,159,74.2z"/>
						</g>
						<g>
							<path id="DejaVuSans-30_20_" d="M222.7,66.4c-5.1,0-8.9-2.5-11.5-7.5c-2.6-5-3.8-12.5-3.8-22.5c0-10,1.3-17.5,3.8-22.5
								c2.6-5,6.4-7.5,11.5-7.5c5.1,0,8.9,2.5,11.5,7.5c2.6,5,3.8,12.5,3.8,22.5c0,10-1.3,17.5-3.8,22.5
								C231.6,63.9,227.8,66.4,222.7,66.4z M222.7,74.2c8.2,0,14.4-3.2,18.7-9.7c4.3-6.5,6.5-15.8,6.5-28.1
								c0-12.3-2.2-21.6-6.5-28.1c-4.3-6.5-10.6-9.7-18.7-9.7c-8.2,0-14.4,3.2-18.7,9.7c-4.3,6.5-6.5,15.8-6.5,28.1
								c0,12.3,2.2,21.7,6.5,28.1C208.2,71,214.5,74.2,222.7,74.2z"/>
						</g>
					</g>
				</g>
			</g>
		</g>
		<g id="line2d_11">
			<g>
				<defs>
					<rect id="SVGID_1_" x="54" y="34.6" width="334.8" height="217.4"/>
				</defs>
				<clipPath id="SVGID_2_">
					<use xlink:href="#SVGID_1_"  style="overflow:visible;"/>
				</clipPath>
				<path class="st2" d="M60.4,199.8l6.4,0.4l6.4,0.7l6.4-2.8l6.4-2.4l6.4-2.8l6.4-7.7l6.4,4.1l6.4,6.4l6.4,0.7l6.4-4.1l6.4,0.3
					l6.4,2.4l6.4,3.1l6.4,1.3l6.4-2.2l6.4-4.8l6.4-4.4l6.4-1.9l6.4-2.8l6.4-3.4l6.4-3.2l6.4-1.8l6.4-2.5l6.4-0.5l6.4-6.9l6.4-6.6
					l6.4-4.9l6.4-2.7l6.4-3.5l6.4-2.1l6.4-2.4l6.4-2.3l6.4-0.9l6.4-1.2l6.4-5.5l6.4-7.1l6.4-13.8l6.4-9l6.4-3.8l6.4-4.9l6.4-1.8
					l6.4-7.6l6.4-9l6.4-7.2l6.4-9.3l6.4-5.6l6.4-2.8l6.4-4.1l6.4-4.2l6.4,3.2l6.4-0.8"/>
			</g>
		</g>
		<g id="patch_3">
			<path class="st3" d="M54,252V34.6"/>
		</g>
		<g id="patch_4">
			<path class="st3" d="M388.8,252V34.6"/>
		</g>
		<g id="patch_5">
			<path class="st3" d="M54,252h334.8"/>
		</g>
		<g id="patch_6">
			<path class="st3" d="M54,34.6h334.8"/>
		</g>
		<g id="legend_1">
			<g id="patch_7">
				<path class="st4" d="M61,57.5h114c1.3,0,2-0.7,2-2v-14c0-1.3-0.7-2-2-2H61c-1.3,0-2,0.7-2,2v14C59,56.8,59.7,57.5,61,57.5z"/>
			</g>
			<g id="line2d_12">
				<path class="st5" d="M63,47.7h20"/>
			</g>
			<g id="line2d_13">
			</g>
			<g id="text_12">
				<g transform="translate(91 51.158438)scale(0.1 -0.1)">
					<g>
						<path id="DejaVuSans-74_2_" d="M18.3,70.2V54.7h18.5v-7H18.3V18c0-4.5,0.6-7.3,1.8-8.6s3.7-1.9,7.5-1.9h9.2V0h-9.2
							c-6.9,0-11.7,1.3-14.4,3.9c-2.6,2.6-4,7.3-4,14.1v29.7H2.7v7h6.6v15.5H18.3z"/>
					</g>
					<g>
						<path id="DejaVuSans-75" d="M47.7,21.6v33.1h9V21.9c0-5.2,1-9.1,3-11.7c2-2.6,5.1-3.9,9.1-3.9c4.8,0,8.7,1.5,11.5,4.6
							c2.8,3.1,4.2,7.3,4.2,12.7v31h9V0h-9v8.4c-2.2-3.3-4.7-5.8-7.6-7.4c-2.9-1.6-6.2-2.4-10-2.4c-6.3,0-11.1,2-14.3,5.9
							C49.3,8.3,47.7,14.1,47.7,21.6z"/>
					</g>
					<g>
						<path id="DejaVuSans-69_1_" d="M112,54.7h9V0h-9V54.7z M112,76h9V64.6h-9V76z"/>
					</g>
					<g>
						<path id="DejaVuSans-74_3_" d="M148.7,70.2V54.7h18.5v-7h-18.5V18c0-4.5,0.6-7.3,1.8-8.6s3.7-1.9,7.5-1.9h9.2V0H158
							c-6.9,0-11.7,1.3-14.4,3.9c-2.6,2.6-4,7.3-4,14.1v29.7h-6.6v7h6.6v15.5H148.7z"/>
					</g>
					<g>
						<path id="DejaVuSans-69_2_" d="M179,54.7h9V0h-9V54.7z M179,76h9V64.6h-9V76z"/>
					</g>
					<g>
						<path id="DejaVuSans-6f" d="M228,48.4c-4.8,0-8.6-1.9-11.4-5.6c-2.8-3.8-4.2-8.9-4.2-15.5s1.4-11.7,4.2-15.5
							c2.8-3.8,6.6-5.6,11.5-5.6c4.8,0,8.6,1.9,11.4,5.7c2.8,3.8,4.2,8.9,4.2,15.4c0,6.5-1.4,11.6-4.2,15.4
							C236.6,46.5,232.8,48.4,228,48.4z M228,56c7.8,0,13.9-2.5,18.4-7.6c4.5-5.1,6.7-12.1,6.7-21.1c0-8.9-2.2-16-6.7-21.1
							c-4.5-5.1-10.6-7.6-18.4-7.6c-7.8,0-14,2.5-18.4,7.6c-4.4,5.1-6.7,12.1-6.7,21.1c0,9,2.2,16,6.7,21.1
							C214,53.5,220.1,56,228,56z"/>
					</g>
					<g>
						<path id="DejaVuSans-6e_1_" d="M313.4,33V0h-9v32.7c0,5.2-1,9-3,11.6c-2,2.6-5,3.9-9.1,3.9c-4.9,0-8.7-1.5-11.5-4.6
							c-2.8-3.1-4.2-7.3-4.2-12.6V0h-9v54.7h9v-8.5c2.2,3.3,4.7,5.8,7.6,7.4c2.9,1.6,6.3,2.4,10.1,2.4c6.3,0,11-1.9,14.2-5.8
							C311.8,46.3,313.4,40.6,313.4,33z"/>
					</g>
					<g>
						<path id="DejaVuSans-5f_1_" d="M372.9-16.6v-7h-52v7H372.9z"/>
					</g>
					<g>
						<path id="DejaVuSans-61_2_" d="M406.2,27.5c-7.3,0-12.3-0.8-15.1-2.5c-2.8-1.7-4.2-4.5-4.2-8.5c0-3.2,1.1-5.7,3.2-7.6
							c2.1-1.9,5-2.8,8.6-2.8c5,0,9,1.8,12,5.3c3,3.5,4.5,8.2,4.5,14.1v2H406.2z M424.1,31.2V0h-9v8.3c-2.1-3.3-4.6-5.8-7.7-7.3
							s-6.8-2.4-11.2-2.4c-5.6,0-10,1.6-13.4,4.7c-3.3,3.1-5,7.4-5,12.6c0,6.1,2.1,10.8,6.2,13.9c4.1,3.1,10.3,4.7,18.4,4.7h12.6
							v0.9c0,4.1-1.4,7.3-4.1,9.6s-6.5,3.4-11.5,3.4c-3.1,0-6.2-0.4-9.1-1.1c-3-0.8-5.8-1.9-8.5-3.4v8.3c3.3,1.3,6.5,2.2,9.6,2.8
							c3.1,0.6,6.1,1,9,1c7.9,0,13.8-2.1,17.7-6.2C422.2,45.8,424.1,39.5,424.1,31.2z"/>
					</g>
					<g>
						<path id="DejaVuSans-6e_2_" d="M488.1,33V0h-9v32.7c0,5.2-1,9-3,11.6c-2,2.6-5,3.9-9.1,3.9c-4.9,0-8.7-1.5-11.5-4.6
							c-2.8-3.1-4.2-7.3-4.2-12.6V0h-9v54.7h9v-8.5c2.2,3.3,4.7,5.8,7.6,7.4c2.9,1.6,6.3,2.4,10.1,2.4c6.3,0,11-1.9,14.2-5.8
							C486.5,46.3,488.1,40.6,488.1,33z"/>
					</g>
					<g>
						<path id="DejaVuSans-64" d="M542,46.4V76h9V0h-9v8.2c-1.9-3.2-4.3-5.7-7.2-7.2c-2.9-1.6-6.3-2.4-10.4-2.4
							c-6.6,0-12,2.6-16.1,7.9c-4.1,5.3-6.2,12.2-6.2,20.8s2.1,15.5,6.2,20.8c4.2,5.3,9.5,7.9,16.1,7.9c4,0,7.5-0.8,10.4-2.4
							C537.7,52.1,540.1,49.6,542,46.4z M511.4,27.3c0-6.6,1.4-11.8,4.1-15.5s6.5-5.6,11.2-5.6s8.5,1.9,11.2,5.6
							c2.7,3.8,4.1,8.9,4.1,15.5s-1.4,11.8-4.1,15.5c-2.7,3.8-6.5,5.6-11.2,5.6s-8.5-1.9-11.2-5.6S511.4,33.9,511.4,27.3z"/>
					</g>
					<g>
						<path id="DejaVuSans-5f_2_" d="M611-16.6v-7h-52v7H611z"/>
					</g>
					<g>
						<path id="DejaVuSans-66" d="M647.2,76v-7.5h-8.6c-3.2,0-5.5-0.7-6.7-2c-1.2-1.3-1.9-3.6-1.9-7v-4.8h14.8v-7H630V0h-9v47.7
							h-8.6v7h8.6v3.8c0,6.1,1.4,10.5,4.2,13.3c2.8,2.8,7.3,4.2,13.5,4.2H647.2z"/>
					</g>
					<g>
						<path id="DejaVuSans-65_1_" d="M701.5,29.6v-4.4h-41.3c0.4-6.2,2.3-10.9,5.6-14.1c3.3-3.2,8-4.9,13.9-4.9
							c3.4,0,6.8,0.4,10,1.3s6.5,2.1,9.7,3.8V2.8c-3.2-1.4-6.5-2.4-9.9-3.1s-6.8-1.1-10.3-1.1c-8.7,0-15.6,2.5-20.7,7.6
							c-5.1,5.1-7.6,12-7.6,20.6c0,8.9,2.4,16,7.2,21.3c4.8,5.3,11.4,7.9,19.6,7.9c7.4,0,13.2-2.4,17.5-7.1
							C699.3,44.2,701.5,37.7,701.5,29.6z M692.5,32.2c-0.1,4.9-1.4,8.8-4.1,11.8c-2.7,2.9-6.2,4.4-10.7,4.4c-5,0-9-1.4-12-4.2
							c-3-2.8-4.7-6.8-5.2-12L692.5,32.2z"/>
					</g>
					<g>
						<path id="DejaVuSans-65_2_" d="M763,29.6v-4.4h-41.3c0.4-6.2,2.3-10.9,5.6-14.1c3.3-3.2,8-4.9,13.9-4.9c3.4,0,6.8,0.4,10,1.3
							s6.5,2.1,9.7,3.8V2.8c-3.2-1.4-6.5-2.4-9.9-3.1s-6.8-1.1-10.3-1.1c-8.7,0-15.6,2.5-20.7,7.6c-5.1,5.1-7.6,12-7.6,20.6
							c0,8.9,2.4,16,7.2,21.3c4.8,5.3,11.4,7.9,19.6,7.9c7.4,0,13.2-2.4,17.5-7.1C760.8,44.2,763,37.7,763,29.6z M754,32.2
							c-0.1,4.9-1.4,8.8-4.1,11.8c-2.7,2.9-6.2,4.4-10.7,4.4c-5,0-9-1.4-12-4.2c-3-2.8-4.7-6.8-5.2-12L754,32.2z"/>
					</g>
					<g>
						<path id="DejaVuSans-73_1_" d="M812.6,53.1v-8.5c-2.5,1.3-5.2,2.3-7.9,2.9c-2.7,0.7-5.6,1-8.5,1c-4.5,0-7.8-0.7-10-2
							c-2.2-1.4-3.3-3.4-3.3-6.2c0-2.1,0.8-3.7,2.4-4.9s4.8-2.3,9.6-3.4l3.1-0.7c6.4-1.4,10.9-3.3,13.6-5.8s4-6,4-10.4
							c0-5.1-2-9.1-6-12.1c-4-3-9.5-4.4-16.6-4.4c-2.9,0-6,0.3-9.2,0.9c-3.2,0.6-6.5,1.4-10,2.6v9.3c3.3-1.7,6.6-3,9.8-3.9
							c3.2-0.9,6.4-1.3,9.6-1.3c4.2,0,7.5,0.7,9.8,2.2c2.3,1.4,3.4,3.5,3.4,6.1c0,2.4-0.8,4.3-2.5,5.6c-1.6,1.3-5.2,2.6-10.8,3.8
							l-3.1,0.7c-5.6,1.2-9.6,3-12.1,5.4c-2.5,2.4-3.7,5.8-3.7,10c0,5.1,1.8,9.1,5.5,11.9c3.6,2.8,8.8,4.2,15.5,4.2
							c3.3,0,6.4-0.2,9.4-0.7C807.4,54.8,810.1,54.1,812.6,53.1z"/>
					</g>
				</g>
			</g>
		</g>
	</g>
</g>
</svg>
