<?xml version="1.0" encoding="utf-8"?>
<!-- Generator: Adobe Illustrator 21.0.2, SVG Export Plug-In . SVG Version: 6.00 Build 0)  -->
<svg version="1.1" id="Layer_1" xmlns="http://www.w3.org/2000/svg" xmlns:xlink="http://www.w3.org/1999/xlink" x="0px" y="0px"
	 viewBox="0 0 432 288" style="enable-background:new 0 0 432 288;" xml:space="preserve">
<style type="text/css">
	.st0{stroke:#000000;stroke-width:0.8;stroke-linejoin:round;}
	.st1{stroke:#000000;stroke-width:0.6;stroke-linejoin:round;}
	.st2{clip-path:url(#SVGID_2_);fill:none;stroke:#1F77B4;stroke-width:1.5;stroke-linecap:square;stroke-linejoin:round;}
	.st3{fill:none;stroke:#000000;stroke-width:0.8;stroke-linecap:square;}
	.st4{fill:none;stroke:#000000;stroke-linecap:round;stroke-miterlimit:10;}
</style>
<g>
	<path id="m8237e79f8d" class="st0" d="M79.1,252v3.5"/>
</g>
<g>
	<path id="DejaVuSans-31" d="M67.6,265.8h1.6v-5.6l-1.8,0.4v-0.9l1.7-0.4h1v6.5h1.6v0.8h-4.2V265.8z"/>
</g>
<g>
	<path id="DejaVuSans-39" d="M73.8,266.4v-0.9c0.2,0.1,0.5,0.2,0.8,0.3c0.3,0.1,0.5,0.1,0.7,0.1c0.7,0,1.1-0.2,1.5-0.7
		c0.3-0.4,0.5-1.1,0.6-2c-0.2,0.3-0.4,0.5-0.7,0.6c-0.3,0.1-0.6,0.2-1,0.2c-0.7,0-1.3-0.2-1.7-0.7c-0.4-0.4-0.6-1-0.6-1.8
		c0-0.7,0.2-1.3,0.7-1.8c0.4-0.5,1-0.7,1.8-0.7c0.8,0,1.5,0.3,1.9,1c0.4,0.6,0.7,1.6,0.7,2.8c0,1.1-0.3,2.1-0.8,2.8
		c-0.5,0.7-1.3,1-2.2,1c-0.2,0-0.5,0-0.8-0.1C74.3,266.6,74.1,266.5,73.8,266.4z M75.8,263.4c0.4,0,0.8-0.2,1.1-0.5
		c0.3-0.3,0.4-0.7,0.4-1.2c0-0.5-0.1-0.9-0.4-1.2c-0.3-0.3-0.6-0.5-1.1-0.5c-0.4,0-0.8,0.2-1.1,0.5s-0.4,0.7-0.4,1.2
		c0,0.5,0.1,0.9,0.4,1.2C75,263.2,75.3,263.4,75.8,263.4z"/>
</g>
<g>
	<path id="DejaVuSans-36" d="M82.4,262.6c-0.4,0-0.8,0.2-1.1,0.5c-0.3,0.3-0.4,0.7-0.4,1.2c0,0.5,0.1,0.9,0.4,1.2
		c0.3,0.3,0.6,0.5,1.1,0.5c0.4,0,0.8-0.2,1.1-0.5c0.3-0.3,0.4-0.7,0.4-1.2c0-0.5-0.1-0.9-0.4-1.2C83.2,262.7,82.8,262.6,82.4,262.6z
		 M84.3,259.5v0.9c-0.2-0.1-0.5-0.2-0.8-0.3c-0.3-0.1-0.5-0.1-0.8-0.1c-0.7,0-1.1,0.2-1.5,0.7c-0.3,0.4-0.5,1.1-0.6,2
		c0.2-0.3,0.4-0.5,0.7-0.7c0.3-0.2,0.6-0.2,1-0.2c0.7,0,1.3,0.2,1.7,0.7c0.4,0.4,0.6,1,0.6,1.8c0,0.7-0.2,1.3-0.7,1.8
		c-0.4,0.5-1,0.7-1.8,0.7c-0.8,0-1.5-0.3-1.9-1c-0.4-0.6-0.7-1.6-0.7-2.8c0-1.2,0.3-2.1,0.8-2.8c0.5-0.7,1.3-1,2.2-1
		c0.2,0,0.5,0,0.8,0.1C83.8,259.3,84.1,259.4,84.3,259.5z"/>
</g>
<g>
	<path id="DejaVuSans-39_1_" d="M86.5,266.4v-0.9c0.2,0.1,0.5,0.2,0.8,0.3c0.3,0.1,0.5,0.1,0.7,0.1c0.7,0,1.1-0.2,1.5-0.7
		c0.3-0.4,0.5-1.1,0.6-2c-0.2,0.3-0.4,0.5-0.7,0.6c-0.3,0.1-0.6,0.2-1,0.2c-0.7,0-1.3-0.2-1.7-0.7c-0.4-0.4-0.6-1-0.6-1.8
		c0-0.7,0.2-1.3,0.7-1.8c0.4-0.5,1-0.7,1.8-0.7c0.8,0,1.5,0.3,1.9,1c0.4,0.6,0.7,1.6,0.7,2.8c0,1.1-0.3,2.1-0.8,2.8
		c-0.5,0.7-1.3,1-2.2,1c-0.2,0-0.5,0-0.8-0.1C87.1,266.6,86.8,266.5,86.5,266.4z M88.5,263.4c0.4,0,0.8-0.2,1.1-0.5
		c0.3-0.3,0.4-0.7,0.4-1.2c0-0.5-0.1-0.9-0.4-1.2c-0.3-0.3-0.6-0.5-1.1-0.5c-0.4,0-0.8,0.2-1.1,0.5s-0.4,0.7-0.4,1.2
		c0,0.5,0.1,0.9,0.4,1.2C87.7,263.2,88.1,263.4,88.5,263.4z"/>
</g>
<g>
	<path id="m8237e79f8d_1_" class="st0" d="M141.7,252v3.5"/>
</g>
<g>
	<path id="DejaVuSans-31_1_" d="M130.3,265.8h1.6v-5.6l-1.8,0.4v-0.9l1.7-0.4h1v6.5h1.6v0.8h-4.2V265.8z"/>
</g>
<g>
	<path id="DejaVuSans-39_2_" d="M136.5,266.4v-0.9c0.2,0.1,0.5,0.2,0.8,0.3c0.3,0.1,0.5,0.1,0.7,0.1c0.7,0,1.1-0.2,1.5-0.7
		c0.3-0.4,0.5-1.1,0.6-2c-0.2,0.3-0.4,0.5-0.7,0.6c-0.3,0.1-0.6,0.2-1,0.2c-0.7,0-1.3-0.2-1.7-0.7c-0.4-0.4-0.6-1-0.6-1.8
		c0-0.7,0.2-1.3,0.7-1.8c0.4-0.5,1-0.7,1.8-0.7c0.8,0,1.5,0.3,1.9,1c0.4,0.6,0.7,1.6,0.7,2.8c0,1.1-0.3,2.1-0.8,2.8
		c-0.5,0.7-1.3,1-2.2,1c-0.2,0-0.5,0-0.8-0.1C137,266.6,136.8,266.5,136.5,266.4z M138.4,263.4c0.4,0,0.8-0.2,1.1-0.5
		c0.3-0.3,0.4-0.7,0.4-1.2c0-0.5-0.1-0.9-0.4-1.2c-0.3-0.3-0.6-0.5-1.1-0.5c-0.4,0-0.8,0.2-1.1,0.5c-0.3,0.3-0.4,0.7-0.4,1.2
		c0,0.5,0.1,0.9,0.4,1.2C137.7,263.2,138,263.4,138.4,263.4z"/>
</g>
<g>
	<path id="DejaVuSans-37" d="M142.6,259.3h4.7v0.4l-2.6,6.9h-1l2.5-6.5h-3.5V259.3z"/>
</g>
<g>
	<path id="DejaVuSans-39_3_" d="M149.2,266.4v-0.9c0.2,0.1,0.5,0.2,0.8,0.3c0.3,0.1,0.5,0.1,0.7,0.1c0.7,0,1.1-0.2,1.5-0.7
		c0.3-0.4,0.5-1.1,0.6-2c-0.2,0.3-0.4,0.5-0.7,0.6c-0.3,0.1-0.6,0.2-1,0.2c-0.7,0-1.3-0.2-1.7-0.7c-0.4-0.4-0.6-1-0.6-1.8
		c0-0.7,0.2-1.3,0.7-1.8c0.4-0.5,1-0.7,1.8-0.7c0.8,0,1.5,0.3,1.9,1c0.4,0.6,0.7,1.6,0.7,2.8c0,1.1-0.3,2.1-0.8,2.8
		c-0.5,0.7-1.3,1-2.2,1c-0.2,0-0.5,0-0.8-0.1C149.7,266.6,149.5,266.5,149.2,266.4z M151.2,263.4c0.4,0,0.8-0.2,1.1-0.5
		c0.3-0.3,0.4-0.7,0.4-1.2c0-0.5-0.1-0.9-0.4-1.2c-0.3-0.3-0.6-0.5-1.1-0.5c-0.4,0-0.8,0.2-1.1,0.5c-0.3,0.3-0.4,0.7-0.4,1.2
		c0,0.5,0.1,0.9,0.4,1.2C150.4,263.2,150.7,263.4,151.2,263.4z"/>
</g>
<g>
	<path id="m8237e79f8d_2_" class="st0" d="M204.4,252v3.5"/>
</g>
<g>
	<path id="DejaVuSans-31_2_" d="M192.9,265.8h1.6v-5.6l-1.8,0.4v-0.9l1.7-0.4h1v6.5h1.6v0.8h-4.2V265.8z"/>
</g>
<g>
	<path id="DejaVuSans-39_4_" d="M199.2,266.4v-0.9c0.2,0.1,0.5,0.2,0.8,0.3c0.3,0.1,0.5,0.1,0.7,0.1c0.7,0,1.1-0.2,1.5-0.7
		c0.3-0.4,0.5-1.1,0.6-2c-0.2,0.3-0.4,0.5-0.7,0.6c-0.3,0.1-0.6,0.2-1,0.2c-0.7,0-1.3-0.2-1.7-0.7c-0.4-0.4-0.6-1-0.6-1.8
		c0-0.7,0.2-1.3,0.7-1.8c0.4-0.5,1-0.7,1.8-0.7c0.8,0,1.5,0.3,1.9,1c0.4,0.6,0.7,1.6,0.7,2.8c0,1.1-0.3,2.1-0.8,2.8
		c-0.5,0.7-1.3,1-2.2,1c-0.2,0-0.5,0-0.8-0.1C199.7,266.6,199.4,266.5,199.2,266.4z M201.1,263.4c0.4,0,0.8-0.2,1.1-0.5
		c0.3-0.3,0.4-0.7,0.4-1.2c0-0.5-0.1-0.9-0.4-1.2c-0.3-0.3-0.6-0.5-1.1-0.5c-0.4,0-0.8,0.2-1.1,0.5c-0.3,0.3-0.4,0.7-0.4,1.2
		c0,0.5,0.1,0.9,0.4,1.2C200.3,263.2,200.7,263.4,201.1,263.4z"/>
</g>
<g>
	<path id="DejaVuSans-38" d="M207.6,263.1c-0.5,0-0.8,0.1-1.1,0.4c-0.3,0.3-0.4,0.6-0.4,1c0,0.4,0.1,0.8,0.4,1
		c0.3,0.3,0.6,0.4,1.1,0.4s0.8-0.1,1.1-0.4c0.3-0.3,0.4-0.6,0.4-1c0-0.4-0.1-0.8-0.4-1C208.4,263.3,208.1,263.1,207.6,263.1z
		 M206.6,262.7c-0.4-0.1-0.8-0.3-1-0.6c-0.2-0.3-0.4-0.6-0.4-1.1c0-0.6,0.2-1,0.6-1.4c0.4-0.3,1-0.5,1.7-0.5c0.7,0,1.3,0.2,1.7,0.5
		s0.6,0.8,0.6,1.4c0,0.4-0.1,0.8-0.4,1.1c-0.2,0.3-0.6,0.5-1,0.6c0.5,0.1,0.8,0.3,1.1,0.6c0.3,0.3,0.4,0.7,0.4,1.2
		c0,0.7-0.2,1.2-0.6,1.6c-0.4,0.4-1,0.6-1.9,0.6c-0.8,0-1.4-0.2-1.9-0.6c-0.4-0.4-0.6-0.9-0.6-1.6c0-0.5,0.1-0.9,0.4-1.2
		C205.8,263,206.1,262.8,206.6,262.7z M206.3,261.2c0,0.4,0.1,0.7,0.4,0.9c0.2,0.2,0.6,0.3,1,0.3c0.4,0,0.8-0.1,1-0.3
		c0.2-0.2,0.4-0.5,0.4-0.9c0-0.4-0.1-0.7-0.4-0.9c-0.2-0.2-0.6-0.3-1-0.3c-0.4,0-0.8,0.1-1,0.3C206.4,260.5,206.3,260.8,206.3,261.2
		z"/>
</g>
<g>
	<path id="DejaVuSans-39_5_" d="M211.9,266.4v-0.9c0.2,0.1,0.5,0.2,0.8,0.3c0.3,0.1,0.5,0.1,0.7,0.1c0.7,0,1.1-0.2,1.5-0.7
		c0.3-0.4,0.5-1.1,0.6-2c-0.2,0.3-0.4,0.5-0.7,0.6c-0.3,0.1-0.6,0.2-1,0.2c-0.7,0-1.3-0.2-1.7-0.7c-0.4-0.4-0.6-1-0.6-1.8
		c0-0.7,0.2-1.3,0.7-1.8c0.4-0.5,1-0.7,1.8-0.7c0.8,0,1.5,0.3,1.9,1c0.4,0.6,0.7,1.6,0.7,2.8c0,1.1-0.3,2.1-0.8,2.8
		c-0.5,0.7-1.3,1-2.2,1c-0.2,0-0.5,0-0.8-0.1C212.4,266.6,212.2,266.5,211.9,266.4z M213.8,263.4c0.4,0,0.8-0.2,1.1-0.5
		c0.3-0.3,0.4-0.7,0.4-1.2c0-0.5-0.1-0.9-0.4-1.2c-0.3-0.3-0.6-0.5-1.1-0.5c-0.4,0-0.8,0.2-1.1,0.5c-0.3,0.3-0.4,0.7-0.4,1.2
		c0,0.5,0.1,0.9,0.4,1.2C213.1,263.2,213.4,263.4,213.8,263.4z"/>
</g>
<g>
	<path id="m8237e79f8d_3_" class="st0" d="M267.1,252v3.5"/>
</g>
<g>
	<path id="DejaVuSans-31_3_" d="M255.6,265.8h1.6v-5.6l-1.8,0.4v-0.9l1.7-0.4h1v6.5h1.6v0.8h-4.2V265.8z"/>
</g>
<g>
	<path id="DejaVuSans-39_6_" d="M261.8,266.4v-0.9c0.2,0.1,0.5,0.2,0.8,0.3c0.3,0.1,0.5,0.1,0.7,0.1c0.7,0,1.1-0.2,1.5-0.7
		c0.3-0.4,0.5-1.1,0.6-2c-0.2,0.3-0.4,0.5-0.7,0.6c-0.3,0.1-0.6,0.2-1,0.2c-0.7,0-1.3-0.2-1.7-0.7c-0.4-0.4-0.6-1-0.6-1.8
		c0-0.7,0.2-1.3,0.7-1.8c0.4-0.5,1-0.7,1.8-0.7c0.8,0,1.5,0.3,1.9,1c0.4,0.6,0.7,1.6,0.7,2.8c0,1.1-0.3,2.1-0.8,2.8
		c-0.5,0.7-1.3,1-2.2,1c-0.2,0-0.5,0-0.8-0.1C262.4,266.6,262.1,266.5,261.8,266.4z M263.8,263.4c0.4,0,0.8-0.2,1.1-0.5
		c0.3-0.3,0.4-0.7,0.4-1.2c0-0.5-0.1-0.9-0.4-1.2c-0.3-0.3-0.6-0.5-1.1-0.5c-0.4,0-0.8,0.2-1.1,0.5s-0.4,0.7-0.4,1.2
		c0,0.5,0.1,0.9,0.4,1.2C263,263.2,263.4,263.4,263.8,263.4z"/>
</g>
<g>
	<path id="DejaVuSans-39_7_" d="M268.2,266.4v-0.9c0.2,0.1,0.5,0.2,0.8,0.3c0.3,0.1,0.5,0.1,0.7,0.1c0.7,0,1.1-0.2,1.5-0.7
		c0.3-0.4,0.5-1.1,0.6-2c-0.2,0.3-0.4,0.5-0.7,0.6c-0.3,0.1-0.6,0.2-1,0.2c-0.7,0-1.3-0.2-1.7-0.7c-0.4-0.4-0.6-1-0.6-1.8
		c0-0.7,0.2-1.3,0.7-1.8c0.4-0.5,1-0.7,1.8-0.7c0.8,0,1.5,0.3,1.9,1c0.4,0.6,0.7,1.6,0.7,2.8c0,1.1-0.3,2.1-0.8,2.8
		c-0.5,0.7-1.3,1-2.2,1c-0.2,0-0.5,0-0.8-0.1C268.7,266.6,268.5,266.5,268.2,266.4z M270.2,263.4c0.4,0,0.8-0.2,1.1-0.5
		c0.3-0.3,0.4-0.7,0.4-1.2c0-0.5-0.1-0.9-0.4-1.2c-0.3-0.3-0.6-0.5-1.1-0.5c-0.4,0-0.8,0.2-1.1,0.5s-0.4,0.7-0.4,1.2
		c0,0.5,0.1,0.9,0.4,1.2C269.4,263.2,269.7,263.4,270.2,263.4z"/>
</g>
<g>
	<path id="DejaVuSans-39_8_" d="M274.6,266.4v-0.9c0.2,0.1,0.5,0.2,0.8,0.3c0.3,0.1,0.5,0.1,0.7,0.1c0.7,0,1.1-0.2,1.5-0.7
		c0.3-0.4,0.5-1.1,0.6-2c-0.2,0.3-0.4,0.5-0.7,0.6c-0.3,0.1-0.6,0.2-1,0.2c-0.7,0-1.3-0.2-1.7-0.7c-0.4-0.4-0.6-1-0.6-1.8
		c0-0.7,0.2-1.3,0.7-1.8c0.4-0.5,1-0.7,1.8-0.7c0.8,0,1.5,0.3,1.9,1c0.4,0.6,0.7,1.6,0.7,2.8c0,1.1-0.3,2.1-0.8,2.8
		c-0.5,0.7-1.3,1-2.2,1c-0.2,0-0.5,0-0.8-0.1C275.1,266.6,274.8,266.5,274.6,266.4z M276.5,263.4c0.4,0,0.8-0.2,1.1-0.5
		c0.3-0.3,0.4-0.7,0.4-1.2c0-0.5-0.1-0.9-0.4-1.2c-0.3-0.3-0.6-0.5-1.1-0.5c-0.4,0-0.8,0.2-1.1,0.5s-0.4,0.7-0.4,1.2
		c0,0.5,0.1,0.9,0.4,1.2C275.7,263.2,276.1,263.4,276.5,263.4z"/>
</g>
<g>
	<path id="m8237e79f8d_4_" class="st0" d="M329.8,252v3.5"/>
</g>
<g>
	<path id="DejaVuSans-32" d="M319,265.8h3.4v0.8h-4.6v-0.8c0.4-0.4,0.9-0.9,1.5-1.6c0.6-0.7,1.1-1.1,1.2-1.3
		c0.3-0.4,0.5-0.7,0.7-0.9c0.1-0.2,0.2-0.5,0.2-0.7c0-0.4-0.1-0.7-0.4-0.9c-0.3-0.2-0.6-0.4-1.1-0.4c-0.3,0-0.6,0.1-1,0.2
		c-0.3,0.1-0.7,0.3-1.1,0.5v-1c0.4-0.2,0.8-0.3,1.1-0.4c0.3-0.1,0.7-0.1,0.9-0.1c0.8,0,1.4,0.2,1.8,0.6c0.4,0.4,0.7,0.9,0.7,1.5
		c0,0.3-0.1,0.6-0.2,0.9c-0.1,0.3-0.3,0.6-0.6,0.9c-0.1,0.1-0.3,0.4-0.8,0.8C320.4,264.3,319.8,265,319,265.8z"/>
</g>
<g>
	<path id="DejaVuSans-30" d="M326.6,260c-0.5,0-0.9,0.2-1.1,0.8c-0.3,0.5-0.4,1.2-0.4,2.3c0,1,0.1,1.7,0.4,2.2
		c0.3,0.5,0.6,0.8,1.1,0.8c0.5,0,0.9-0.2,1.1-0.8c0.3-0.5,0.4-1.2,0.4-2.2c0-1-0.1-1.8-0.4-2.3C327.5,260.2,327.1,260,326.6,260z
		 M326.6,259.2c0.8,0,1.4,0.3,1.9,1c0.4,0.6,0.6,1.6,0.6,2.8c0,1.2-0.2,2.2-0.6,2.8c-0.4,0.6-1.1,1-1.9,1c-0.8,0-1.4-0.3-1.9-1
		c-0.4-0.6-0.6-1.6-0.6-2.8c0-1.2,0.2-2.2,0.6-2.8C325.2,259.5,325.8,259.2,326.6,259.2z"/>
</g>
<g>
	<path id="DejaVuSans-30_1_" d="M333,260c-0.5,0-0.9,0.2-1.1,0.8c-0.3,0.5-0.4,1.2-0.4,2.3c0,1,0.1,1.7,0.4,2.2
		c0.3,0.5,0.6,0.8,1.1,0.8c0.5,0,0.9-0.2,1.1-0.8c0.3-0.5,0.4-1.2,0.4-2.2c0-1-0.1-1.8-0.4-2.3C333.9,260.2,333.5,260,333,260z
		 M333,259.2c0.8,0,1.4,0.3,1.9,1c0.4,0.6,0.6,1.6,0.6,2.8c0,1.2-0.2,2.2-0.6,2.8c-0.4,0.6-1.1,1-1.9,1c-0.8,0-1.4-0.3-1.9-1
		c-0.4-0.6-0.6-1.6-0.6-2.8c0-1.2,0.2-2.2,0.6-2.8C331.5,259.5,332.1,259.2,333,259.2z"/>
</g>
<g>
	<path id="DejaVuSans-39_9_" d="M337.2,266.4v-0.9c0.2,0.1,0.5,0.2,0.8,0.3c0.3,0.1,0.5,0.1,0.7,0.1c0.7,0,1.1-0.2,1.5-0.7
		c0.3-0.4,0.5-1.1,0.6-2c-0.2,0.3-0.4,0.5-0.7,0.6c-0.3,0.1-0.6,0.2-1,0.2c-0.7,0-1.3-0.2-1.7-0.7c-0.4-0.4-0.6-1-0.6-1.8
		c0-0.7,0.2-1.3,0.7-1.8c0.4-0.5,1-0.7,1.8-0.7c0.8,0,1.5,0.3,1.9,1c0.4,0.6,0.7,1.6,0.7,2.8c0,1.1-0.3,2.1-0.8,2.8
		c-0.5,0.7-1.3,1-2.2,1c-0.2,0-0.5,0-0.8-0.1C337.8,266.6,337.5,266.5,337.2,266.4z M339.2,263.4c0.4,0,0.8-0.2,1.1-0.5
		c0.3-0.3,0.4-0.7,0.4-1.2c0-0.5-0.1-0.9-0.4-1.2c-0.3-0.3-0.6-0.5-1.1-0.5c-0.4,0-0.8,0.2-1.1,0.5s-0.4,0.7-0.4,1.2
		c0,0.5,0.1,0.9,0.4,1.2C338.4,263.2,338.8,263.4,339.2,263.4z"/>
</g>
<g>
	<path id="m5af1f2a635" class="st1" d="M79.1,252v2"/>
</g>
<g>
	<path id="m5af1f2a635_1_" class="st1" d="M110.4,252v2"/>
</g>
<g>
	<path id="m5af1f2a635_2_" class="st1" d="M141.7,252v2"/>
</g>
<g>
	<path id="m5af1f2a635_3_" class="st1" d="M173.1,252v2"/>
</g>
<g>
	<path id="m5af1f2a635_4_" class="st1" d="M204.4,252v2"/>
</g>
<g>
	<path id="m5af1f2a635_5_" class="st1" d="M235.8,252v2"/>
</g>
<g>
	<path id="m5af1f2a635_6_" class="st1" d="M267.1,252v2"/>
</g>
<g>
	<path id="m5af1f2a635_7_" class="st1" d="M298.4,252v2"/>
</g>
<g>
	<path id="m5af1f2a635_8_" class="st1" d="M329.8,252v2"/>
</g>
<g>
	<path id="m5af1f2a635_9_" class="st1" d="M361.1,252v2"/>
</g>
<g>
	<path id="m3f55806d1c" class="st0" d="M54,252h-3.5"/>
</g>
<g>
	<path id="DejaVuSans-30_2_" d="M43.8,249.2c-0.5,0-0.9,0.2-1.1,0.8c-0.3,0.5-0.4,1.2-0.4,2.3c0,1,0.1,1.7,0.4,2.2
		c0.3,0.5,0.6,0.8,1.1,0.8c0.5,0,0.9-0.2,1.2-0.8c0.3-0.5,0.4-1.2,0.4-2.2c0-1-0.1-1.8-0.4-2.3C44.7,249.4,44.3,249.2,43.8,249.2z
		 M43.8,248.4c0.8,0,1.4,0.3,1.9,1c0.4,0.6,0.6,1.6,0.6,2.8c0,1.2-0.2,2.2-0.6,2.8c-0.4,0.6-1.1,1-1.9,1c-0.8,0-1.4-0.3-1.9-1
		c-0.4-0.6-0.6-1.6-0.6-2.8c0-1.2,0.2-2.2,0.6-2.8C42.4,248.7,43,248.4,43.8,248.4z"/>
</g>
<g>
	<path id="m3f55806d1c_1_" class="st0" d="M54,215.9h-3.5"/>
</g>
<g>
	<path id="DejaVuSans-32_1_" d="M42.6,218.9H46v0.8h-4.6v-0.8c0.4-0.4,0.9-0.9,1.5-1.6c0.6-0.7,1.1-1.1,1.2-1.3
		c0.3-0.4,0.5-0.7,0.7-0.9c0.1-0.2,0.2-0.5,0.2-0.7c0-0.4-0.1-0.7-0.4-0.9c-0.3-0.2-0.6-0.4-1.1-0.4c-0.3,0-0.6,0.1-1,0.2
		c-0.3,0.1-0.7,0.3-1.1,0.5v-1c0.4-0.2,0.8-0.3,1.1-0.4c0.3-0.1,0.7-0.1,0.9-0.1c0.8,0,1.4,0.2,1.8,0.6c0.4,0.4,0.7,0.9,0.7,1.5
		c0,0.3-0.1,0.6-0.2,0.9c-0.1,0.3-0.3,0.6-0.6,0.9c-0.1,0.1-0.3,0.4-0.8,0.8C44,217.5,43.4,218.1,42.6,218.9z"/>
</g>
<g>
	<path id="m3f55806d1c_2_" class="st0" d="M54,179.9h-3.5"/>
</g>
<g>
	<path id="DejaVuSans-34" d="M44.4,177.2l-2.5,3.9h2.5V177.2z M44.2,176.4h1.2v4.8h1v0.8h-1v1.7h-1V182h-3.3v-1L44.2,176.4z"/>
</g>
<g>
	<path id="m3f55806d1c_3_" class="st0" d="M54,143.8h-3.5"/>
</g>
<g>
	<path id="DejaVuSans-36_1_" d="M43.9,143.6c-0.4,0-0.8,0.2-1.1,0.5c-0.3,0.3-0.4,0.7-0.4,1.2c0,0.5,0.1,0.9,0.4,1.2
		c0.3,0.3,0.6,0.5,1.1,0.5c0.4,0,0.8-0.2,1.1-0.5c0.3-0.3,0.4-0.7,0.4-1.2c0-0.5-0.1-0.9-0.4-1.2C44.7,143.7,44.4,143.6,43.9,143.6z
		 M45.9,140.5v0.9c-0.2-0.1-0.5-0.2-0.8-0.3c-0.3-0.1-0.5-0.1-0.8-0.1c-0.7,0-1.1,0.2-1.5,0.7c-0.3,0.4-0.5,1.1-0.6,2
		c0.2-0.3,0.4-0.5,0.7-0.7c0.3-0.2,0.6-0.2,1-0.2c0.7,0,1.3,0.2,1.7,0.7c0.4,0.4,0.6,1,0.6,1.8c0,0.7-0.2,1.4-0.7,1.8
		c-0.4,0.5-1,0.7-1.8,0.7c-0.8,0-1.5-0.3-1.9-1c-0.4-0.6-0.7-1.6-0.7-2.8c0-1.2,0.3-2.1,0.8-2.8c0.5-0.7,1.3-1,2.2-1
		c0.2,0,0.5,0,0.8,0.1C45.4,140.3,45.6,140.4,45.9,140.5z"/>
</g>
<g>
	<path id="m3f55806d1c_4_" class="st0" d="M54,107.8h-3.5"/>
</g>
<g>
	<path id="DejaVuSans-38_1_" d="M43.8,108.1c-0.5,0-0.8,0.1-1.1,0.4c-0.3,0.3-0.4,0.6-0.4,1c0,0.4,0.1,0.8,0.4,1
		c0.3,0.3,0.6,0.4,1.1,0.4s0.8-0.1,1.1-0.4c0.3-0.3,0.4-0.6,0.4-1c0-0.4-0.1-0.8-0.4-1C44.7,108.2,44.3,108.1,43.8,108.1z
		 M42.8,107.7c-0.4-0.1-0.8-0.3-1-0.6c-0.2-0.3-0.4-0.6-0.4-1.1c0-0.6,0.2-1,0.6-1.4c0.4-0.3,1-0.5,1.7-0.5c0.7,0,1.3,0.2,1.7,0.5
		c0.4,0.3,0.6,0.8,0.6,1.4c0,0.4-0.1,0.8-0.4,1.1c-0.2,0.3-0.6,0.5-1,0.6c0.5,0.1,0.8,0.3,1.1,0.7c0.3,0.3,0.4,0.7,0.4,1.2
		c0,0.7-0.2,1.2-0.6,1.6c-0.4,0.4-1,0.6-1.9,0.6c-0.8,0-1.4-0.2-1.9-0.6c-0.4-0.4-0.6-0.9-0.6-1.6c0-0.5,0.1-0.9,0.4-1.2
		C42,108,42.4,107.8,42.8,107.7z M42.5,106.1c0,0.4,0.1,0.7,0.4,0.9c0.2,0.2,0.6,0.3,1,0.3c0.4,0,0.8-0.1,1-0.3
		c0.2-0.2,0.4-0.5,0.4-0.9c0-0.4-0.1-0.7-0.4-0.9c-0.2-0.2-0.6-0.3-1-0.3c-0.4,0-0.8,0.1-1,0.3C42.6,105.4,42.5,105.7,42.5,106.1z"
		/>
</g>
<g>
	<path id="m3f55806d1c_5_" class="st0" d="M54,71.7h-3.5"/>
</g>
<g>
	<path id="DejaVuSans-31_4_" d="M35.5,74.7h1.6v-5.6l-1.8,0.4v-0.9l1.7-0.4h1v6.5h1.6v0.8h-4.2V74.7z"/>
</g>
<g>
	<path id="DejaVuSans-30_3_" d="M43.8,68.9c-0.5,0-0.9,0.2-1.1,0.8c-0.3,0.5-0.4,1.2-0.4,2.3c0,1,0.1,1.7,0.4,2.2
		c0.3,0.5,0.6,0.8,1.1,0.8c0.5,0,0.9-0.2,1.2-0.8c0.3-0.5,0.4-1.2,0.4-2.2c0-1-0.1-1.8-0.4-2.3C44.7,69.1,44.3,68.9,43.8,68.9z
		 M43.8,68.1c0.8,0,1.4,0.3,1.9,1c0.4,0.6,0.6,1.6,0.6,2.8c0,1.2-0.2,2.2-0.6,2.8c-0.4,0.6-1.1,1-1.9,1c-0.8,0-1.4-0.3-1.9-1
		c-0.4-0.6-0.6-1.6-0.6-2.8c0-1.2,0.2-2.2,0.6-2.8C42.4,68.4,43,68.1,43.8,68.1z"/>
</g>
<g>
	<path id="m3f55806d1c_6_" class="st0" d="M54,35.6h-3.5"/>
</g>
<g>
	<path id="DejaVuSans-31_5_" d="M35.5,38.6h1.6V33l-1.8,0.4v-0.9l1.7-0.4h1v6.5h1.6v0.8h-4.2V38.6z"/>
</g>
<g>
	<path id="DejaVuSans-32_2_" d="M42.6,38.6H46v0.8h-4.6v-0.8c0.4-0.4,0.9-0.9,1.5-1.6c0.6-0.7,1.1-1.1,1.2-1.3
		c0.3-0.4,0.5-0.7,0.7-0.9c0.1-0.2,0.2-0.5,0.2-0.7c0-0.4-0.1-0.7-0.4-0.9c-0.3-0.2-0.6-0.4-1.1-0.4c-0.3,0-0.6,0.1-1,0.2
		c-0.3,0.1-0.7,0.3-1.1,0.5v-1c0.4-0.2,0.8-0.3,1.1-0.4c0.3-0.1,0.7-0.1,0.9-0.1c0.8,0,1.4,0.2,1.8,0.6c0.4,0.4,0.7,0.9,0.7,1.5
		c0,0.3-0.1,0.6-0.2,0.9c-0.1,0.3-0.3,0.6-0.6,0.9c-0.1,0.1-0.3,0.4-0.8,0.8C44,37.2,43.4,37.8,42.6,38.6z"/>
</g>
<g>
	<defs>
		<rect id="SVGID_1_" x="54" y="34.6" width="334.8" height="217.4"/>
	</defs>
	<clipPath id="SVGID_2_">
		<use xlink:href="#SVGID_1_"  style="overflow:visible;"/>
	</clipPath>
	<path class="st2" d="M60.3,73.9l0.5,1.1l1,1.1l0.5,0.4l0.5,0.2l0.5,0.4l0.5,1.1l1,1.1l1,0.4l0.5-0.1l0.5-20.1h0.5l0.5,0.6h0.5
		l0.5,1.2l2.1,2.3l0.5,1.1l1,1.1l0.5-26l1.6,1.8l1,2.4l1,1.2l0.5,1.2l0.5,0.6l0.5,1.2l1,1.1l0.5,1.7l0.5,1.1l0.5,0.5l1,2.2l0.5,0.5
		l3.7,7.2l0.5,1l0.5,0.5l0.5,1l1,1l2.1,3.7l0.5,0.5h0.5l1,0.9l1,1.8l3.7,3l0.5,0.9h0.5l2.6,2.1l0.5,0.8l0.5,0.4l0.5,0.8l0.5,0.4
		l0.5,0.8l0.5,1.2l0.5,1.6l0.5,1.1l0.5,0.8l0.5,1.1h0.5l0.5,2.9l0.5,0.7l0.5,1.4l0.5,1l1,3l1,3.2l0.5,0.9l0.5-35.8l0.5,1.5l0.5,1.1
		l1,4.7l0.5,1.4l1,3.1l0.5-7.3l0.5,1l1,1.4l0.5,0.3l0.5,1.3l0.5,1.7l0.5,0.7l0.5,1.3l0.5,1l0.5,1.3l0.5,0.9l0.5-15.7l1.6,1l3.1,5.8
		l0.5,0.6l1,1.8l0.5,1.8l0.5,0.9l0.5,1.2l0.5,0.6l1.6,2.6l0.5,0.6l0.5,0.8l0.5,1.1l0.5,0.8l0.5-24.3L136,61l0.5,1.2l3.7,10.5l1,2.1
		l0.5-15l4.7,17.1l1,3.9l0.5-9.2l1.6,6.5l1,3.4l0.5,0.2l1,2.6l1.6,4.9l0.5-11.5l0.5,1.6l2.1,4.8l0.5,1.8l0.5,1.3l0.5,1.6l0.5,0.5
		l1,1.2l1,1h0.5l0.5,0.5l1,3.3l0.5,0.8l0.5,0.3h0.5l0.5,0.6l0.5-0.2l0.5-0.5l0.5,0.3l1,0.3l0.5,1.1l0.5,0.6l0.5,0.3l1,1.1l2.1,1.9
		l0.5,1l0.5,0.7l1.6,1.3l0.5,0.3l1,1l1.6,1.2l1,0.5l1,1.5l1,0.5l1,0.7l1,0.5l1,1.2l1,1.1l0.5-0.3l0.5-0.8l0.5-0.5l1.6,1l0.5,0.1
		l0.5,0.5l1,0.5l0.5,0.5l0.5,0.7l4.7,4.3l0.5,0.5l0.5,0.2l0.5,0.5l1,0.6l0.5,0.8l0.5,0.3l2.6,2.6l2.1,1.8l0.5,0.6l0.5,0.9l0.5,0.6
		l1,0.8h0.5l0.5,0.3l1,1.1l0.5,0.4l0.5,1.1l1,1l0.5-15.6l0.5,0.2l0.5,0.8l0.5,0.6l1,2l0.5,0.9l0.5,0.3l1,1l1,0.1l0.5-14.8l1,0.9
		l0.5,0.2l1,0.8l0.5,0.2l0.5,0.6l0.5,0.4l0.5,0.1l0.5,0.3l0.5,0.5l1.6,1l1,0.7l0.5,0.3l0.5,0.6l0.5,0.4l0.5,0.2l0.5,0.5l1.6,0.9
		l0.5,0.4l1,0.3l1,0.5l0.5,0.5l1,0.6h0.5l1,0.7l0.5,0.1l1,0.6l1.6,1.2l0.5,0.1l2.1,1.3l0.5,0.3l0.5,0.5l2.1,0.9l0.5,0.2l0.5,0.3
		l1,0.3l0.5,0.6l0.5,0.2l1.6,1.1l2.1,1l0.5-14l1,0.8l1,0.5l2.1,0.4l0.5,0.2l0.5,0.3l0.5-10.9l1,0.4l2.6,0.4l0.5,0.4l0.5,0.2l0.5,0.4
		l2.1,0.8l1,0.5l1,0.1l0.5,0.9l1,0.1l0.5,0.6l0.5,0.3l0.5,0.6l1.6,0.8l0.5,0.4l0.5,0.6l0.5,0.8l0.5-0.1l0.5,0.2l0.5,0.8l0.5,0.4h0.5
		l0.5,0.7l1.6,0.8l0.5,0.8l0.5,0.3l0.5,0.1l0.5,0.2l0.5,0.7l0.5,0.3l0.5-0.2h0.5l0.5,0.5l0.5-0.4l1-0.1l1,0.4l0.5,0.4l0.5,0.6
		l1.6,0.5l0.5,0.4l2.1,0.9l1,1.3l0.5,0.2l0.5-0.5l0.5-0.2l0.5,0.1l1.6,1.4l0.5-0.1l0.5,0.1l0.5,0.3l0.5,0.5l1.6,0.7l1,1l1,0.2
		l0.5,0.4l1,1.2l1-0.1l1,0.9l0.5,0.4l0.5-0.1l0.5,0.1l1,1.5l0.5,1.6l0.5,0.2l0.5-0.6h0.5l0.5,0.7l0.5,0.1l0.5,0.2l0.5,0.6l1,0.6
		l1,1.1l1-1.1l0.5,0.1l0.5,0.6l0.5,0.2l0.5,0.4l0.5,0.6l1.6,1.1l0.5-15.1l0.5,0l1,0.9l0.5,1l2.6,1.8l0.5,0.7l0.5,1.3l0.5-13.6
		l0.5-0.2l0.5,0.1l0.5-1.2l0.5-2.5l0.5-1.2l0.5,0.4l0.5,0.5l0.5-0.1l1,0.3l0.5,1.1l0.5-14.8l0.5,0.5l0.5,0.3l1,1l1,0.2l0.5-0.1
		l1,0.1l1-0.1l1.6,0.7l3.1,3.2l0.5,0.7l0.5,0.5h0.5l1.6,1.2l0.5,0.1l0.5,0.3l0.5,0l1,0.7l1,0.5l0.5-0.3l0.5-0.1l0.5,0l1,1.5l0.5,0.4
		l0.5-0.2l0.5,0l0.5,0.3l0.5,0.8l1-0.7l0.5,0.1l1.6,1l1,0.1l1,0.6l0.5,0.3l0.5,0.2l1.6,0.8l1,0.3l1.6,0l0.5-0.3l0.5-0.4l0.5-0.9
		l0.5,0.3l0.5,0.5l0.5,0.1l1,0.9l0.5,0.2l0.5,0l0.5-0.3l1,0.3l0.5-0.1l0.5,0l0.5-0.2l1,0.8l1,0.8l0.5,0l2.1,1.1l0.5,0.4l0.5,0.6
		l0.5,0.1l0.5-0.1l0.5,0.2l0.5,0l1,0.2l1,1.1l0.5,0.1l2.1,1.5l0.5,0.1l1,0.6l1.6,0.6l0.5,0.1l0.5,0.4l1.6-0.1l0.5,0.2l1,0.9l0,0"/>
</g>
<path class="st3" d="M54,252V34.6"/>
<path class="st3" d="M388.8,252V34.6"/>
<path class="st3" d="M54,252h334.8"/>
<path class="st3" d="M54,34.6h334.8"/>
<g>
	<g>
		<line class="st4" x1="61.3" y1="75.1" x2="60.8" y2="74"/>
		<line class="st4" x1="61.9" y1="75.6" x2="61.3" y2="75.1"/>
		<line class="st4" x1="62.4" y1="76.2" x2="61.9" y2="75.6"/>
		<line class="st4" x1="62.9" y1="76.6" x2="62.4" y2="76.2"/>
		<line class="st4" x1="63.4" y1="76.7" x2="62.9" y2="76.6"/>
		<line class="st4" x1="64" y1="77.1" x2="63.4" y2="76.7"/>
		<line class="st4" x1="64.5" y1="78.2" x2="64" y2="77.1"/>
		<line class="st4" x1="65" y1="78.7" x2="64.5" y2="78.2"/>
		<line class="st4" x1="65.5" y1="79.2" x2="65" y2="78.7"/>
		<line class="st4" x1="66" y1="79.4" x2="65.5" y2="79.2"/>
		<line class="st4" x1="66.6" y1="79.6" x2="66" y2="79.4"/>
		<line class="st4" x1="67.1" y1="79.5" x2="66.6" y2="79.6"/>
		<line class="st4" x1="67.6" y1="59.3" x2="67.1" y2="79.5"/>
		<line class="st4" x1="68.1" y1="59.3" x2="67.6" y2="59.3"/>
		<line class="st4" x1="68.6" y1="59.9" x2="68.1" y2="59.3"/>
		<line class="st4" x1="69.2" y1="59.9" x2="68.6" y2="59.9"/>
		<line class="st4" x1="69.7" y1="61.1" x2="69.2" y2="59.9"/>
		<line class="st4" x1="70.2" y1="61.6" x2="69.7" y2="61.1"/>
		<line class="st4" x1="70.7" y1="62.2" x2="70.2" y2="61.6"/>
		<line class="st4" x1="71.3" y1="62.8" x2="70.7" y2="62.2"/>
		<line class="st4" x1="71.8" y1="63.3" x2="71.3" y2="62.8"/>
		<line class="st4" x1="72.3" y1="64.4" x2="71.8" y2="63.3"/>
		<line class="st4" x1="72.8" y1="65" x2="72.3" y2="64.4"/>
		<line class="st4" x1="73.3" y1="65.6" x2="72.8" y2="65"/>
		<line class="st4" x1="73.9" y1="39.4" x2="73.3" y2="65.6"/>
		<line class="st4" x1="74.4" y1="40.1" x2="73.9" y2="39.4"/>
		<line class="st4" x1="74.9" y1="40.7" x2="74.4" y2="40.1"/>
		<line class="st4" x1="75.4" y1="41.3" x2="74.9" y2="40.7"/>
		<line class="st4" x1="75.9" y1="42.5" x2="75.4" y2="41.3"/>
		<line class="st4" x1="76.5" y1="43.7" x2="75.9" y2="42.5"/>
		<line class="st4" x1="77" y1="44.3" x2="76.5" y2="43.7"/>
		<line class="st4" x1="77.5" y1="44.9" x2="77" y2="44.3"/>
		<line class="st4" x1="78" y1="46.1" x2="77.5" y2="44.9"/>
		<line class="st4" x1="78.6" y1="46.7" x2="78" y2="46.1"/>
		<line class="st4" x1="79.1" y1="47.8" x2="78.6" y2="46.7"/>
		<line class="st4" x1="79.6" y1="48.4" x2="79.1" y2="47.8"/>
		<line class="st4" x1="80.1" y1="49" x2="79.6" y2="48.4"/>
		<line class="st4" x1="80.6" y1="50.7" x2="80.1" y2="49"/>
		<line class="st4" x1="81.2" y1="51.8" x2="80.6" y2="50.7"/>
		<line class="st4" x1="81.7" y1="52.3" x2="81.2" y2="51.8"/>
		<line class="st4" x1="82.2" y1="53.4" x2="81.7" y2="52.3"/>
		<line class="st4" x1="82.7" y1="54.5" x2="82.2" y2="53.4"/>
		<line class="st4" x1="83.2" y1="55" x2="82.7" y2="54.5"/>
		<line class="st4" x1="83.8" y1="56.1" x2="83.2" y2="55"/>
		<line class="st4" x1="84.3" y1="57.2" x2="83.8" y2="56.1"/>
		<line class="st4" x1="84.8" y1="58.2" x2="84.3" y2="57.2"/>
		<line class="st4" x1="85.3" y1="59.2" x2="84.8" y2="58.2"/>
		<line class="st4" x1="85.9" y1="60.3" x2="85.3" y2="59.2"/>
		<line class="st4" x1="86.4" y1="61.3" x2="85.9" y2="60.3"/>
		<line class="st4" x1="86.9" y1="62.3" x2="86.4" y2="61.3"/>
		<line class="st4" x1="87.4" y1="63.3" x2="86.9" y2="62.3"/>
		<line class="st4" x1="87.9" y1="63.8" x2="87.4" y2="63.3"/>
		<line class="st4" x1="88.5" y1="64.7" x2="87.9" y2="63.8"/>
		<line class="st4" x1="89" y1="65.2" x2="88.5" y2="64.7"/>
		<line class="st4" x1="89.5" y1="65.7" x2="89" y2="65.2"/>
		<line class="st4" x1="90" y1="66.6" x2="89.5" y2="65.7"/>
		<line class="st4" x1="90.5" y1="67.6" x2="90" y2="66.6"/>
		<line class="st4" x1="91.1" y1="68.5" x2="90.5" y2="67.6"/>
		<line class="st4" x1="91.6" y1="69.4" x2="91.1" y2="68.5"/>
		<line class="st4" x1="92.1" y1="69.9" x2="91.6" y2="69.4"/>
		<line class="st4" x1="92.6" y1="69.9" x2="92.1" y2="69.9"/>
		<line class="st4" x1="93.2" y1="70.4" x2="92.6" y2="69.9"/>
		<line class="st4" x1="93.7" y1="70.8" x2="93.2" y2="70.4"/>
		<line class="st4" x1="94.2" y1="71.7" x2="93.7" y2="70.8"/>
		<line class="st4" x1="94.7" y1="72.6" x2="94.2" y2="71.7"/>
		<line class="st4" x1="95.2" y1="73.1" x2="94.7" y2="72.6"/>
		<line class="st4" x1="95.8" y1="73.5" x2="95.2" y2="73.1"/>
		<line class="st4" x1="96.3" y1="73.9" x2="95.8" y2="73.5"/>
		<line class="st4" x1="96.8" y1="74.4" x2="96.3" y2="73.9"/>
		<line class="st4" x1="97.3" y1="74.8" x2="96.8" y2="74.4"/>
		<line class="st4" x1="97.8" y1="75.2" x2="97.3" y2="74.8"/>
		<line class="st4" x1="98.4" y1="75.7" x2="97.8" y2="75.2"/>
		<line class="st4" x1="98.9" y1="76.5" x2="98.4" y2="75.7"/>
		<line class="st4" x1="99.4" y1="76.5" x2="98.9" y2="76.5"/>
		<line class="st4" x1="99.9" y1="77" x2="99.4" y2="76.5"/>
		<line class="st4" x1="100.5" y1="77.4" x2="99.9" y2="77"/>
		<line class="st4" x1="101" y1="77.8" x2="100.5" y2="77.4"/>
		<line class="st4" x1="101.5" y1="78.2" x2="101" y2="77.8"/>
		<line class="st4" x1="102" y1="78.6" x2="101.5" y2="78.2"/>
		<line class="st4" x1="102.5" y1="79.5" x2="102" y2="78.6"/>
		<line class="st4" x1="103.1" y1="79.9" x2="102.5" y2="79.5"/>
		<line class="st4" x1="103.6" y1="80.7" x2="103.1" y2="79.9"/>
		<line class="st4" x1="104.1" y1="81.1" x2="103.6" y2="80.7"/>
		<line class="st4" x1="104.6" y1="81.9" x2="104.1" y2="81.1"/>
		<line class="st4" x1="105.1" y1="83.1" x2="104.6" y2="81.9"/>
		<line class="st4" x1="105.7" y1="84.6" x2="105.1" y2="83.1"/>
		<line class="st4" x1="106.2" y1="85.8" x2="105.7" y2="84.6"/>
		<line class="st4" x1="106.7" y1="86.6" x2="106.2" y2="85.8"/>
		<line class="st4" x1="107.2" y1="87.7" x2="106.7" y2="86.6"/>
		<line class="st4" x1="107.7" y1="87.7" x2="107.2" y2="87.7"/>
		<line class="st4" x1="108.3" y1="90.6" x2="107.7" y2="87.7"/>
		<line class="st4" x1="108.8" y1="91.3" x2="108.3" y2="90.6"/>
		<line class="st4" x1="109.3" y1="92.8" x2="108.8" y2="91.3"/>
		<line class="st4" x1="109.8" y1="93.8" x2="109.3" y2="92.8"/>
		<line class="st4" x1="110.4" y1="95.2" x2="109.8" y2="93.8"/>
		<line class="st4" x1="110.9" y1="96.9" x2="110.4" y2="95.2"/>
		<line class="st4" x1="111.4" y1="98.5" x2="110.9" y2="96.9"/>
		<line class="st4" x1="111.9" y1="100.1" x2="111.4" y2="98.5"/>
		<line class="st4" x1="112.4" y1="101.1" x2="111.9" y2="100.1"/>
		<line class="st4" x1="113" y1="65.1" x2="112.4" y2="101.1"/>
		<line class="st4" x1="113.5" y1="66.6" x2="113" y2="65.1"/>
		<line class="st4" x1="114" y1="67.8" x2="113.5" y2="66.6"/>
		<line class="st4" x1="114.5" y1="70" x2="114" y2="67.8"/>
		<line class="st4" x1="115" y1="72.5" x2="114.5" y2="70"/>
		<line class="st4" x1="115.6" y1="73.9" x2="115" y2="72.5"/>
		<line class="st4" x1="116.1" y1="75.7" x2="115.6" y2="73.9"/>
		<line class="st4" x1="116.6" y1="77" x2="116.1" y2="75.7"/>
		<line class="st4" x1="117.1" y1="69.7" x2="116.6" y2="77"/>
		<line class="st4" x1="117.7" y1="70.7" x2="117.1" y2="69.7"/>
		<line class="st4" x1="118.2" y1="71.4" x2="117.7" y2="70.7"/>
		<line class="st4" x1="118.7" y1="72.1" x2="118.2" y2="71.4"/>
		<line class="st4" x1="119.2" y1="72.4" x2="118.7" y2="72.1"/>
		<line class="st4" x1="119.7" y1="73.8" x2="119.2" y2="72.4"/>
		<line class="st4" x1="120.3" y1="75.4" x2="119.7" y2="73.8"/>
		<line class="st4" x1="120.8" y1="76.1" x2="120.3" y2="75.4"/>
		<line class="st4" x1="121.3" y1="77.4" x2="120.8" y2="76.1"/>
		<line class="st4" x1="121.8" y1="78.3" x2="121.3" y2="77.4"/>
		<line class="st4" x1="122.3" y1="79.6" x2="121.8" y2="78.3"/>
		<line class="st4" x1="122.9" y1="80.5" x2="122.3" y2="79.6"/>
		<line class="st4" x1="123.4" y1="64.8" x2="122.9" y2="80.5"/>
		<line class="st4" x1="123.9" y1="65.1" x2="123.4" y2="64.8"/>
		<line class="st4" x1="124.4" y1="65.5" x2="123.9" y2="65.1"/>
		<line class="st4" x1="125" y1="65.8" x2="124.4" y2="65.5"/>
		<line class="st4" x1="125.5" y1="66.8" x2="125" y2="65.8"/>
		<line class="st4" x1="126" y1="67.8" x2="125.5" y2="66.8"/>
		<line class="st4" x1="126.5" y1="68.8" x2="126" y2="67.8"/>
		<line class="st4" x1="127" y1="69.7" x2="126.5" y2="68.8"/>
		<line class="st4" x1="127.6" y1="70.7" x2="127" y2="69.7"/>
		<line class="st4" x1="128.1" y1="71.6" x2="127.6" y2="70.7"/>
		<line class="st4" x1="128.6" y1="72.2" x2="128.1" y2="71.6"/>
		<line class="st4" x1="129.1" y1="73.2" x2="128.6" y2="72.2"/>
		<line class="st4" x1="129.6" y1="74.1" x2="129.1" y2="73.2"/>
		<line class="st4" x1="130.2" y1="75.9" x2="129.6" y2="74.1"/>
		<line class="st4" x1="130.7" y1="76.8" x2="130.2" y2="75.9"/>
		<line class="st4" x1="131.2" y1="78" x2="130.7" y2="76.8"/>
		<line class="st4" x1="131.7" y1="78.5" x2="131.2" y2="78"/>
		<line class="st4" x1="132.3" y1="79.4" x2="131.7" y2="78.5"/>
		<line class="st4" x1="132.8" y1="80.3" x2="132.3" y2="79.4"/>
		<line class="st4" x1="133.3" y1="81.1" x2="132.8" y2="80.3"/>
		<line class="st4" x1="133.8" y1="81.7" x2="133.3" y2="81.1"/>
		<line class="st4" x1="134.3" y1="82.5" x2="133.8" y2="81.7"/>
		<line class="st4" x1="134.9" y1="83.6" x2="134.3" y2="82.5"/>
		<line class="st4" x1="135.4" y1="84.4" x2="134.9" y2="83.6"/>
		<line class="st4" x1="135.9" y1="60" x2="135.4" y2="84.4"/>
		<line class="st4" x1="136.4" y1="61" x2="135.9" y2="60"/>
		<line class="st4" x1="136.9" y1="62.2" x2="136.4" y2="61"/>
		<line class="st4" x1="137.5" y1="63.7" x2="136.9" y2="62.2"/>
		<line class="st4" x1="138" y1="65.4" x2="137.5" y2="63.7"/>
		<line class="st4" x1="138.5" y1="66.9" x2="138" y2="65.4"/>
		<line class="st4" x1="139" y1="68.3" x2="138.5" y2="66.9"/>
		<line class="st4" x1="139.6" y1="69.4" x2="139" y2="68.3"/>
		<line class="st4" x1="140.1" y1="71" x2="139.6" y2="69.4"/>
		<line class="st4" x1="140.6" y1="72.7" x2="140.1" y2="71"/>
		<line class="st4" x1="141.1" y1="73.7" x2="140.6" y2="72.7"/>
		<line class="st4" x1="141.6" y1="74.8" x2="141.1" y2="73.7"/>
		<line class="st4" x1="142.2" y1="59.7" x2="141.6" y2="74.8"/>
		<line class="st4" x1="142.7" y1="61.7" x2="142.2" y2="59.7"/>
		<line class="st4" x1="143.2" y1="63.6" x2="142.7" y2="61.7"/>
		<line class="st4" x1="143.7" y1="65.5" x2="143.2" y2="63.6"/>
		<line class="st4" x1="144.2" y1="67.6" x2="143.7" y2="65.5"/>
		<line class="st4" x1="144.8" y1="69.6" x2="144.2" y2="67.6"/>
		<line class="st4" x1="145.3" y1="71.6" x2="144.8" y2="69.6"/>
		<line class="st4" x1="145.8" y1="73.3" x2="145.3" y2="71.6"/>
		<line class="st4" x1="146.3" y1="75" x2="145.8" y2="73.3"/>
		<line class="st4" x1="146.9" y1="76.9" x2="146.3" y2="75"/>
		<line class="st4" x1="147.4" y1="78.8" x2="146.9" y2="76.9"/>
		<line class="st4" x1="147.9" y1="80.8" x2="147.4" y2="78.8"/>
		<line class="st4" x1="148.4" y1="71.5" x2="147.9" y2="80.8"/>
		<line class="st4" x1="148.9" y1="73.8" x2="148.4" y2="71.5"/>
		<line class="st4" x1="149.5" y1="76.3" x2="148.9" y2="73.8"/>
		<line class="st4" x1="150" y1="78" x2="149.5" y2="76.3"/>
		<line class="st4" x1="150.5" y1="79.7" x2="150" y2="78"/>
		<line class="st4" x1="151" y1="81.4" x2="150.5" y2="79.7"/>
		<line class="st4" x1="151.5" y1="81.6" x2="151" y2="81.4"/>
		<line class="st4" x1="152.1" y1="82.9" x2="151.5" y2="81.6"/>
		<line class="st4" x1="152.6" y1="84.3" x2="152.1" y2="82.9"/>
		<line class="st4" x1="153.1" y1="85.9" x2="152.6" y2="84.3"/>
		<line class="st4" x1="153.6" y1="87.6" x2="153.1" y2="85.9"/>
		<line class="st4" x1="154.2" y1="89.1" x2="153.6" y2="87.6"/>
		<line class="st4" x1="154.7" y1="77.6" x2="154.2" y2="89.1"/>
		<line class="st4" x1="155.2" y1="79.2" x2="154.7" y2="77.6"/>
		<line class="st4" x1="155.7" y1="80.3" x2="155.2" y2="79.2"/>
		<line class="st4" x1="156.2" y1="81.3" x2="155.7" y2="80.3"/>
		<line class="st4" x1="156.8" y1="82.5" x2="156.2" y2="81.3"/>
		<line class="st4" x1="157.3" y1="84" x2="156.8" y2="82.5"/>
		<line class="st4" x1="157.8" y1="85.8" x2="157.3" y2="84"/>
		<line class="st4" x1="158.3" y1="87.1" x2="157.8" y2="85.8"/>
		<line class="st4" x1="158.8" y1="88.7" x2="158.3" y2="87.1"/>
		<line class="st4" x1="159.4" y1="89.2" x2="158.8" y2="88.7"/>
		<line class="st4" x1="159.9" y1="89.9" x2="159.4" y2="89.2"/>
		<line class="st4" x1="160.4" y1="90.4" x2="159.9" y2="89.9"/>
		<line class="st4" x1="160.9" y1="90.9" x2="160.4" y2="90.4"/>
		<line class="st4" x1="161.5" y1="91.4" x2="160.9" y2="90.9"/>
		<line class="st4" x1="162" y1="91.4" x2="161.5" y2="91.4"/>
		<line class="st4" x1="162.5" y1="92" x2="162" y2="91.4"/>
		<line class="st4" x1="163" y1="93.5" x2="162.5" y2="92"/>
		<line class="st4" x1="163.5" y1="95.3" x2="163" y2="93.5"/>
		<line class="st4" x1="164.1" y1="96.1" x2="163.5" y2="95.3"/>
		<line class="st4" x1="164.6" y1="96.4" x2="164.1" y2="96.1"/>
		<line class="st4" x1="165.1" y1="96.4" x2="164.6" y2="96.4"/>
		<line class="st4" x1="165.6" y1="97" x2="165.1" y2="96.4"/>
		<line class="st4" x1="166.1" y1="96.9" x2="165.6" y2="97"/>
		<line class="st4" x1="166.7" y1="96.4" x2="166.1" y2="96.9"/>
		<line class="st4" x1="167.2" y1="96.7" x2="166.7" y2="96.4"/>
		<line class="st4" x1="167.7" y1="96.9" x2="167.2" y2="96.7"/>
		<line class="st4" x1="168.2" y1="97" x2="167.7" y2="96.9"/>
		<line class="st4" x1="168.8" y1="98.1" x2="168.2" y2="97"/>
		<line class="st4" x1="169.3" y1="98.8" x2="168.8" y2="98.1"/>
		<line class="st4" x1="169.8" y1="99.1" x2="169.3" y2="98.8"/>
		<line class="st4" x1="170.3" y1="99.7" x2="169.8" y2="99.1"/>
		<line class="st4" x1="170.8" y1="100.1" x2="170.3" y2="99.7"/>
		<line class="st4" x1="171.4" y1="100.6" x2="170.8" y2="100.1"/>
		<line class="st4" x1="171.9" y1="101.2" x2="171.4" y2="100.6"/>
		<line class="st4" x1="172.4" y1="101.7" x2="171.9" y2="101.2"/>
		<line class="st4" x1="172.9" y1="102.1" x2="172.4" y2="101.7"/>
		<line class="st4" x1="173.4" y1="103.1" x2="172.9" y2="102.1"/>
		<line class="st4" x1="174" y1="103.9" x2="173.4" y2="103.1"/>
		<line class="st4" x1="174.5" y1="104.3" x2="174" y2="103.9"/>
		<line class="st4" x1="175" y1="104.9" x2="174.5" y2="104.3"/>
		<line class="st4" x1="175.5" y1="105.2" x2="175" y2="104.9"/>
		<line class="st4" x1="176.1" y1="105.4" x2="175.5" y2="105.2"/>
		<line class="st4" x1="176.6" y1="106" x2="176.1" y2="105.4"/>
		<line class="st4" x1="177.1" y1="106.4" x2="176.6" y2="106"/>
		<line class="st4" x1="177.6" y1="106.8" x2="177.1" y2="106.4"/>
		<line class="st4" x1="178.1" y1="107.4" x2="177.6" y2="106.8"/>
		<line class="st4" x1="178.7" y1="107.7" x2="178.1" y2="107.4"/>
		<line class="st4" x1="179.2" y1="108" x2="178.7" y2="107.7"/>
		<line class="st4" x1="179.7" y1="108.2" x2="179.2" y2="108"/>
		<line class="st4" x1="180.2" y1="109" x2="179.7" y2="108.2"/>
		<line class="st4" x1="180.7" y1="109.7" x2="180.2" y2="109"/>
		<line class="st4" x1="181.3" y1="110" x2="180.7" y2="109.7"/>
		<line class="st4" x1="181.8" y1="110.2" x2="181.3" y2="110"/>
		<line class="st4" x1="182.3" y1="110.6" x2="181.8" y2="110.2"/>
		<line class="st4" x1="182.8" y1="110.9" x2="182.3" y2="110.6"/>
		<line class="st4" x1="183.4" y1="111.2" x2="182.8" y2="110.9"/>
		<line class="st4" x1="183.9" y1="111.4" x2="183.4" y2="111.2"/>
		<line class="st4" x1="184.4" y1="112" x2="183.9" y2="111.4"/>
		<line class="st4" x1="184.9" y1="112.6" x2="184.4" y2="112"/>
		<line class="st4" x1="185.4" y1="113.2" x2="184.9" y2="112.6"/>
		<line class="st4" x1="186" y1="113.7" x2="185.4" y2="113.2"/>
		<line class="st4" x1="186.5" y1="113.5" x2="186" y2="113.7"/>
		<line class="st4" x1="187" y1="112.7" x2="186.5" y2="113.5"/>
		<line class="st4" x1="187.5" y1="112.2" x2="187" y2="112.7"/>
		<line class="st4" x1="188" y1="112.6" x2="187.5" y2="112.2"/>
		<line class="st4" x1="188.6" y1="113.1" x2="188" y2="112.6"/>
		<line class="st4" x1="189.1" y1="113.2" x2="188.6" y2="113.1"/>
		<line class="st4" x1="189.6" y1="113.4" x2="189.1" y2="113.2"/>
		<line class="st4" x1="190.1" y1="113.9" x2="189.6" y2="113.4"/>
		<line class="st4" x1="190.7" y1="114.1" x2="190.1" y2="113.9"/>
		<line class="st4" x1="191.2" y1="114.4" x2="190.7" y2="114.1"/>
		<line class="st4" x1="191.7" y1="114.9" x2="191.2" y2="114.4"/>
		<line class="st4" x1="192.2" y1="115.6" x2="191.7" y2="114.9"/>
		<line class="st4" x1="192.7" y1="116.1" x2="192.2" y2="115.6"/>
		<line class="st4" x1="193.3" y1="116.6" x2="192.7" y2="116.1"/>
		<line class="st4" x1="193.8" y1="117.2" x2="193.3" y2="116.6"/>
		<line class="st4" x1="194.3" y1="117.6" x2="193.8" y2="117.2"/>
		<line class="st4" x1="194.8" y1="118.2" x2="194.3" y2="117.6"/>
		<line class="st4" x1="195.3" y1="118.5" x2="194.8" y2="118.2"/>
		<line class="st4" x1="195.9" y1="119.1" x2="195.3" y2="118.5"/>
		<line class="st4" x1="196.4" y1="119.6" x2="195.9" y2="119.1"/>
		<line class="st4" x1="196.9" y1="119.9" x2="196.4" y2="119.6"/>
		<line class="st4" x1="197.4" y1="120.4" x2="196.9" y2="119.9"/>
		<line class="st4" x1="198" y1="120.6" x2="197.4" y2="120.4"/>
		<line class="st4" x1="198.5" y1="121.1" x2="198" y2="120.6"/>
		<line class="st4" x1="199" y1="121.3" x2="198.5" y2="121.1"/>
		<line class="st4" x1="199.5" y1="121.6" x2="199" y2="121.3"/>
		<line class="st4" x1="200" y1="122.4" x2="199.5" y2="121.6"/>
		<line class="st4" x1="200.6" y1="122.7" x2="200" y2="122.4"/>
		<line class="st4" x1="201.1" y1="123.3" x2="200.6" y2="122.7"/>
		<line class="st4" x1="201.6" y1="123.8" x2="201.1" y2="123.3"/>
		<line class="st4" x1="202.1" y1="124.4" x2="201.6" y2="123.8"/>
		<line class="st4" x1="202.6" y1="124.9" x2="202.1" y2="124.4"/>
		<line class="st4" x1="203.2" y1="125.3" x2="202.6" y2="124.9"/>
		<line class="st4" x1="203.7" y1="125.8" x2="203.2" y2="125.3"/>
		<line class="st4" x1="204.2" y1="126.2" x2="203.7" y2="125.8"/>
		<line class="st4" x1="204.7" y1="126.7" x2="204.2" y2="126.2"/>
		<line class="st4" x1="205.3" y1="127.1" x2="204.7" y2="126.7"/>
		<line class="st4" x1="205.8" y1="127.7" x2="205.3" y2="127.1"/>
		<line class="st4" x1="206.3" y1="128.6" x2="205.8" y2="127.7"/>
		<line class="st4" x1="206.8" y1="129.2" x2="206.3" y2="128.6"/>
		<line class="st4" x1="207.3" y1="129.6" x2="206.8" y2="129.2"/>
		<line class="st4" x1="207.9" y1="130" x2="207.3" y2="129.6"/>
		<line class="st4" x1="208.4" y1="130" x2="207.9" y2="130"/>
		<line class="st4" x1="208.9" y1="130.3" x2="208.4" y2="130"/>
		<line class="st4" x1="209.4" y1="130.9" x2="208.9" y2="130.3"/>
		<line class="st4" x1="209.9" y1="131.4" x2="209.4" y2="130.9"/>
		<line class="st4" x1="210.5" y1="131.8" x2="209.9" y2="131.4"/>
		<line class="st4" x1="211" y1="132.9" x2="210.5" y2="131.8"/>
		<line class="st4" x1="211.5" y1="133.4" x2="211" y2="132.9"/>
		<line class="st4" x1="212" y1="134" x2="211.5" y2="133.4"/>
		<line class="st4" x1="212.5" y1="118.3" x2="212" y2="134"/>
		<line class="st4" x1="213.1" y1="118.5" x2="212.5" y2="118.3"/>
		<line class="st4" x1="213.6" y1="119.4" x2="213.1" y2="118.5"/>
		<line class="st4" x1="214.1" y1="120" x2="213.6" y2="119.4"/>
		<line class="st4" x1="214.6" y1="121.1" x2="214.1" y2="120"/>
		<line class="st4" x1="215.2" y1="122" x2="214.6" y2="121.1"/>
		<line class="st4" x1="215.7" y1="122.8" x2="215.2" y2="122"/>
		<line class="st4" x1="216.2" y1="123.1" x2="215.7" y2="122.8"/>
		<line class="st4" x1="216.7" y1="123.6" x2="216.2" y2="123.1"/>
		<line class="st4" x1="217.2" y1="124.1" x2="216.7" y2="123.6"/>
		<line class="st4" x1="217.8" y1="124.2" x2="217.2" y2="124.1"/>
		<line class="st4" x1="218.3" y1="124.2" x2="217.8" y2="124.2"/>
		<line class="st4" x1="218.8" y1="109.3" x2="218.3" y2="124.2"/>
		<line class="st4" x1="219.3" y1="109.8" x2="218.8" y2="109.3"/>
		<line class="st4" x1="219.8" y1="110.2" x2="219.3" y2="109.8"/>
		<line class="st4" x1="220.4" y1="110.5" x2="219.8" y2="110.2"/>
		<line class="st4" x1="220.9" y1="110.9" x2="220.4" y2="110.5"/>
		<line class="st4" x1="221.4" y1="111.3" x2="220.9" y2="110.9"/>
		<line class="st4" x1="221.9" y1="111.5" x2="221.4" y2="111.3"/>
		<line class="st4" x1="222.5" y1="112.1" x2="221.9" y2="111.5"/>
		<line class="st4" x1="223" y1="112.5" x2="222.5" y2="112.1"/>
		<line class="st4" x1="223.5" y1="112.6" x2="223" y2="112.5"/>
		<line class="st4" x1="224" y1="112.9" x2="223.5" y2="112.6"/>
		<line class="st4" x1="224.5" y1="113.4" x2="224" y2="112.9"/>
		<line class="st4" x1="225.1" y1="113.7" x2="224.5" y2="113.4"/>
		<line class="st4" x1="225.6" y1="114" x2="225.1" y2="113.7"/>
		<line class="st4" x1="226.1" y1="114.4" x2="225.6" y2="114"/>
		<line class="st4" x1="226.6" y1="114.8" x2="226.1" y2="114.4"/>
		<line class="st4" x1="227.1" y1="115.1" x2="226.6" y2="114.8"/>
		<line class="st4" x1="227.7" y1="115.4" x2="227.1" y2="115.1"/>
		<line class="st4" x1="228.2" y1="116" x2="227.7" y2="115.4"/>
		<line class="st4" x1="228.7" y1="116.4" x2="228.2" y2="116"/>
		<line class="st4" x1="229.2" y1="116.6" x2="228.7" y2="116.4"/>
		<line class="st4" x1="229.8" y1="117" x2="229.2" y2="116.6"/>
		<line class="st4" x1="230.3" y1="117.3" x2="229.8" y2="117"/>
		<line class="st4" x1="230.8" y1="117.5" x2="230.3" y2="117.3"/>
		<line class="st4" x1="231.3" y1="118" x2="230.8" y2="117.5"/>
		<line class="st4" x1="231.8" y1="118.3" x2="231.3" y2="118"/>
		<line class="st4" x1="232.4" y1="118.4" x2="231.8" y2="118.3"/>
		<line class="st4" x1="232.9" y1="118.6" x2="232.4" y2="118.4"/>
		<line class="st4" x1="233.4" y1="118.9" x2="232.9" y2="118.6"/>
		<line class="st4" x1="233.9" y1="119.1" x2="233.4" y2="118.9"/>
		<line class="st4" x1="234.4" y1="119.6" x2="233.9" y2="119.1"/>
		<line class="st4" x1="235" y1="120" x2="234.4" y2="119.6"/>
		<line class="st4" x1="235.5" y1="120.3" x2="235" y2="120"/>
		<line class="st4" x1="236" y1="120.3" x2="235.5" y2="120.3"/>
		<line class="st4" x1="236.5" y1="120.6" x2="236" y2="120.3"/>
		<line class="st4" x1="237.1" y1="121" x2="236.5" y2="120.6"/>
		<line class="st4" x1="237.6" y1="121.1" x2="237.1" y2="121"/>
		<line class="st4" x1="238.1" y1="121.4" x2="237.6" y2="121.1"/>
		<line class="st4" x1="238.6" y1="121.7" x2="238.1" y2="121.4"/>
		<line class="st4" x1="239.1" y1="122.2" x2="238.6" y2="121.7"/>
		<line class="st4" x1="239.7" y1="122.7" x2="239.1" y2="122.2"/>
		<line class="st4" x1="240.2" y1="122.9" x2="239.7" y2="122.7"/>
		<line class="st4" x1="240.7" y1="123" x2="240.2" y2="122.9"/>
		<line class="st4" x1="241.2" y1="123.4" x2="240.7" y2="123"/>
		<line class="st4" x1="241.7" y1="123.6" x2="241.2" y2="123.4"/>
		<line class="st4" x1="242.3" y1="124" x2="241.7" y2="123.6"/>
		<line class="st4" x1="242.8" y1="124.3" x2="242.3" y2="124"/>
		<line class="st4" x1="243.3" y1="124.6" x2="242.8" y2="124.3"/>
		<line class="st4" x1="243.8" y1="125.1" x2="243.3" y2="124.6"/>
		<line class="st4" x1="244.4" y1="125.3" x2="243.8" y2="125.1"/>
		<line class="st4" x1="244.9" y1="125.6" x2="244.4" y2="125.3"/>
		<line class="st4" x1="245.4" y1="125.7" x2="244.9" y2="125.6"/>
		<line class="st4" x1="245.9" y1="126" x2="245.4" y2="125.7"/>
		<line class="st4" x1="246.4" y1="126.2" x2="245.9" y2="126"/>
		<line class="st4" x1="247" y1="126.5" x2="246.4" y2="126.2"/>
		<line class="st4" x1="247.5" y1="126.7" x2="247" y2="126.5"/>
		<line class="st4" x1="248" y1="126.8" x2="247.5" y2="126.7"/>
		<line class="st4" x1="248.5" y1="127.5" x2="248" y2="126.8"/>
		<line class="st4" x1="249" y1="127.7" x2="248.5" y2="127.5"/>
		<line class="st4" x1="249.6" y1="128.1" x2="249" y2="127.7"/>
		<line class="st4" x1="250.1" y1="128.6" x2="249.6" y2="128.1"/>
		<line class="st4" x1="250.6" y1="128.8" x2="250.1" y2="128.6"/>
		<line class="st4" x1="251.1" y1="129.1" x2="250.6" y2="128.8"/>
		<line class="st4" x1="251.7" y1="129.3" x2="251.1" y2="129.1"/>
		<line class="st4" x1="252.2" y1="129.5" x2="251.7" y2="129.3"/>
		<line class="st4" x1="252.7" y1="129.9" x2="252.2" y2="129.5"/>
		<line class="st4" x1="253.2" y1="115.8" x2="252.7" y2="129.9"/>
		<line class="st4" x1="253.7" y1="116.3" x2="253.2" y2="115.8"/>
		<line class="st4" x1="254.3" y1="116.6" x2="253.7" y2="116.3"/>
		<line class="st4" x1="254.8" y1="116.9" x2="254.3" y2="116.6"/>
		<line class="st4" x1="255.3" y1="117.1" x2="254.8" y2="116.9"/>
		<line class="st4" x1="255.8" y1="117.2" x2="255.3" y2="117.1"/>
		<line class="st4" x1="256.3" y1="117.3" x2="255.8" y2="117.2"/>
		<line class="st4" x1="256.9" y1="117.3" x2="256.3" y2="117.3"/>
		<line class="st4" x1="257.4" y1="117.5" x2="256.9" y2="117.3"/>
		<line class="st4" x1="257.9" y1="117.7" x2="257.4" y2="117.5"/>
		<line class="st4" x1="258.4" y1="118" x2="257.9" y2="117.7"/>
		<line class="st4" x1="259" y1="107.1" x2="258.4" y2="118"/>
		<line class="st4" x1="259.5" y1="107.3" x2="259" y2="107.1"/>
		<line class="st4" x1="260" y1="107.5" x2="259.5" y2="107.3"/>
		<line class="st4" x1="260.5" y1="107.6" x2="260" y2="107.5"/>
		<line class="st4" x1="261" y1="107.8" x2="260.5" y2="107.6"/>
		<line class="st4" x1="261.6" y1="107.8" x2="261" y2="107.8"/>
		<line class="st4" x1="262.1" y1="107.8" x2="261.6" y2="107.8"/>
		<line class="st4" x1="262.6" y1="108" x2="262.1" y2="107.8"/>
		<line class="st4" x1="263.1" y1="108.3" x2="262.6" y2="108"/>
		<line class="st4" x1="263.6" y1="108.5" x2="263.1" y2="108.3"/>
		<line class="st4" x1="264.2" y1="108.9" x2="263.6" y2="108.5"/>
		<line class="st4" x1="264.7" y1="109" x2="264.2" y2="108.9"/>
		<line class="st4" x1="265.2" y1="109.1" x2="264.7" y2="109"/>
		<line class="st4" x1="265.7" y1="109.5" x2="265.2" y2="109.1"/>
		<line class="st4" x1="266.3" y1="109.6" x2="265.7" y2="109.5"/>
		<line class="st4" x1="266.8" y1="109.9" x2="266.3" y2="109.6"/>
		<line class="st4" x1="267.3" y1="110.2" x2="266.8" y2="109.9"/>
		<line class="st4" x1="267.8" y1="110.2" x2="267.3" y2="110.2"/>
		<line class="st4" x1="268.3" y1="110.2" x2="267.8" y2="110.2"/>
		<line class="st4" x1="268.9" y1="111.2" x2="268.3" y2="110.2"/>
		<line class="st4" x1="269.4" y1="111.3" x2="268.9" y2="111.2"/>
		<line class="st4" x1="269.9" y1="111.3" x2="269.4" y2="111.3"/>
		<line class="st4" x1="270.4" y1="111.9" x2="269.9" y2="111.3"/>
		<line class="st4" x1="270.9" y1="112.2" x2="270.4" y2="111.9"/>
		<line class="st4" x1="271.5" y1="112.8" x2="270.9" y2="112.2"/>
		<line class="st4" x1="272" y1="113" x2="271.5" y2="112.8"/>
		<line class="st4" x1="272.5" y1="113.3" x2="272" y2="113"/>
		<line class="st4" x1="273" y1="113.6" x2="272.5" y2="113.3"/>
		<line class="st4" x1="273.6" y1="114" x2="273" y2="113.6"/>
		<line class="st4" x1="274.1" y1="114.6" x2="273.6" y2="114"/>
		<line class="st4" x1="274.6" y1="115.4" x2="274.1" y2="114.6"/>
		<line class="st4" x1="275.1" y1="115.3" x2="274.6" y2="115.4"/>
		<line class="st4" x1="275.6" y1="115.6" x2="275.1" y2="115.3"/>
		<line class="st4" x1="276.2" y1="116.4" x2="275.6" y2="115.6"/>
		<line class="st4" x1="276.7" y1="116.8" x2="276.2" y2="116.4"/>
		<line class="st4" x1="277.2" y1="116.8" x2="276.7" y2="116.8"/>
		<line class="st4" x1="277.7" y1="117.5" x2="277.2" y2="116.8"/>
		<line class="st4" x1="278.2" y1="117.7" x2="277.7" y2="117.5"/>
		<line class="st4" x1="278.8" y1="117.9" x2="278.2" y2="117.7"/>
		<line class="st4" x1="279.3" y1="118.2" x2="278.8" y2="117.9"/>
		<line class="st4" x1="279.8" y1="119" x2="279.3" y2="118.2"/>
		<line class="st4" x1="280.3" y1="119.3" x2="279.8" y2="119"/>
		<line class="st4" x1="280.9" y1="119.4" x2="280.3" y2="119.3"/>
		<line class="st4" x1="281.4" y1="119.6" x2="280.9" y2="119.4"/>
		<line class="st4" x1="281.9" y1="120.3" x2="281.4" y2="119.6"/>
		<line class="st4" x1="282.4" y1="120.6" x2="281.9" y2="120.3"/>
		<line class="st4" x1="282.9" y1="120.4" x2="282.4" y2="120.6"/>
		<line class="st4" x1="283.5" y1="120.4" x2="282.9" y2="120.4"/>
		<line class="st4" x1="284" y1="120.9" x2="283.5" y2="120.4"/>
		<line class="st4" x1="284.5" y1="120.5" x2="284" y2="120.9"/>
		<line class="st4" x1="285" y1="120.4" x2="284.5" y2="120.5"/>
		<line class="st4" x1="285.5" y1="120.4" x2="285" y2="120.4"/>
		<line class="st4" x1="286.1" y1="120.6" x2="285.5" y2="120.4"/>
		<line class="st4" x1="286.6" y1="120.8" x2="286.1" y2="120.6"/>
		<line class="st4" x1="287.1" y1="121.2" x2="286.6" y2="120.8"/>
		<line class="st4" x1="287.6" y1="121.8" x2="287.1" y2="121.2"/>
		<line class="st4" x1="288.2" y1="121.9" x2="287.6" y2="121.8"/>
		<line class="st4" x1="288.7" y1="122" x2="288.2" y2="121.9"/>
		<line class="st4" x1="289.2" y1="122.3" x2="288.7" y2="122"/>
		<line class="st4" x1="289.7" y1="122.6" x2="289.2" y2="122.3"/>
		<line class="st4" x1="290.2" y1="122.9" x2="289.7" y2="122.6"/>
		<line class="st4" x1="290.8" y1="123.1" x2="290.2" y2="122.9"/>
		<line class="st4" x1="291.3" y1="123.4" x2="290.8" y2="123.1"/>
		<line class="st4" x1="291.8" y1="123.6" x2="291.3" y2="123.4"/>
		<line class="st4" x1="292.3" y1="124.1" x2="291.8" y2="123.6"/>
		<line class="st4" x1="292.8" y1="124.8" x2="292.3" y2="124.1"/>
		<line class="st4" x1="293.4" y1="125" x2="292.8" y2="124.8"/>
		<line class="st4" x1="293.9" y1="124.6" x2="293.4" y2="125"/>
		<line class="st4" x1="294.4" y1="124.3" x2="293.9" y2="124.6"/>
		<line class="st4" x1="294.9" y1="124.5" x2="294.4" y2="124.3"/>
		<line class="st4" x1="295.5" y1="124.9" x2="294.9" y2="124.5"/>
		<line class="st4" x1="296" y1="125.5" x2="295.5" y2="124.9"/>
		<line class="st4" x1="296.5" y1="125.9" x2="296" y2="125.5"/>
		<line class="st4" x1="297" y1="125.7" x2="296.5" y2="125.9"/>
		<line class="st4" x1="297.5" y1="125.8" x2="297" y2="125.7"/>
		<line class="st4" x1="298.1" y1="126.1" x2="297.5" y2="125.8"/>
		<line class="st4" x1="298.6" y1="126.7" x2="298.1" y2="126.1"/>
		<line class="st4" x1="299.1" y1="127" x2="298.6" y2="126.7"/>
		<line class="st4" x1="299.6" y1="127.2" x2="299.1" y2="127"/>
		<line class="st4" x1="300.1" y1="127.4" x2="299.6" y2="127.2"/>
		<line class="st4" x1="300.7" y1="128" x2="300.1" y2="127.4"/>
		<line class="st4" x1="301.2" y1="128.4" x2="300.7" y2="128"/>
		<line class="st4" x1="301.7" y1="128.6" x2="301.2" y2="128.4"/>
		<line class="st4" x1="302.2" y1="128.6" x2="301.7" y2="128.6"/>
		<line class="st4" x1="302.8" y1="129" x2="302.2" y2="128.6"/>
		<line class="st4" x1="303.3" y1="129.7" x2="302.8" y2="129"/>
		<line class="st4" x1="303.8" y1="130.2" x2="303.3" y2="129.7"/>
		<line class="st4" x1="304.3" y1="130.2" x2="303.8" y2="130.2"/>
		<line class="st4" x1="304.8" y1="130.2" x2="304.3" y2="130.2"/>
		<line class="st4" x1="305.4" y1="130.7" x2="304.8" y2="130.2"/>
		<line class="st4" x1="305.9" y1="131.1" x2="305.4" y2="130.7"/>
		<line class="st4" x1="306.4" y1="131.5" x2="305.9" y2="131.1"/>
		<line class="st4" x1="306.9" y1="131.4" x2="306.4" y2="131.5"/>
		<line class="st4" x1="307.4" y1="131.5" x2="306.9" y2="131.4"/>
		<line class="st4" x1="308" y1="132.2" x2="307.4" y2="131.5"/>
		<line class="st4" x1="308.5" y1="133" x2="308" y2="132.2"/>
		<line class="st4" x1="309" y1="134.6" x2="308.5" y2="133"/>
		<line class="st4" x1="309.5" y1="134.8" x2="309" y2="134.6"/>
		<line class="st4" x1="310" y1="134.2" x2="309.5" y2="134.8"/>
		<line class="st4" x1="310.6" y1="134.2" x2="310" y2="134.2"/>
		<line class="st4" x1="311.1" y1="134.9" x2="310.6" y2="134.2"/>
		<line class="st4" x1="311.6" y1="135" x2="311.1" y2="134.9"/>
		<line class="st4" x1="312.1" y1="135.1" x2="311.6" y2="135"/>
		<line class="st4" x1="312.7" y1="135.7" x2="312.1" y2="135.1"/>
		<line class="st4" x1="313.2" y1="136.1" x2="312.7" y2="135.7"/>
		<line class="st4" x1="313.7" y1="136.4" x2="313.2" y2="136.1"/>
		<line class="st4" x1="314.2" y1="137" x2="313.7" y2="136.4"/>
		<line class="st4" x1="314.7" y1="137.5" x2="314.2" y2="137"/>
		<line class="st4" x1="315.3" y1="136.9" x2="314.7" y2="137.5"/>
		<line class="st4" x1="315.8" y1="136.4" x2="315.3" y2="136.9"/>
		<line class="st4" x1="316.3" y1="136.5" x2="315.8" y2="136.4"/>
		<line class="st4" x1="316.8" y1="137.1" x2="316.3" y2="136.5"/>
		<line class="st4" x1="317.3" y1="137.3" x2="316.8" y2="137.1"/>
		<line class="st4" x1="317.9" y1="137.7" x2="317.3" y2="137.3"/>
		<line class="st4" x1="318.4" y1="138.3" x2="317.9" y2="137.7"/>
		<line class="st4" x1="318.9" y1="138.7" x2="318.4" y2="138.3"/>
		<line class="st4" x1="319.4" y1="139.2" x2="318.9" y2="138.7"/>
		<line class="st4" x1="320" y1="139.4" x2="319.4" y2="139.2"/>
		<line class="st4" x1="320.5" y1="124.2" x2="320" y2="139.4"/>
		<line class="st4" x1="321" y1="124.3" x2="320.5" y2="124.2"/>
		<line class="st4" x1="321.5" y1="124.8" x2="321" y2="124.3"/>
		<line class="st4" x1="322" y1="125.2" x2="321.5" y2="124.8"/>
		<line class="st4" x1="322.6" y1="126.2" x2="322" y2="125.2"/>
		<line class="st4" x1="323.1" y1="126.6" x2="322.6" y2="126.2"/>
		<line class="st4" x1="323.6" y1="127" x2="323.1" y2="126.6"/>
		<line class="st4" x1="324.1" y1="127.3" x2="323.6" y2="127"/>
		<line class="st4" x1="324.6" y1="127.8" x2="324.1" y2="127.3"/>
		<line class="st4" x1="325.2" y1="128.1" x2="324.6" y2="127.8"/>
		<line class="st4" x1="325.7" y1="128.8" x2="325.2" y2="128.1"/>
		<line class="st4" x1="326.2" y1="130.1" x2="325.7" y2="128.8"/>
		<line class="st4" x1="326.7" y1="116.4" x2="326.2" y2="130.1"/>
		<line class="st4" x1="327.3" y1="116.2" x2="326.7" y2="116.4"/>
		<line class="st4" x1="327.8" y1="116.3" x2="327.3" y2="116.2"/>
		<line class="st4" x1="328.3" y1="115.1" x2="327.8" y2="116.3"/>
		<line class="st4" x1="328.8" y1="112.6" x2="328.3" y2="115.1"/>
		<line class="st4" x1="329.3" y1="111.5" x2="328.8" y2="112.6"/>
		<line class="st4" x1="329.9" y1="111.8" x2="329.3" y2="111.5"/>
		<line class="st4" x1="330.4" y1="112.3" x2="329.9" y2="111.8"/>
		<line class="st4" x1="330.9" y1="112.2" x2="330.4" y2="112.3"/>
		<line class="st4" x1="331.4" y1="112.3" x2="330.9" y2="112.2"/>
		<line class="st4" x1="331.9" y1="112.5" x2="331.4" y2="112.3"/>
		<line class="st4" x1="332.5" y1="113.7" x2="331.9" y2="112.5"/>
		<line class="st4" x1="333" y1="98.8" x2="332.5" y2="113.7"/>
		<line class="st4" x1="333.5" y1="99.3" x2="333" y2="98.8"/>
		<line class="st4" x1="334" y1="99.6" x2="333.5" y2="99.3"/>
		<line class="st4" x1="334.6" y1="100.1" x2="334" y2="99.6"/>
		<line class="st4" x1="335.1" y1="100.6" x2="334.6" y2="100.1"/>
		<line class="st4" x1="335.6" y1="100.6" x2="335.1" y2="100.6"/>
		<line class="st4" x1="336.1" y1="100.7" x2="335.6" y2="100.6"/>
		<line class="st4" x1="336.6" y1="100.6" x2="336.1" y2="100.7"/>
		<line class="st4" x1="337.2" y1="100.6" x2="336.6" y2="100.6"/>
		<line class="st4" x1="337.7" y1="100.7" x2="337.2" y2="100.6"/>
		<line class="st4" x1="338.2" y1="100.6" x2="337.7" y2="100.7"/>
		<line class="st4" x1="338.7" y1="100.5" x2="338.2" y2="100.6"/>
		<line class="st4" x1="339.2" y1="100.8" x2="338.7" y2="100.5"/>
		<line class="st4" x1="339.8" y1="101" x2="339.2" y2="100.8"/>
		<line class="st4" x1="340.3" y1="101.3" x2="339.8" y2="101"/>
		<line class="st4" x1="340.8" y1="101.8" x2="340.3" y2="101.3"/>
		<line class="st4" x1="341.3" y1="102.2" x2="340.8" y2="101.8"/>
		<line class="st4" x1="341.9" y1="102.8" x2="341.3" y2="102.2"/>
		<line class="st4" x1="342.4" y1="103.3" x2="341.9" y2="102.8"/>
		<line class="st4" x1="342.9" y1="103.8" x2="342.4" y2="103.3"/>
		<line class="st4" x1="343.4" y1="104.5" x2="342.9" y2="103.8"/>
		<line class="st4" x1="343.9" y1="105.2" x2="343.4" y2="104.5"/>
		<line class="st4" x1="344.5" y1="105.7" x2="343.9" y2="105.2"/>
		<line class="st4" x1="345" y1="105.7" x2="344.5" y2="105.7"/>
		<line class="st4" x1="345.5" y1="106.1" x2="345" y2="105.7"/>
		<line class="st4" x1="346" y1="106.5" x2="345.5" y2="106.1"/>
		<line class="st4" x1="346.5" y1="106.9" x2="346" y2="106.5"/>
		<line class="st4" x1="347.1" y1="107" x2="346.5" y2="106.9"/>
		<line class="st4" x1="347.6" y1="107.2" x2="347.1" y2="107"/>
		<line class="st4" x1="348.1" y1="107.3" x2="347.6" y2="107.2"/>
		<line class="st4" x1="348.6" y1="107.6" x2="348.1" y2="107.3"/>
		<line class="st4" x1="349.2" y1="108" x2="348.6" y2="107.6"/>
		<line class="st4" x1="349.7" y1="108.3" x2="349.2" y2="108"/>
		<line class="st4" x1="350.2" y1="108.5" x2="349.7" y2="108.3"/>
		<line class="st4" x1="350.7" y1="108.2" x2="350.2" y2="108.5"/>
		<line class="st4" x1="351.2" y1="108.1" x2="350.7" y2="108.2"/>
		<line class="st4" x1="351.8" y1="108.1" x2="351.2" y2="108.1"/>
		<line class="st4" x1="352.3" y1="109" x2="351.8" y2="108.1"/>
		<line class="st4" x1="352.8" y1="109.6" x2="352.3" y2="109"/>
		<line class="st4" x1="353.3" y1="110" x2="352.8" y2="109.6"/>
		<line class="st4" x1="353.8" y1="109.8" x2="353.3" y2="110"/>
		<line class="st4" x1="354.4" y1="109.8" x2="353.8" y2="109.8"/>
		<line class="st4" x1="354.9" y1="110.1" x2="354.4" y2="109.8"/>
		<line class="st4" x1="355.4" y1="110.8" x2="354.9" y2="110.1"/>
		<line class="st4" x1="355.9" y1="110.4" x2="355.4" y2="110.8"/>
		<line class="st4" x1="356.5" y1="110.1" x2="355.9" y2="110.4"/>
		<line class="st4" x1="357" y1="110.2" x2="356.5" y2="110.1"/>
		<line class="st4" x1="357.5" y1="110.5" x2="357" y2="110.2"/>
		<line class="st4" x1="358" y1="110.8" x2="357.5" y2="110.5"/>
		<line class="st4" x1="358.5" y1="111.1" x2="358" y2="110.8"/>
		<line class="st4" x1="359.1" y1="111.2" x2="358.5" y2="111.1"/>
		<line class="st4" x1="359.6" y1="111.3" x2="359.1" y2="111.2"/>
		<line class="st4" x1="360.1" y1="111.5" x2="359.6" y2="111.3"/>
		<line class="st4" x1="360.6" y1="111.9" x2="360.1" y2="111.5"/>
		<line class="st4" x1="361.1" y1="112.2" x2="360.6" y2="111.9"/>
		<line class="st4" x1="361.7" y1="112.4" x2="361.1" y2="112.2"/>
		<line class="st4" x1="362.2" y1="112.7" x2="361.7" y2="112.4"/>
		<line class="st4" x1="362.7" y1="112.9" x2="362.2" y2="112.7"/>
		<line class="st4" x1="363.2" y1="113.2" x2="362.7" y2="112.9"/>
		<line class="st4" x1="363.8" y1="113.4" x2="363.2" y2="113.2"/>
		<line class="st4" x1="364.3" y1="113.5" x2="363.8" y2="113.4"/>
		<line class="st4" x1="364.8" y1="113.5" x2="364.3" y2="113.5"/>
		<line class="st4" x1="365.3" y1="113.5" x2="364.8" y2="113.5"/>
		<line class="st4" x1="365.8" y1="113.5" x2="365.3" y2="113.5"/>
		<line class="st4" x1="366.4" y1="113.2" x2="365.8" y2="113.5"/>
		<line class="st4" x1="366.9" y1="112.8" x2="366.4" y2="113.2"/>
		<line class="st4" x1="367.4" y1="111.9" x2="366.9" y2="112.8"/>
		<line class="st4" x1="367.9" y1="112.2" x2="367.4" y2="111.9"/>
		<line class="st4" x1="368.4" y1="112.7" x2="367.9" y2="112.2"/>
		<line class="st4" x1="369" y1="112.8" x2="368.4" y2="112.7"/>
		<line class="st4" x1="369.5" y1="113.2" x2="369" y2="112.8"/>
		<line class="st4" x1="370" y1="113.7" x2="369.5" y2="113.2"/>
		<line class="st4" x1="370.5" y1="113.9" x2="370" y2="113.7"/>
		<line class="st4" x1="371.1" y1="113.9" x2="370.5" y2="113.9"/>
		<line class="st4" x1="371.6" y1="113.6" x2="371.1" y2="113.9"/>
		<line class="st4" x1="372.1" y1="113.7" x2="371.6" y2="113.6"/>
		<line class="st4" x1="372.6" y1="113.8" x2="372.1" y2="113.7"/>
		<line class="st4" x1="373.1" y1="113.7" x2="372.6" y2="113.8"/>
		<line class="st4" x1="373.7" y1="113.7" x2="373.1" y2="113.7"/>
		<line class="st4" x1="374.2" y1="113.5" x2="373.7" y2="113.7"/>
		<line class="st4" x1="374.7" y1="113.9" x2="374.2" y2="113.5"/>
		<line class="st4" x1="375.2" y1="114.3" x2="374.7" y2="113.9"/>
		<line class="st4" x1="375.7" y1="114.7" x2="375.2" y2="114.3"/>
		<line class="st4" x1="376.3" y1="115.1" x2="375.7" y2="114.7"/>
		<line class="st4" x1="376.8" y1="115.1" x2="376.3" y2="115.1"/>
		<line class="st4" x1="377.3" y1="115.3" x2="376.8" y2="115.1"/>
		<line class="st4" x1="377.8" y1="115.6" x2="377.3" y2="115.3"/>
		<line class="st4" x1="378.4" y1="116" x2="377.8" y2="115.6"/>
		<line class="st4" x1="378.9" y1="116.2" x2="378.4" y2="116"/>
		<line class="st4" x1="379.4" y1="116.6" x2="378.9" y2="116.2"/>
		<line class="st4" x1="379.9" y1="117.1" x2="379.4" y2="116.6"/>
		<line class="st4" x1="380.4" y1="117.2" x2="379.9" y2="117.1"/>
		<line class="st4" x1="381" y1="117.1" x2="380.4" y2="117.2"/>
		<line class="st4" x1="381.5" y1="117.3" x2="381" y2="117.1"/>
		<line class="st4" x1="382" y1="117.2" x2="381.5" y2="117.3"/>
		<line class="st4" x1="382.5" y1="117.4" x2="382" y2="117.2"/>
		<line class="st4" x1="383" y1="117.5" x2="382.5" y2="117.4"/>
		<line class="st4" x1="383.6" y1="118" x2="383" y2="117.5"/>
		<line class="st4" x1="384.1" y1="118.6" x2="383.6" y2="118"/>
		<line class="st4" x1="384.6" y1="118.7" x2="384.1" y2="118.6"/>
		<line class="st4" x1="385.1" y1="119.1" x2="384.6" y2="118.7"/>
		<line class="st4" x1="385.7" y1="119.4" x2="385.1" y2="119.1"/>
		<line class="st4" x1="386.2" y1="119.9" x2="385.7" y2="119.4"/>
		<line class="st4" x1="386.7" y1="120.2" x2="386.2" y2="119.9"/>
		<line class="st4" x1="387.2" y1="120.2" x2="386.7" y2="120.2"/>
		<line class="st4" x1="387.7" y1="120.5" x2="387.2" y2="120.2"/>
		<line class="st4" x1="388.3" y1="120.8" x2="387.7" y2="120.5"/>
		<line class="st4" x1="388.8" y1="121.1" x2="388.3" y2="120.8"/>
	</g>
</g>
</svg>
