<?xml version="1.0" encoding="utf-8" standalone="no"?>
<!DOCTYPE svg PUBLIC "-//W3C//DTD SVG 1.1//EN"
  "http://www.w3.org/Graphics/SVG/1.1/DTD/svg11.dtd">
<!-- Created with matplotlib (http://matplotlib.org/) -->
<svg height="288pt" version="1.1" viewBox="0 0 432 288" width="432pt" xmlns="http://www.w3.org/2000/svg" xmlns:xlink="http://www.w3.org/1999/xlink">
 <defs>
  <style type="text/css">
*{stroke-linecap:butt;stroke-linejoin:round;}
  </style>
 </defs>
 <g id="figure_1">
  <g id="patch_1">
   <path d="M 0 288 
L 432 288 
L 432 0 
L 0 0 
z
" style="fill:#ffffff;"/>
  </g>
  <g id="axes_1">
   <g id="patch_2">
    <path d="M 54 252 
L 388.8 252 
L 388.8 34.56 
L 54 34.56 
z
" style="fill:#ffffff;"/>
   </g>
   <g id="matplotlib.axis_1">
    <g id="xtick_1">
     <g id="line2d_1">
      <defs>
       <path d="M 0 0 
L 0 3.5 
" id="m8237e79f8d" style="stroke:#000000;stroke-width:0.8;"/>
      </defs>
      <g>
       <use style="stroke:#000000;stroke-width:0.8;" x="79.070827" xlink:href="#m8237e79f8d" y="252"/>
      </g>
     </g>
     <g id="text_1">
      <!-- 1969 -->
      <defs>
       <path d="M 12.40625 8.296875 
L 28.515625 8.296875 
L 28.515625 63.921875 
L 10.984375 60.40625 
L 10.984375 69.390625 
L 28.421875 72.90625 
L 38.28125 72.90625 
L 38.28125 8.296875 
L 54.390625 8.296875 
L 54.390625 0 
L 12.40625 0 
z
" id="DejaVuSans-31"/>
       <path d="M 10.984375 1.515625 
L 10.984375 10.5 
Q 14.703125 8.734375 18.5 7.8125 
Q 22.3125 6.890625 25.984375 6.890625 
Q 35.75 6.890625 40.890625 13.453125 
Q 46.046875 20.015625 46.78125 33.40625 
Q 43.953125 29.203125 39.59375 26.953125 
Q 35.25 24.703125 29.984375 24.703125 
Q 19.046875 24.703125 12.671875 31.3125 
Q 6.296875 37.9375 6.296875 49.421875 
Q 6.296875 60.640625 12.9375 67.421875 
Q 19.578125 74.21875 30.609375 74.21875 
Q 43.265625 74.21875 49.921875 64.515625 
Q 56.59375 54.828125 56.59375 36.375 
Q 56.59375 19.140625 48.40625 8.859375 
Q 40.234375 -1.421875 26.421875 -1.421875 
Q 22.703125 -1.421875 18.890625 -0.6875 
Q 15.09375 0.046875 10.984375 1.515625 
z
M 30.609375 32.421875 
Q 37.25 32.421875 41.125 36.953125 
Q 45.015625 41.5 45.015625 49.421875 
Q 45.015625 57.28125 41.125 61.84375 
Q 37.25 66.40625 30.609375 66.40625 
Q 23.96875 66.40625 20.09375 61.84375 
Q 16.21875 57.28125 16.21875 49.421875 
Q 16.21875 41.5 20.09375 36.953125 
Q 23.96875 32.421875 30.609375 32.421875 
z
" id="DejaVuSans-39"/>
       <path d="M 33.015625 40.375 
Q 26.375 40.375 22.484375 35.828125 
Q 18.609375 31.296875 18.609375 23.390625 
Q 18.609375 15.53125 22.484375 10.953125 
Q 26.375 6.390625 33.015625 6.390625 
Q 39.65625 6.390625 43.53125 10.953125 
Q 47.40625 15.53125 47.40625 23.390625 
Q 47.40625 31.296875 43.53125 35.828125 
Q 39.65625 40.375 33.015625 40.375 
z
M 52.59375 71.296875 
L 52.59375 62.3125 
Q 48.875 64.0625 45.09375 64.984375 
Q 41.3125 65.921875 37.59375 65.921875 
Q 27.828125 65.921875 22.671875 59.328125 
Q 17.53125 52.734375 16.796875 39.40625 
Q 19.671875 43.65625 24.015625 45.921875 
Q 28.375 48.1875 33.59375 48.1875 
Q 44.578125 48.1875 50.953125 41.515625 
Q 57.328125 34.859375 57.328125 23.390625 
Q 57.328125 12.15625 50.6875 5.359375 
Q 44.046875 -1.421875 33.015625 -1.421875 
Q 20.359375 -1.421875 13.671875 8.265625 
Q 6.984375 17.96875 6.984375 36.375 
Q 6.984375 53.65625 15.1875 63.9375 
Q 23.390625 74.21875 37.203125 74.21875 
Q 40.921875 74.21875 44.703125 73.484375 
Q 48.484375 72.75 52.59375 71.296875 
z
" id="DejaVuSans-36"/>
      </defs>
      <g transform="translate(66.345827 266.598437)scale(0.1 -0.1)">
       <use xlink:href="#DejaVuSans-31"/>
       <use x="63.623047" xlink:href="#DejaVuSans-39"/>
       <use x="127.246094" xlink:href="#DejaVuSans-36"/>
       <use x="190.869141" xlink:href="#DejaVuSans-39"/>
      </g>
     </g>
    </g>
    <g id="xtick_2">
     <g id="line2d_2">
      <g>
       <use style="stroke:#000000;stroke-width:0.8;" x="141.747894" xlink:href="#m8237e79f8d" y="252"/>
      </g>
     </g>
     <g id="text_2">
      <!-- 1979 -->
      <defs>
       <path d="M 8.203125 72.90625 
L 55.078125 72.90625 
L 55.078125 68.703125 
L 28.609375 0 
L 18.3125 0 
L 43.21875 64.59375 
L 8.203125 64.59375 
z
" id="DejaVuSans-37"/>
      </defs>
      <g transform="translate(129.022894 266.598437)scale(0.1 -0.1)">
       <use xlink:href="#DejaVuSans-31"/>
       <use x="63.623047" xlink:href="#DejaVuSans-39"/>
       <use x="127.246094" xlink:href="#DejaVuSans-37"/>
       <use x="190.869141" xlink:href="#DejaVuSans-39"/>
      </g>
     </g>
    </g>
    <g id="xtick_3">
     <g id="line2d_3">
      <g>
       <use style="stroke:#000000;stroke-width:0.8;" x="204.424961" xlink:href="#m8237e79f8d" y="252"/>
      </g>
     </g>
     <g id="text_3">
      <!-- 1989 -->
      <defs>
       <path d="M 31.78125 34.625 
Q 24.75 34.625 20.71875 30.859375 
Q 16.703125 27.09375 16.703125 20.515625 
Q 16.703125 13.921875 20.71875 10.15625 
Q 24.75 6.390625 31.78125 6.390625 
Q 38.8125 6.390625 42.859375 10.171875 
Q 46.921875 13.96875 46.921875 20.515625 
Q 46.921875 27.09375 42.890625 30.859375 
Q 38.875 34.625 31.78125 34.625 
z
M 21.921875 38.8125 
Q 15.578125 40.375 12.03125 44.71875 
Q 8.5 49.078125 8.5 55.328125 
Q 8.5 64.0625 14.71875 69.140625 
Q 20.953125 74.21875 31.78125 74.21875 
Q 42.671875 74.21875 48.875 69.140625 
Q 55.078125 64.0625 55.078125 55.328125 
Q 55.078125 49.078125 51.53125 44.71875 
Q 48 40.375 41.703125 38.8125 
Q 48.828125 37.15625 52.796875 32.3125 
Q 56.78125 27.484375 56.78125 20.515625 
Q 56.78125 9.90625 50.3125 4.234375 
Q 43.84375 -1.421875 31.78125 -1.421875 
Q 19.734375 -1.421875 13.25 4.234375 
Q 6.78125 9.90625 6.78125 20.515625 
Q 6.78125 27.484375 10.78125 32.3125 
Q 14.796875 37.15625 21.921875 38.8125 
z
M 18.3125 54.390625 
Q 18.3125 48.734375 21.84375 45.5625 
Q 25.390625 42.390625 31.78125 42.390625 
Q 38.140625 42.390625 41.71875 45.5625 
Q 45.3125 48.734375 45.3125 54.390625 
Q 45.3125 60.0625 41.71875 63.234375 
Q 38.140625 66.40625 31.78125 66.40625 
Q 25.390625 66.40625 21.84375 63.234375 
Q 18.3125 60.0625 18.3125 54.390625 
z
" id="DejaVuSans-38"/>
      </defs>
      <g transform="translate(191.699961 266.598437)scale(0.1 -0.1)">
       <use xlink:href="#DejaVuSans-31"/>
       <use x="63.623047" xlink:href="#DejaVuSans-39"/>
       <use x="127.246094" xlink:href="#DejaVuSans-38"/>
       <use x="190.869141" xlink:href="#DejaVuSans-39"/>
      </g>
     </g>
    </g>
    <g id="xtick_4">
     <g id="line2d_4">
      <g>
       <use style="stroke:#000000;stroke-width:0.8;" x="267.102028" xlink:href="#m8237e79f8d" y="252"/>
      </g>
     </g>
     <g id="text_4">
      <!-- 1999 -->
      <g transform="translate(254.377028 266.598437)scale(0.1 -0.1)">
       <use xlink:href="#DejaVuSans-31"/>
       <use x="63.623047" xlink:href="#DejaVuSans-39"/>
       <use x="127.246094" xlink:href="#DejaVuSans-39"/>
       <use x="190.869141" xlink:href="#DejaVuSans-39"/>
      </g>
     </g>
    </g>
    <g id="xtick_5">
     <g id="line2d_5">
      <g>
       <use style="stroke:#000000;stroke-width:0.8;" x="329.779095" xlink:href="#m8237e79f8d" y="252"/>
      </g>
     </g>
     <g id="text_5">
      <!-- 2009 -->
      <defs>
       <path d="M 19.1875 8.296875 
L 53.609375 8.296875 
L 53.609375 0 
L 7.328125 0 
L 7.328125 8.296875 
Q 12.9375 14.109375 22.625 23.890625 
Q 32.328125 33.6875 34.8125 36.53125 
Q 39.546875 41.84375 41.421875 45.53125 
Q 43.3125 49.21875 43.3125 52.78125 
Q 43.3125 58.59375 39.234375 62.25 
Q 35.15625 65.921875 28.609375 65.921875 
Q 23.96875 65.921875 18.8125 64.3125 
Q 13.671875 62.703125 7.8125 59.421875 
L 7.8125 69.390625 
Q 13.765625 71.78125 18.9375 73 
Q 24.125 74.21875 28.421875 74.21875 
Q 39.75 74.21875 46.484375 68.546875 
Q 53.21875 62.890625 53.21875 53.421875 
Q 53.21875 48.921875 51.53125 44.890625 
Q 49.859375 40.875 45.40625 35.40625 
Q 44.1875 33.984375 37.640625 27.21875 
Q 31.109375 20.453125 19.1875 8.296875 
z
" id="DejaVuSans-32"/>
       <path d="M 31.78125 66.40625 
Q 24.171875 66.40625 20.328125 58.90625 
Q 16.5 51.421875 16.5 36.375 
Q 16.5 21.390625 20.328125 13.890625 
Q 24.171875 6.390625 31.78125 6.390625 
Q 39.453125 6.390625 43.28125 13.890625 
Q 47.125 21.390625 47.125 36.375 
Q 47.125 51.421875 43.28125 58.90625 
Q 39.453125 66.40625 31.78125 66.40625 
z
M 31.78125 74.21875 
Q 44.046875 74.21875 50.515625 64.515625 
Q 56.984375 54.828125 56.984375 36.375 
Q 56.984375 17.96875 50.515625 8.265625 
Q 44.046875 -1.421875 31.78125 -1.421875 
Q 19.53125 -1.421875 13.0625 8.265625 
Q 6.59375 17.96875 6.59375 36.375 
Q 6.59375 54.828125 13.0625 64.515625 
Q 19.53125 74.21875 31.78125 74.21875 
z
" id="DejaVuSans-30"/>
      </defs>
      <g transform="translate(317.054095 266.598437)scale(0.1 -0.1)">
       <use xlink:href="#DejaVuSans-32"/>
       <use x="63.623047" xlink:href="#DejaVuSans-30"/>
       <use x="127.246094" xlink:href="#DejaVuSans-30"/>
       <use x="190.869141" xlink:href="#DejaVuSans-39"/>
      </g>
     </g>
    </g>
    <g id="xtick_6">
     <g id="line2d_6">
      <defs>
       <path d="M 0 0 
L 0 2 
" id="m5af1f2a635" style="stroke:#000000;stroke-width:0.6;"/>
      </defs>
      <g>
       <use style="stroke:#000000;stroke-width:0.6;" x="79.070827" xlink:href="#m5af1f2a635" y="252"/>
      </g>
     </g>
    </g>
    <g id="xtick_7">
     <g id="line2d_7">
      <g>
       <use style="stroke:#000000;stroke-width:0.6;" x="110.40936" xlink:href="#m5af1f2a635" y="252"/>
      </g>
     </g>
    </g>
    <g id="xtick_8">
     <g id="line2d_8">
      <g>
       <use style="stroke:#000000;stroke-width:0.6;" x="141.747894" xlink:href="#m5af1f2a635" y="252"/>
      </g>
     </g>
    </g>
    <g id="xtick_9">
     <g id="line2d_9">
      <g>
       <use style="stroke:#000000;stroke-width:0.6;" x="173.086427" xlink:href="#m5af1f2a635" y="252"/>
      </g>
     </g>
    </g>
    <g id="xtick_10">
     <g id="line2d_10">
      <g>
       <use style="stroke:#000000;stroke-width:0.6;" x="204.424961" xlink:href="#m5af1f2a635" y="252"/>
      </g>
     </g>
    </g>
    <g id="xtick_11">
     <g id="line2d_11">
      <g>
       <use style="stroke:#000000;stroke-width:0.6;" x="235.763495" xlink:href="#m5af1f2a635" y="252"/>
      </g>
     </g>
    </g>
    <g id="xtick_12">
     <g id="line2d_12">
      <g>
       <use style="stroke:#000000;stroke-width:0.6;" x="267.102028" xlink:href="#m5af1f2a635" y="252"/>
      </g>
     </g>
    </g>
    <g id="xtick_13">
     <g id="line2d_13">
      <g>
       <use style="stroke:#000000;stroke-width:0.6;" x="298.440562" xlink:href="#m5af1f2a635" y="252"/>
      </g>
     </g>
    </g>
    <g id="xtick_14">
     <g id="line2d_14">
      <g>
       <use style="stroke:#000000;stroke-width:0.6;" x="329.779095" xlink:href="#m5af1f2a635" y="252"/>
      </g>
     </g>
    </g>
    <g id="xtick_15">
     <g id="line2d_15">
      <g>
       <use style="stroke:#000000;stroke-width:0.6;" x="361.117629" xlink:href="#m5af1f2a635" y="252"/>
      </g>
     </g>
    </g>
    <g id="text_6">
     <!-- coerced_date -->
     <defs>
      <path d="M 48.78125 52.59375 
L 48.78125 44.1875 
Q 44.96875 46.296875 41.140625 47.34375 
Q 37.3125 48.390625 33.40625 48.390625 
Q 24.65625 48.390625 19.8125 42.84375 
Q 14.984375 37.3125 14.984375 27.296875 
Q 14.984375 17.28125 19.8125 11.734375 
Q 24.65625 6.203125 33.40625 6.203125 
Q 37.3125 6.203125 41.140625 7.25 
Q 44.96875 8.296875 48.78125 10.40625 
L 48.78125 2.09375 
Q 45.015625 0.34375 40.984375 -0.53125 
Q 36.96875 -1.421875 32.421875 -1.421875 
Q 20.0625 -1.421875 12.78125 6.34375 
Q 5.515625 14.109375 5.515625 27.296875 
Q 5.515625 40.671875 12.859375 48.328125 
Q 20.21875 56 33.015625 56 
Q 37.15625 56 41.109375 55.140625 
Q 45.0625 54.296875 48.78125 52.59375 
z
" id="DejaVuSans-63"/>
      <path d="M 30.609375 48.390625 
Q 23.390625 48.390625 19.1875 42.75 
Q 14.984375 37.109375 14.984375 27.296875 
Q 14.984375 17.484375 19.15625 11.84375 
Q 23.34375 6.203125 30.609375 6.203125 
Q 37.796875 6.203125 41.984375 11.859375 
Q 46.1875 17.53125 46.1875 27.296875 
Q 46.1875 37.015625 41.984375 42.703125 
Q 37.796875 48.390625 30.609375 48.390625 
z
M 30.609375 56 
Q 42.328125 56 49.015625 48.375 
Q 55.71875 40.765625 55.71875 27.296875 
Q 55.71875 13.875 49.015625 6.21875 
Q 42.328125 -1.421875 30.609375 -1.421875 
Q 18.84375 -1.421875 12.171875 6.21875 
Q 5.515625 13.875 5.515625 27.296875 
Q 5.515625 40.765625 12.171875 48.375 
Q 18.84375 56 30.609375 56 
z
" id="DejaVuSans-6f"/>
      <path d="M 56.203125 29.59375 
L 56.203125 25.203125 
L 14.890625 25.203125 
Q 15.484375 15.921875 20.484375 11.0625 
Q 25.484375 6.203125 34.421875 6.203125 
Q 39.59375 6.203125 44.453125 7.46875 
Q 49.3125 8.734375 54.109375 11.28125 
L 54.109375 2.78125 
Q 49.265625 0.734375 44.1875 -0.34375 
Q 39.109375 -1.421875 33.890625 -1.421875 
Q 20.796875 -1.421875 13.15625 6.1875 
Q 5.515625 13.8125 5.515625 26.8125 
Q 5.515625 40.234375 12.765625 48.109375 
Q 20.015625 56 32.328125 56 
Q 43.359375 56 49.78125 48.890625 
Q 56.203125 41.796875 56.203125 29.59375 
z
M 47.21875 32.234375 
Q 47.125 39.59375 43.09375 43.984375 
Q 39.0625 48.390625 32.421875 48.390625 
Q 24.90625 48.390625 20.390625 44.140625 
Q 15.875 39.890625 15.1875 32.171875 
z
" id="DejaVuSans-65"/>
      <path d="M 41.109375 46.296875 
Q 39.59375 47.171875 37.8125 47.578125 
Q 36.03125 48 33.890625 48 
Q 26.265625 48 22.1875 43.046875 
Q 18.109375 38.09375 18.109375 28.8125 
L 18.109375 0 
L 9.078125 0 
L 9.078125 54.6875 
L 18.109375 54.6875 
L 18.109375 46.1875 
Q 20.953125 51.171875 25.484375 53.578125 
Q 30.03125 56 36.53125 56 
Q 37.453125 56 38.578125 55.875 
Q 39.703125 55.765625 41.0625 55.515625 
z
" id="DejaVuSans-72"/>
      <path d="M 45.40625 46.390625 
L 45.40625 75.984375 
L 54.390625 75.984375 
L 54.390625 0 
L 45.40625 0 
L 45.40625 8.203125 
Q 42.578125 3.328125 38.25 0.953125 
Q 33.9375 -1.421875 27.875 -1.421875 
Q 17.96875 -1.421875 11.734375 6.484375 
Q 5.515625 14.40625 5.515625 27.296875 
Q 5.515625 40.1875 11.734375 48.09375 
Q 17.96875 56 27.875 56 
Q 33.9375 56 38.25 53.625 
Q 42.578125 51.265625 45.40625 46.390625 
z
M 14.796875 27.296875 
Q 14.796875 17.390625 18.875 11.75 
Q 22.953125 6.109375 30.078125 6.109375 
Q 37.203125 6.109375 41.296875 11.75 
Q 45.40625 17.390625 45.40625 27.296875 
Q 45.40625 37.203125 41.296875 42.84375 
Q 37.203125 48.484375 30.078125 48.484375 
Q 22.953125 48.484375 18.875 42.84375 
Q 14.796875 37.203125 14.796875 27.296875 
z
" id="DejaVuSans-64"/>
      <path d="M 50.984375 -16.609375 
L 50.984375 -23.578125 
L -0.984375 -23.578125 
L -0.984375 -16.609375 
z
" id="DejaVuSans-5f"/>
      <path d="M 34.28125 27.484375 
Q 23.390625 27.484375 19.1875 25 
Q 14.984375 22.515625 14.984375 16.5 
Q 14.984375 11.71875 18.140625 8.90625 
Q 21.296875 6.109375 26.703125 6.109375 
Q 34.1875 6.109375 38.703125 11.40625 
Q 43.21875 16.703125 43.21875 25.484375 
L 43.21875 27.484375 
z
M 52.203125 31.203125 
L 52.203125 0 
L 43.21875 0 
L 43.21875 8.296875 
Q 40.140625 3.328125 35.546875 0.953125 
Q 30.953125 -1.421875 24.3125 -1.421875 
Q 15.921875 -1.421875 10.953125 3.296875 
Q 6 8.015625 6 15.921875 
Q 6 25.140625 12.171875 29.828125 
Q 18.359375 34.515625 30.609375 34.515625 
L 43.21875 34.515625 
L 43.21875 35.40625 
Q 43.21875 41.609375 39.140625 45 
Q 35.0625 48.390625 27.6875 48.390625 
Q 23 48.390625 18.546875 47.265625 
Q 14.109375 46.140625 10.015625 43.890625 
L 10.015625 52.203125 
Q 14.9375 54.109375 19.578125 55.046875 
Q 24.21875 56 28.609375 56 
Q 40.484375 56 46.34375 49.84375 
Q 52.203125 43.703125 52.203125 31.203125 
z
" id="DejaVuSans-61"/>
      <path d="M 18.3125 70.21875 
L 18.3125 54.6875 
L 36.8125 54.6875 
L 36.8125 47.703125 
L 18.3125 47.703125 
L 18.3125 18.015625 
Q 18.3125 11.328125 20.140625 9.421875 
Q 21.96875 7.515625 27.59375 7.515625 
L 36.8125 7.515625 
L 36.8125 0 
L 27.59375 0 
Q 17.1875 0 13.234375 3.875 
Q 9.28125 7.765625 9.28125 18.015625 
L 9.28125 47.703125 
L 2.6875 47.703125 
L 2.6875 54.6875 
L 9.28125 54.6875 
L 9.28125 70.21875 
z
" id="DejaVuSans-74"/>
     </defs>
     <g transform="translate(187.685937 280.276563)scale(0.1 -0.1)">
      <use xlink:href="#DejaVuSans-63"/>
      <use x="54.980469" xlink:href="#DejaVuSans-6f"/>
      <use x="116.162109" xlink:href="#DejaVuSans-65"/>
      <use x="177.685547" xlink:href="#DejaVuSans-72"/>
      <use x="218.767578" xlink:href="#DejaVuSans-63"/>
      <use x="273.748047" xlink:href="#DejaVuSans-65"/>
      <use x="335.271484" xlink:href="#DejaVuSans-64"/>
      <use x="398.748047" xlink:href="#DejaVuSans-5f"/>
      <use x="448.748047" xlink:href="#DejaVuSans-64"/>
      <use x="512.224609" xlink:href="#DejaVuSans-61"/>
      <use x="573.503906" xlink:href="#DejaVuSans-74"/>
      <use x="612.712891" xlink:href="#DejaVuSans-65"/>
     </g>
    </g>
   </g>
   <g id="matplotlib.axis_2">
    <g id="ytick_1">
     <g id="line2d_16">
      <defs>
       <path d="M 0 0 
L -3.5 0 
" id="m3f55806d1c" style="stroke:#000000;stroke-width:0.8;"/>
      </defs>
      <g>
       <use style="stroke:#000000;stroke-width:0.8;" x="54" xlink:href="#m3f55806d1c" y="252"/>
      </g>
     </g>
     <g id="text_7">
      <!-- 0 -->
      <g transform="translate(40.6375 255.799219)scale(0.1 -0.1)">
       <use xlink:href="#DejaVuSans-30"/>
      </g>
     </g>
    </g>
    <g id="ytick_2">
     <g id="line2d_17">
      <g>
       <use style="stroke:#000000;stroke-width:0.8;" x="54" xlink:href="#m3f55806d1c" y="215.940382"/>
      </g>
     </g>
     <g id="text_8">
      <!-- 2 -->
      <g transform="translate(40.6375 219.739601)scale(0.1 -0.1)">
       <use xlink:href="#DejaVuSans-32"/>
      </g>
     </g>
    </g>
    <g id="ytick_3">
     <g id="line2d_18">
      <g>
       <use style="stroke:#000000;stroke-width:0.8;" x="54" xlink:href="#m3f55806d1c" y="179.880764"/>
      </g>
     </g>
     <g id="text_9">
      <!-- 4 -->
      <defs>
       <path d="M 37.796875 64.3125 
L 12.890625 25.390625 
L 37.796875 25.390625 
z
M 35.203125 72.90625 
L 47.609375 72.90625 
L 47.609375 25.390625 
L 58.015625 25.390625 
L 58.015625 17.1875 
L 47.609375 17.1875 
L 47.609375 0 
L 37.796875 0 
L 37.796875 17.1875 
L 4.890625 17.1875 
L 4.890625 26.703125 
z
" id="DejaVuSans-34"/>
      </defs>
      <g transform="translate(40.6375 183.679982)scale(0.1 -0.1)">
       <use xlink:href="#DejaVuSans-34"/>
      </g>
     </g>
    </g>
    <g id="ytick_4">
     <g id="line2d_19">
      <g>
       <use style="stroke:#000000;stroke-width:0.8;" x="54" xlink:href="#m3f55806d1c" y="143.821146"/>
      </g>
     </g>
     <g id="text_10">
      <!-- 6 -->
      <g transform="translate(40.6375 147.620364)scale(0.1 -0.1)">
       <use xlink:href="#DejaVuSans-36"/>
      </g>
     </g>
    </g>
    <g id="ytick_5">
     <g id="line2d_20">
      <g>
       <use style="stroke:#000000;stroke-width:0.8;" x="54" xlink:href="#m3f55806d1c" y="107.761527"/>
      </g>
     </g>
     <g id="text_11">
      <!-- 8 -->
      <g transform="translate(40.6375 111.560746)scale(0.1 -0.1)">
       <use xlink:href="#DejaVuSans-38"/>
      </g>
     </g>
    </g>
    <g id="ytick_6">
     <g id="line2d_21">
      <g>
       <use style="stroke:#000000;stroke-width:0.8;" x="54" xlink:href="#m3f55806d1c" y="71.701909"/>
      </g>
     </g>
     <g id="text_12">
      <!-- 10 -->
      <g transform="translate(34.275 75.501128)scale(0.1 -0.1)">
       <use xlink:href="#DejaVuSans-31"/>
       <use x="63.623047" xlink:href="#DejaVuSans-30"/>
      </g>
     </g>
    </g>
    <g id="ytick_7">
     <g id="line2d_22">
      <g>
       <use style="stroke:#000000;stroke-width:0.8;" x="54" xlink:href="#m3f55806d1c" y="35.642291"/>
      </g>
     </g>
     <g id="text_13">
      <!-- 12 -->
      <g transform="translate(34.275 39.44151)scale(0.1 -0.1)">
       <use xlink:href="#DejaVuSans-31"/>
       <use x="63.623047" xlink:href="#DejaVuSans-32"/>
      </g>
     </g>
    </g>
   </g>
   <g id="line2d_23">
    <path clip-path="url(#pd29f9bd5ff)" d="M 60.267707 73.936535 
L 60.790016 75.046611 
L 61.834633 76.14307 
L 62.356942 76.52358 
L 62.879251 76.686152 
L 63.40156 77.064318 
L 63.923869 78.135856 
L 64.968487 79.19448 
L 66.013105 79.561913 
L 66.535413 79.457092 
L 67.057722 59.337519 
L 67.580031 59.337519 
L 68.10234 59.919558 
L 68.624649 59.919558 
L 69.146958 61.073148 
L 71.236193 63.339393 
L 71.758502 64.45239 
L 72.80312 65.55247 
L 73.325429 39.540133 
L 74.892356 41.387536 
L 75.936973 43.801487 
L 76.981591 44.987755 
L 77.5039 46.160729 
L 78.026209 46.742173 
L 78.548518 47.89526 
L 79.593136 49.035464 
L 80.115445 50.722223 
L 80.637754 51.831147 
L 81.160062 52.38104 
L 82.20468 54.55086 
L 82.726989 55.085931 
L 86.383151 62.283804 
L 86.90546 63.269427 
L 87.427769 63.758347 
L 87.950078 64.728626 
L 88.994696 65.689073 
L 91.083931 69.433983 
L 91.60624 69.891523 
L 92.128549 69.891523 
L 93.173167 70.799759 
L 94.217785 72.589431 
L 97.873947 75.637655 
L 98.396256 76.489613 
L 98.918565 76.489613 
L 101.530109 78.58403 
L 102.052418 79.407826 
L 102.574727 79.816899 
L 103.097036 80.62905 
L 103.619345 81.03226 
L 104.141654 81.833013 
L 104.663963 83.020277 
L 105.186271 84.577728 
L 105.70858 85.727034 
L 106.230889 86.484511 
L 106.753198 87.607968 
L 107.275507 87.607968 
L 107.797816 90.530468 
L 108.320125 91.244906 
L 108.842434 92.65507 
L 109.364743 93.696586 
L 110.40936 96.740844 
L 111.453978 99.988976 
L 111.976287 100.937031 
L 112.498596 65.113991 
L 113.020905 66.639625 
L 113.543214 67.767533 
L 114.587832 72.500771 
L 115.11014 73.908639 
L 116.154758 76.996891 
L 116.677067 69.652146 
L 117.199376 70.692111 
L 118.243994 72.060503 
L 118.766303 72.399358 
L 119.288612 73.742197 
L 119.81092 75.392748 
L 120.333229 76.044409 
L 120.855538 77.33349 
L 121.377847 78.287913 
L 121.900156 79.544449 
L 122.422465 80.474927 
L 122.944774 64.812515 
L 124.5117 65.813561 
L 127.645554 71.601749 
L 128.167863 72.222716 
L 129.21248 74.060306 
L 129.734789 75.860711 
L 130.257098 76.747357 
L 130.779407 77.915661 
L 131.301716 78.493991 
L 132.868643 81.049765 
L 133.390952 81.607492 
L 133.913261 82.437362 
L 134.435569 83.531271 
L 134.957878 84.342552 
L 135.480187 60.06176 
L 136.002496 60.975792 
L 136.524805 62.181019 
L 140.180967 72.647941 
L 141.225585 74.761053 
L 141.747894 59.739317 
L 146.448674 76.86894 
L 147.493292 80.740456 
L 148.015601 71.511232 
L 149.582527 77.981182 
L 150.627145 81.356062 
L 151.149454 81.562645 
L 152.194072 84.203506 
L 153.760998 89.058729 
L 154.283307 77.533769 
L 154.805616 79.119811 
L 156.894852 83.895507 
L 157.417161 85.732732 
L 157.93947 86.99506 
L 158.461778 88.590147 
L 158.984087 89.115041 
L 160.028705 90.326719 
L 161.073323 91.35105 
L 161.595632 91.35105 
L 162.117941 91.858342 
L 163.162559 95.160224 
L 163.684867 95.964539 
L 164.207176 96.283983 
L 164.729485 96.283983 
L 165.251794 96.918885 
L 165.774103 96.760646 
L 166.296412 96.283983 
L 166.818721 96.602083 
L 167.863339 96.918885 
L 168.385647 98.017634 
L 168.907956 98.638544 
L 169.430265 98.947106 
L 170.474883 100.017402 
L 172.564119 101.965931 
L 173.086427 102.994563 
L 173.608736 103.720681 
L 175.175663 105.010087 
L 175.697972 105.293566 
L 176.74259 106.277226 
L 178.309516 107.522739 
L 179.354134 108.069461 
L 180.398752 109.5519 
L 181.44337 110.083435 
L 182.487988 110.742293 
L 183.532605 111.264964 
L 184.577223 112.427015 
L 185.621841 113.570001 
L 186.14415 113.317632 
L 186.666459 112.554941 
L 187.188768 112.041792 
L 188.755694 113.064341 
L 189.278003 113.191102 
L 189.800312 113.695841 
L 190.84493 114.196954 
L 191.367239 114.694449 
L 191.889548 115.433978 
L 196.590328 119.709065 
L 197.112637 120.167623 
L 197.634945 120.395698 
L 198.157254 120.849516 
L 199.201872 121.412399 
L 199.724181 122.192356 
L 200.24649 122.523766 
L 202.858034 125.115455 
L 204.94727 126.889341 
L 205.469579 127.503633 
L 205.991888 128.413831 
L 206.514197 129.01328 
L 207.558814 129.803574 
L 208.081123 129.803574 
L 208.603432 130.097304 
L 209.64805 131.162385 
L 210.170359 131.545069 
L 210.692668 132.678765 
L 211.737285 133.699403 
L 212.259594 118.120607 
L 212.781903 118.328003 
L 213.304212 119.151226 
L 213.826521 119.762026 
L 214.871139 121.758066 
L 215.393448 122.636773 
L 215.915757 122.927031 
L 216.960374 123.885266 
L 218.004992 123.980302 
L 218.527301 109.138031 
L 219.571919 110.083429 
L 220.094228 110.291815 
L 221.138846 111.119327 
L 221.661154 111.324684 
L 222.183463 111.937205 
L 222.705772 112.342605 
L 223.228081 112.443583 
L 223.75039 112.745641 
L 224.272699 113.246201 
L 225.839626 114.236602 
L 226.884243 114.921502 
L 227.406552 115.21294 
L 227.928861 115.792138 
L 228.45117 116.175561 
L 228.973479 116.366452 
L 229.495788 116.841364 
L 231.062715 117.781257 
L 231.585023 118.153578 
L 232.629641 118.431472 
L 233.674259 118.892034 
L 234.196568 119.440557 
L 235.241186 120.07481 
L 235.763495 120.07481 
L 236.808112 120.792298 
L 237.330421 120.88143 
L 238.375039 121.502002 
L 239.941966 122.725689 
L 240.464275 122.812214 
L 242.55351 124.0964 
L 243.075819 124.350167 
L 243.598128 124.854712 
L 245.687363 125.769432 
L 246.209672 125.934325 
L 246.731981 126.262842 
L 247.776599 126.589652 
L 248.298908 127.23818 
L 248.821217 127.479645 
L 250.388144 128.594292 
L 252.477379 129.611586 
L 252.999688 115.645276 
L 254.044306 116.416601 
L 255.088924 116.925994 
L 257.178159 117.347578 
L 257.700468 117.515467 
L 258.222777 117.850013 
L 258.745086 106.914068 
L 259.789704 107.362699 
L 262.401248 107.808565 
L 262.923557 108.163287 
L 263.445866 108.339984 
L 263.968175 108.692099 
L 266.05741 109.478056 
L 267.102028 109.997263 
L 268.146646 110.083426 
L 268.668955 111.024409 
L 269.713573 111.10933 
L 270.235881 111.70095 
L 270.75819 112.036802 
L 271.280499 112.620675 
L 272.847426 113.44639 
L 273.369735 113.855569 
L 273.892044 114.424397 
L 274.414353 115.22894 
L 274.936661 115.148914 
L 275.45897 115.388713 
L 275.981279 116.18205 
L 276.503588 116.575274 
L 277.025897 116.575274 
L 277.548206 117.277352 
L 279.115133 118.048967 
L 279.637441 118.811774 
L 280.15975 119.114482 
L 280.682059 119.189939 
L 281.204368 119.415816 
L 281.726677 120.088824 
L 282.248986 120.385761 
L 282.771295 120.163179 
L 283.293604 120.163179 
L 283.815913 120.681345 
L 284.338222 120.311657 
L 285.382839 120.163179 
L 286.427457 120.607574 
L 286.949766 120.975623 
L 287.472075 121.560222 
L 289.039002 122.067486 
L 289.56131 122.427413 
L 291.650546 123.353948 
L 292.695164 124.615186 
L 293.217473 124.823001 
L 293.739782 124.337065 
L 294.26209 124.127658 
L 294.784399 124.267327 
L 296.351326 125.647488 
L 296.873635 125.510806 
L 297.395944 125.579193 
L 297.918253 125.919936 
L 298.440562 126.461354 
L 300.007488 127.198228 
L 301.052106 128.189253 
L 302.096724 128.385562 
L 302.619033 128.776335 
L 303.663651 129.997644 
L 304.708268 129.933971 
L 305.752886 130.882173 
L 306.275195 131.257345 
L 306.797504 131.19498 
L 307.319813 131.257345 
L 308.364431 132.735075 
L 308.886739 134.35488 
L 309.409048 134.532138 
L 309.931357 133.939175 
L 310.453666 133.939175 
L 310.975975 134.650014 
L 311.498284 134.708878 
L 312.020593 134.885072 
L 312.542902 135.46861 
L 313.58752 136.103805 
L 314.632137 137.241168 
L 315.676755 136.16122 
L 316.199064 136.218563 
L 316.721373 136.845645 
L 317.243682 137.036395 
L 317.765991 137.480548 
L 318.2883 138.072981 
L 319.855226 139.142791 
L 320.377535 124.03084 
L 320.899844 124.070279 
L 321.944462 125.001659 
L 322.466771 125.99195 
L 325.078315 127.822498 
L 325.600624 128.553006 
L 326.122933 129.833098 
L 326.645242 116.184744 
L 327.167551 115.982296 
L 327.68986 116.098501 
L 328.212168 114.919817 
L 328.734477 112.449009 
L 329.256786 111.290462 
L 329.779095 111.645678 
L 330.301404 112.155075 
L 330.823713 112.016878 
L 331.868331 112.363189 
L 332.39064 113.512574 
L 332.912949 98.666701 
L 333.435257 99.178427 
L 333.957566 99.472942 
L 335.002184 100.436965 
L 336.046802 100.613969 
L 336.569111 100.46975 
L 337.613729 100.554791 
L 338.658346 100.412534 
L 340.225273 101.159795 
L 343.359126 104.386309 
L 343.881435 105.075975 
L 344.403744 105.541975 
L 344.926053 105.541975 
L 346.49298 106.699555 
L 347.015289 106.797592 
L 347.537598 107.06541 
L 348.059906 107.099855 
L 349.104524 107.801736 
L 350.149142 108.341567 
L 350.671451 108.043848 
L 351.19376 107.924783 
L 351.716069 107.966377 
L 352.760686 109.47833 
L 353.282995 109.861646 
L 353.805304 109.622544 
L 354.327613 109.605297 
L 354.849922 109.886804 
L 355.372231 110.654291 
L 356.416849 109.959137 
L 356.939158 110.017949 
L 358.506084 110.968517 
L 359.550702 111.097082 
L 360.59532 111.727392 
L 361.117629 112.066627 
L 361.639938 112.220482 
L 363.206864 113.029362 
L 364.251482 113.368747 
L 365.818409 113.329053 
L 366.340718 113.067485 
L 366.863027 112.637604 
L 367.385335 111.726805 
L 367.907644 112.035686 
L 368.429953 112.491754 
L 368.952262 112.580957 
L 369.99688 113.47724 
L 370.519189 113.691962 
L 371.041498 113.677429 
L 371.563807 113.373422 
L 372.608424 113.670462 
L 373.130733 113.554705 
L 373.653042 113.564015 
L 374.175351 113.351822 
L 375.219969 114.140196 
L 376.264587 114.909376 
L 376.786895 114.89967 
L 378.876131 115.964049 
L 379.39844 116.380395 
L 379.920749 116.941162 
L 380.443058 117.041365 
L 380.965367 116.923982 
L 381.487676 117.091132 
L 382.009984 117.041908 
L 383.054602 117.27827 
L 384.09922 118.387021 
L 384.621529 118.478586 
L 386.710764 119.968174 
L 387.233073 120.036433 
L 388.277691 120.640855 
L 389.844618 121.283884 
L 390.366927 121.351834 
L 390.889236 121.757018 
L 392.456162 121.694646 
L 392.978471 121.921166 
L 394.023089 122.862474 
L 394.023089 122.862474 
" style="fill:none;stroke:#1f77b4;stroke-linecap:square;stroke-width:1.5;"/>
   </g>
   <g id="patch_3">
    <path d="M 54 252 
L 54 34.56 
" style="fill:none;stroke:#000000;stroke-linecap:square;stroke-linejoin:miter;stroke-width:0.8;"/>
   </g>
   <g id="patch_4">
    <path d="M 388.8 252 
L 388.8 34.56 
" style="fill:none;stroke:#000000;stroke-linecap:square;stroke-linejoin:miter;stroke-width:0.8;"/>
   </g>
   <g id="patch_5">
    <path d="M 54 252 
L 388.8 252 
" style="fill:none;stroke:#000000;stroke-linecap:square;stroke-linejoin:miter;stroke-width:0.8;"/>
   </g>
   <g id="patch_6">
    <path d="M 54 34.56 
L 388.8 34.56 
" style="fill:none;stroke:#000000;stroke-linecap:square;stroke-linejoin:miter;stroke-width:0.8;"/>
   </g>
   <g id="legend_1">
    <g id="patch_7">
     <path d="M 299.135938 57.51625 
L 381.8 57.51625 
Q 383.8 57.51625 383.8 55.51625 
L 383.8 41.56 
Q 383.8 39.56 381.8 39.56 
L 299.135938 39.56 
Q 297.135938 39.56 297.135938 41.56 
L 297.135938 55.51625 
Q 297.135938 57.51625 299.135938 57.51625 
z
" style="fill:#ffffff;opacity:0.8;stroke:#cccccc;stroke-linejoin:miter;"/>
    </g>
    <g id="line2d_24">
     <path d="M 301.135938 47.658438 
L 321.135938 47.658438 
" style="fill:none;stroke:#1f77b4;stroke-linecap:square;stroke-width:1.5;"/>
    </g>
    <g id="line2d_25"/>
    <g id="text_14">
     <!-- min_wage -->
     <defs>
      <path d="M 52 44.1875 
Q 55.375 50.25 60.0625 53.125 
Q 64.75 56 71.09375 56 
Q 79.640625 56 84.28125 50.015625 
Q 88.921875 44.046875 88.921875 33.015625 
L 88.921875 0 
L 79.890625 0 
L 79.890625 32.71875 
Q 79.890625 40.578125 77.09375 44.375 
Q 74.3125 48.1875 68.609375 48.1875 
Q 61.625 48.1875 57.5625 43.546875 
Q 53.515625 38.921875 53.515625 30.90625 
L 53.515625 0 
L 44.484375 0 
L 44.484375 32.71875 
Q 44.484375 40.625 41.703125 44.40625 
Q 38.921875 48.1875 33.109375 48.1875 
Q 26.21875 48.1875 22.15625 43.53125 
Q 18.109375 38.875 18.109375 30.90625 
L 18.109375 0 
L 9.078125 0 
L 9.078125 54.6875 
L 18.109375 54.6875 
L 18.109375 46.1875 
Q 21.1875 51.21875 25.484375 53.609375 
Q 29.78125 56 35.6875 56 
Q 41.65625 56 45.828125 52.96875 
Q 50 49.953125 52 44.1875 
z
" id="DejaVuSans-6d"/>
      <path d="M 9.421875 54.6875 
L 18.40625 54.6875 
L 18.40625 0 
L 9.421875 0 
z
M 9.421875 75.984375 
L 18.40625 75.984375 
L 18.40625 64.59375 
L 9.421875 64.59375 
z
" id="DejaVuSans-69"/>
      <path d="M 54.890625 33.015625 
L 54.890625 0 
L 45.90625 0 
L 45.90625 32.71875 
Q 45.90625 40.484375 42.875 44.328125 
Q 39.84375 48.1875 33.796875 48.1875 
Q 26.515625 48.1875 22.3125 43.546875 
Q 18.109375 38.921875 18.109375 30.90625 
L 18.109375 0 
L 9.078125 0 
L 9.078125 54.6875 
L 18.109375 54.6875 
L 18.109375 46.1875 
Q 21.34375 51.125 25.703125 53.5625 
Q 30.078125 56 35.796875 56 
Q 45.21875 56 50.046875 50.171875 
Q 54.890625 44.34375 54.890625 33.015625 
z
" id="DejaVuSans-6e"/>
      <path d="M 4.203125 54.6875 
L 13.1875 54.6875 
L 24.421875 12.015625 
L 35.59375 54.6875 
L 46.1875 54.6875 
L 57.421875 12.015625 
L 68.609375 54.6875 
L 77.59375 54.6875 
L 63.28125 0 
L 52.6875 0 
L 40.921875 44.828125 
L 29.109375 0 
L 18.5 0 
z
" id="DejaVuSans-77"/>
      <path d="M 45.40625 27.984375 
Q 45.40625 37.75 41.375 43.109375 
Q 37.359375 48.484375 30.078125 48.484375 
Q 22.859375 48.484375 18.828125 43.109375 
Q 14.796875 37.75 14.796875 27.984375 
Q 14.796875 18.265625 18.828125 12.890625 
Q 22.859375 7.515625 30.078125 7.515625 
Q 37.359375 7.515625 41.375 12.890625 
Q 45.40625 18.265625 45.40625 27.984375 
z
M 54.390625 6.78125 
Q 54.390625 -7.171875 48.1875 -13.984375 
Q 42 -20.796875 29.203125 -20.796875 
Q 24.46875 -20.796875 20.265625 -20.09375 
Q 16.0625 -19.390625 12.109375 -17.921875 
L 12.109375 -9.1875 
Q 16.0625 -11.328125 19.921875 -12.34375 
Q 23.78125 -13.375 27.78125 -13.375 
Q 36.625 -13.375 41.015625 -8.765625 
Q 45.40625 -4.15625 45.40625 5.171875 
L 45.40625 9.625 
Q 42.625 4.78125 38.28125 2.390625 
Q 33.9375 0 27.875 0 
Q 17.828125 0 11.671875 7.65625 
Q 5.515625 15.328125 5.515625 27.984375 
Q 5.515625 40.671875 11.671875 48.328125 
Q 17.828125 56 27.875 56 
Q 33.9375 56 38.28125 53.609375 
Q 42.625 51.21875 45.40625 46.390625 
L 45.40625 54.6875 
L 54.390625 54.6875 
z
" id="DejaVuSans-67"/>
     </defs>
     <g transform="translate(329.135938 51.158438)scale(0.1 -0.1)">
      <use xlink:href="#DejaVuSans-6d"/>
      <use x="97.412109" xlink:href="#DejaVuSans-69"/>
      <use x="125.195312" xlink:href="#DejaVuSans-6e"/>
      <use x="188.574219" xlink:href="#DejaVuSans-5f"/>
      <use x="238.574219" xlink:href="#DejaVuSans-77"/>
      <use x="320.361328" xlink:href="#DejaVuSans-61"/>
      <use x="381.640625" xlink:href="#DejaVuSans-67"/>
      <use x="445.117188" xlink:href="#DejaVuSans-65"/>
     </g>
    </g>
   </g>
  </g>
 </g>
 <defs>
  <clipPath id="pd29f9bd5ff">
   <rect height="217.44" width="334.8" x="54" y="34.56"/>
  </clipPath>
 </defs>
</svg>
