<?xml version="1.0" encoding="utf-8"?>
<!-- Generator: Adobe Illustrator 21.0.2, SVG Export Plug-In . SVG Version: 6.00 Build 0)  -->
<svg version="1.1" id="Layer_1" xmlns="http://www.w3.org/2000/svg" xmlns:xlink="http://www.w3.org/1999/xlink" x="0px" y="0px"
	 viewBox="0 0 432 288" style="enable-background:new 0 0 432 288;" xml:space="preserve">
<style type="text/css">
	.st0{stroke:#000000;stroke-width:0.8;stroke-linejoin:round;}
	.st1{stroke:#000000;stroke-width:0.6;stroke-linejoin:round;}
	.st2{clip-path:url(#SVGID_2_);fill:none;stroke:#1F77B4;stroke-width:1.5;stroke-linecap:square;stroke-linejoin:round;}
	.st3{fill:none;stroke:#000000;stroke-width:0.8;stroke-linecap:square;}
</style>
<g>
	<path id="m8237e79f8d" class="st0" d="M79.1,252v3.5"/>
</g>
<g>
	<path id="DejaVuSans-31" d="M67.6,265.8h1.6v-5.6l-1.8,0.4v-0.9l1.7-0.4h1v6.5h1.6v0.8h-4.2v-0.8H67.6z"/>
</g>
<g>
	<path id="DejaVuSans-39" d="M73.8,266.4v-0.9c0.2,0.1,0.5,0.2,0.8,0.3c0.3,0.1,0.5,0.1,0.7,0.1c0.7,0,1.1-0.2,1.5-0.7
		c0.3-0.4,0.5-1.1,0.6-2c-0.2,0.3-0.4,0.5-0.7,0.6c-0.3,0.1-0.6,0.2-1,0.2c-0.7,0-1.3-0.2-1.7-0.7c-0.4-0.4-0.6-1-0.6-1.8
		c0-0.7,0.2-1.3,0.7-1.8c0.4-0.5,1-0.7,1.8-0.7s1.5,0.3,1.9,1c0.4,0.6,0.7,1.6,0.7,2.8c0,1.1-0.3,2.1-0.8,2.8c-0.5,0.7-1.3,1-2.2,1
		c-0.2,0-0.5,0-0.8-0.1C74.3,266.6,74.1,266.5,73.8,266.4z M75.8,263.4c0.4,0,0.8-0.2,1.1-0.5c0.3-0.3,0.4-0.7,0.4-1.2
		s-0.1-0.9-0.4-1.2c-0.3-0.3-0.6-0.5-1.1-0.5c-0.4,0-0.8,0.2-1.1,0.5s-0.4,0.7-0.4,1.2s0.1,0.9,0.4,1.2
		C75,263.2,75.3,263.4,75.8,263.4z"/>
</g>
<g>
	<path id="DejaVuSans-36" d="M82.4,262.6c-0.4,0-0.8,0.2-1.1,0.5c-0.3,0.3-0.4,0.7-0.4,1.2s0.1,0.9,0.4,1.2c0.3,0.3,0.6,0.5,1.1,0.5
		c0.4,0,0.8-0.2,1.1-0.5c0.3-0.3,0.4-0.7,0.4-1.2s-0.1-0.9-0.4-1.2C83.2,262.7,82.8,262.6,82.4,262.6z M84.3,259.5v0.9
		c-0.2-0.1-0.5-0.2-0.8-0.3c-0.3-0.1-0.5-0.1-0.8-0.1c-0.7,0-1.1,0.2-1.5,0.7c-0.3,0.4-0.5,1.1-0.6,2c0.2-0.3,0.4-0.5,0.7-0.7
		c0.3-0.2,0.6-0.2,1-0.2c0.7,0,1.3,0.2,1.7,0.7c0.4,0.4,0.6,1,0.6,1.8c0,0.7-0.2,1.3-0.7,1.8c-0.4,0.5-1,0.7-1.8,0.7s-1.5-0.3-1.9-1
		c-0.4-0.6-0.7-1.6-0.7-2.8c0-1.2,0.3-2.1,0.8-2.8c0.5-0.7,1.3-1,2.2-1c0.2,0,0.5,0,0.8,0.1C83.8,259.3,84.1,259.4,84.3,259.5z"/>
</g>
<g>
	<path id="DejaVuSans-39_1_" d="M86.5,266.4v-0.9c0.2,0.1,0.5,0.2,0.8,0.3c0.3,0.1,0.5,0.1,0.7,0.1c0.7,0,1.1-0.2,1.5-0.7
		c0.3-0.4,0.5-1.1,0.6-2c-0.2,0.3-0.4,0.5-0.7,0.6c-0.3,0.1-0.6,0.2-1,0.2c-0.7,0-1.3-0.2-1.7-0.7c-0.4-0.4-0.6-1-0.6-1.8
		c0-0.7,0.2-1.3,0.7-1.8c0.4-0.5,1-0.7,1.8-0.7s1.5,0.3,1.9,1c0.4,0.6,0.7,1.6,0.7,2.8c0,1.1-0.3,2.1-0.8,2.8c-0.5,0.7-1.3,1-2.2,1
		c-0.2,0-0.5,0-0.8-0.1C87.1,266.6,86.8,266.5,86.5,266.4z M88.5,263.4c0.4,0,0.8-0.2,1.1-0.5c0.3-0.3,0.4-0.7,0.4-1.2
		s-0.1-0.9-0.4-1.2c-0.3-0.3-0.6-0.5-1.1-0.5c-0.4,0-0.8,0.2-1.1,0.5s-0.4,0.7-0.4,1.2s0.1,0.9,0.4,1.2
		C87.7,263.2,88.1,263.4,88.5,263.4z"/>
</g>
<g>
	<path id="m8237e79f8d_1_" class="st0" d="M141.7,252v3.5"/>
</g>
<g>
	<path id="DejaVuSans-31_1_" d="M130.3,265.8h1.6v-5.6l-1.8,0.4v-0.9l1.7-0.4h1v6.5h1.6v0.8h-4.2L130.3,265.8L130.3,265.8z"/>
</g>
<g>
	<path id="DejaVuSans-39_2_" d="M136.5,266.4v-0.9c0.2,0.1,0.5,0.2,0.8,0.3c0.3,0.1,0.5,0.1,0.7,0.1c0.7,0,1.1-0.2,1.5-0.7
		c0.3-0.4,0.5-1.1,0.6-2c-0.2,0.3-0.4,0.5-0.7,0.6s-0.6,0.2-1,0.2c-0.7,0-1.3-0.2-1.7-0.7c-0.4-0.4-0.6-1-0.6-1.8
		c0-0.7,0.2-1.3,0.7-1.8c0.4-0.5,1-0.7,1.8-0.7s1.5,0.3,1.9,1c0.4,0.6,0.7,1.6,0.7,2.8c0,1.1-0.3,2.1-0.8,2.8c-0.5,0.7-1.3,1-2.2,1
		c-0.2,0-0.5,0-0.8-0.1C137,266.6,136.8,266.5,136.5,266.4z M138.4,263.4c0.4,0,0.8-0.2,1.1-0.5s0.4-0.7,0.4-1.2s-0.1-0.9-0.4-1.2
		c-0.3-0.3-0.6-0.5-1.1-0.5c-0.4,0-0.8,0.2-1.1,0.5s-0.4,0.7-0.4,1.2s0.1,0.9,0.4,1.2C137.7,263.2,138,263.4,138.4,263.4z"/>
</g>
<g>
	<path id="DejaVuSans-37" d="M142.6,259.3h4.7v0.4l-2.6,6.9h-1l2.5-6.5h-3.5L142.6,259.3L142.6,259.3z"/>
</g>
<g>
	<path id="DejaVuSans-39_3_" d="M149.2,266.4v-0.9c0.2,0.1,0.5,0.2,0.8,0.3c0.3,0.1,0.5,0.1,0.7,0.1c0.7,0,1.1-0.2,1.5-0.7
		c0.3-0.4,0.5-1.1,0.6-2c-0.2,0.3-0.4,0.5-0.7,0.6s-0.6,0.2-1,0.2c-0.7,0-1.3-0.2-1.7-0.7c-0.4-0.4-0.6-1-0.6-1.8
		c0-0.7,0.2-1.3,0.7-1.8c0.4-0.5,1-0.7,1.8-0.7s1.5,0.3,1.9,1c0.4,0.6,0.7,1.6,0.7,2.8c0,1.1-0.3,2.1-0.8,2.8c-0.5,0.7-1.3,1-2.2,1
		c-0.2,0-0.5,0-0.8-0.1C149.7,266.6,149.5,266.5,149.2,266.4z M151.2,263.4c0.4,0,0.8-0.2,1.1-0.5s0.4-0.7,0.4-1.2s-0.1-0.9-0.4-1.2
		c-0.3-0.3-0.6-0.5-1.1-0.5c-0.4,0-0.8,0.2-1.1,0.5s-0.4,0.7-0.4,1.2s0.1,0.9,0.4,1.2C150.4,263.2,150.7,263.4,151.2,263.4z"/>
</g>
<g>
	<path id="m8237e79f8d_2_" class="st0" d="M204.4,252v3.5"/>
</g>
<g>
	<path id="DejaVuSans-31_2_" d="M192.9,265.8h1.6v-5.6l-1.8,0.4v-0.9l1.7-0.4h1v6.5h1.6v0.8h-4.2L192.9,265.8L192.9,265.8z"/>
</g>
<g>
	<path id="DejaVuSans-39_4_" d="M199.2,266.4v-0.9c0.2,0.1,0.5,0.2,0.8,0.3c0.3,0.1,0.5,0.1,0.7,0.1c0.7,0,1.1-0.2,1.5-0.7
		c0.3-0.4,0.5-1.1,0.6-2c-0.2,0.3-0.4,0.5-0.7,0.6s-0.6,0.2-1,0.2c-0.7,0-1.3-0.2-1.7-0.7c-0.4-0.4-0.6-1-0.6-1.8
		c0-0.7,0.2-1.3,0.7-1.8c0.4-0.5,1-0.7,1.8-0.7s1.5,0.3,1.9,1c0.4,0.6,0.7,1.6,0.7,2.8c0,1.1-0.3,2.1-0.8,2.8c-0.5,0.7-1.3,1-2.2,1
		c-0.2,0-0.5,0-0.8-0.1C199.7,266.6,199.4,266.5,199.2,266.4z M201.1,263.4c0.4,0,0.8-0.2,1.1-0.5s0.4-0.7,0.4-1.2s-0.1-0.9-0.4-1.2
		c-0.3-0.3-0.6-0.5-1.1-0.5c-0.4,0-0.8,0.2-1.1,0.5s-0.4,0.7-0.4,1.2s0.1,0.9,0.4,1.2C200.3,263.2,200.7,263.4,201.1,263.4z"/>
</g>
<g>
	<path id="DejaVuSans-38" d="M207.6,263.1c-0.5,0-0.8,0.1-1.1,0.4s-0.4,0.6-0.4,1s0.1,0.8,0.4,1c0.3,0.3,0.6,0.4,1.1,0.4
		s0.8-0.1,1.1-0.4s0.4-0.6,0.4-1s-0.1-0.8-0.4-1C208.4,263.3,208.1,263.1,207.6,263.1z M206.6,262.7c-0.4-0.1-0.8-0.3-1-0.6
		c-0.2-0.3-0.4-0.6-0.4-1.1c0-0.6,0.2-1,0.6-1.4c0.4-0.3,1-0.5,1.7-0.5s1.3,0.2,1.7,0.5s0.6,0.8,0.6,1.4c0,0.4-0.1,0.8-0.4,1.1
		c-0.2,0.3-0.6,0.5-1,0.6c0.5,0.1,0.8,0.3,1.1,0.6c0.3,0.3,0.4,0.7,0.4,1.2c0,0.7-0.2,1.2-0.6,1.6c-0.4,0.4-1,0.6-1.9,0.6
		c-0.8,0-1.4-0.2-1.9-0.6c-0.4-0.4-0.6-0.9-0.6-1.6c0-0.5,0.1-0.9,0.4-1.2C205.8,263,206.1,262.8,206.6,262.7z M206.3,261.2
		c0,0.4,0.1,0.7,0.4,0.9c0.2,0.2,0.6,0.3,1,0.3s0.8-0.1,1-0.3c0.2-0.2,0.4-0.5,0.4-0.9s-0.1-0.7-0.4-0.9c-0.2-0.2-0.6-0.3-1-0.3
		s-0.8,0.1-1,0.3C206.4,260.5,206.3,260.8,206.3,261.2z"/>
</g>
<g>
	<path id="DejaVuSans-39_5_" d="M211.9,266.4v-0.9c0.2,0.1,0.5,0.2,0.8,0.3c0.3,0.1,0.5,0.1,0.7,0.1c0.7,0,1.1-0.2,1.5-0.7
		c0.3-0.4,0.5-1.1,0.6-2c-0.2,0.3-0.4,0.5-0.7,0.6s-0.6,0.2-1,0.2c-0.7,0-1.3-0.2-1.7-0.7c-0.4-0.4-0.6-1-0.6-1.8
		c0-0.7,0.2-1.3,0.7-1.8c0.4-0.5,1-0.7,1.8-0.7s1.5,0.3,1.9,1c0.4,0.6,0.7,1.6,0.7,2.8c0,1.1-0.3,2.1-0.8,2.8c-0.5,0.7-1.3,1-2.2,1
		c-0.2,0-0.5,0-0.8-0.1C212.4,266.6,212.2,266.5,211.9,266.4z M213.8,263.4c0.4,0,0.8-0.2,1.1-0.5s0.4-0.7,0.4-1.2s-0.1-0.9-0.4-1.2
		c-0.3-0.3-0.6-0.5-1.1-0.5c-0.4,0-0.8,0.2-1.1,0.5s-0.4,0.7-0.4,1.2s0.1,0.9,0.4,1.2C213.1,263.2,213.4,263.4,213.8,263.4z"/>
</g>
<g>
	<path id="m8237e79f8d_3_" class="st0" d="M267.1,252v3.5"/>
</g>
<g>
	<path id="DejaVuSans-31_3_" d="M255.6,265.8h1.6v-5.6l-1.8,0.4v-0.9l1.7-0.4h1v6.5h1.6v0.8h-4.2L255.6,265.8L255.6,265.8z"/>
</g>
<g>
	<path id="DejaVuSans-39_6_" d="M261.8,266.4v-0.9c0.2,0.1,0.5,0.2,0.8,0.3c0.3,0.1,0.5,0.1,0.7,0.1c0.7,0,1.1-0.2,1.5-0.7
		c0.3-0.4,0.5-1.1,0.6-2c-0.2,0.3-0.4,0.5-0.7,0.6c-0.3,0.1-0.6,0.2-1,0.2c-0.7,0-1.3-0.2-1.7-0.7c-0.4-0.4-0.6-1-0.6-1.8
		c0-0.7,0.2-1.3,0.7-1.8c0.4-0.5,1-0.7,1.8-0.7s1.5,0.3,1.9,1c0.4,0.6,0.7,1.6,0.7,2.8c0,1.1-0.3,2.1-0.8,2.8c-0.5,0.7-1.3,1-2.2,1
		c-0.2,0-0.5,0-0.8-0.1C262.4,266.6,262.1,266.5,261.8,266.4z M263.8,263.4c0.4,0,0.8-0.2,1.1-0.5c0.3-0.3,0.4-0.7,0.4-1.2
		s-0.1-0.9-0.4-1.2c-0.3-0.3-0.6-0.5-1.1-0.5c-0.4,0-0.8,0.2-1.1,0.5s-0.4,0.7-0.4,1.2s0.1,0.9,0.4,1.2
		C263,263.2,263.4,263.4,263.8,263.4z"/>
</g>
<g>
	<path id="DejaVuSans-39_7_" d="M268.2,266.4v-0.9c0.2,0.1,0.5,0.2,0.8,0.3c0.3,0.1,0.5,0.1,0.7,0.1c0.7,0,1.1-0.2,1.5-0.7
		c0.3-0.4,0.5-1.1,0.6-2c-0.2,0.3-0.4,0.5-0.7,0.6c-0.3,0.1-0.6,0.2-1,0.2c-0.7,0-1.3-0.2-1.7-0.7c-0.4-0.4-0.6-1-0.6-1.8
		c0-0.7,0.2-1.3,0.7-1.8c0.4-0.5,1-0.7,1.8-0.7s1.5,0.3,1.9,1c0.4,0.6,0.7,1.6,0.7,2.8c0,1.1-0.3,2.1-0.8,2.8c-0.5,0.7-1.3,1-2.2,1
		c-0.2,0-0.5,0-0.8-0.1C268.7,266.6,268.5,266.5,268.2,266.4z M270.2,263.4c0.4,0,0.8-0.2,1.1-0.5c0.3-0.3,0.4-0.7,0.4-1.2
		s-0.1-0.9-0.4-1.2c-0.3-0.3-0.6-0.5-1.1-0.5c-0.4,0-0.8,0.2-1.1,0.5s-0.4,0.7-0.4,1.2s0.1,0.9,0.4,1.2S269.7,263.4,270.2,263.4z"/>
</g>
<g>
	<path id="DejaVuSans-39_8_" d="M274.6,266.4v-0.9c0.2,0.1,0.5,0.2,0.8,0.3c0.3,0.1,0.5,0.1,0.7,0.1c0.7,0,1.1-0.2,1.5-0.7
		c0.3-0.4,0.5-1.1,0.6-2c-0.2,0.3-0.4,0.5-0.7,0.6c-0.3,0.1-0.6,0.2-1,0.2c-0.7,0-1.3-0.2-1.7-0.7c-0.4-0.4-0.6-1-0.6-1.8
		c0-0.7,0.2-1.3,0.7-1.8c0.4-0.5,1-0.7,1.8-0.7s1.5,0.3,1.9,1c0.4,0.6,0.7,1.6,0.7,2.8c0,1.1-0.3,2.1-0.8,2.8c-0.5,0.7-1.3,1-2.2,1
		c-0.2,0-0.5,0-0.8-0.1C275.1,266.6,274.8,266.5,274.6,266.4z M276.5,263.4c0.4,0,0.8-0.2,1.1-0.5c0.3-0.3,0.4-0.7,0.4-1.2
		s-0.1-0.9-0.4-1.2c-0.3-0.3-0.6-0.5-1.1-0.5c-0.4,0-0.8,0.2-1.1,0.5s-0.4,0.7-0.4,1.2s0.1,0.9,0.4,1.2
		C275.7,263.2,276.1,263.4,276.5,263.4z"/>
</g>
<g>
	<path id="m8237e79f8d_4_" class="st0" d="M329.8,252v3.5"/>
</g>
<g>
	<path id="DejaVuSans-32" d="M319,265.8h3.4v0.8h-4.6v-0.8c0.4-0.4,0.9-0.9,1.5-1.6s1.1-1.1,1.2-1.3c0.3-0.4,0.5-0.7,0.7-0.9
		c0.1-0.2,0.2-0.5,0.2-0.7c0-0.4-0.1-0.7-0.4-0.9c-0.3-0.2-0.6-0.4-1.1-0.4c-0.3,0-0.6,0.1-1,0.2c-0.3,0.1-0.7,0.3-1.1,0.5v-1
		c0.4-0.2,0.8-0.3,1.1-0.4c0.3-0.1,0.7-0.1,0.9-0.1c0.8,0,1.4,0.2,1.8,0.6s0.7,0.9,0.7,1.5c0,0.3-0.1,0.6-0.2,0.9s-0.3,0.6-0.6,0.9
		c-0.1,0.1-0.3,0.4-0.8,0.8C320.4,264.3,319.8,265,319,265.8z"/>
</g>
<g>
	<path id="DejaVuSans-30" d="M326.6,260c-0.5,0-0.9,0.2-1.1,0.8c-0.3,0.5-0.4,1.2-0.4,2.3c0,1,0.1,1.7,0.4,2.2s0.6,0.8,1.1,0.8
		s0.9-0.2,1.1-0.8c0.3-0.5,0.4-1.2,0.4-2.2s-0.1-1.8-0.4-2.3C327.5,260.2,327.1,260,326.6,260z M326.6,259.2c0.8,0,1.4,0.3,1.9,1
		c0.4,0.6,0.6,1.6,0.6,2.8c0,1.2-0.2,2.2-0.6,2.8c-0.4,0.6-1.1,1-1.9,1s-1.4-0.3-1.9-1c-0.4-0.6-0.6-1.6-0.6-2.8
		c0-1.2,0.2-2.2,0.6-2.8C325.2,259.5,325.8,259.2,326.6,259.2z"/>
</g>
<g>
	<path id="DejaVuSans-30_1_" d="M333,260c-0.5,0-0.9,0.2-1.1,0.8c-0.3,0.5-0.4,1.2-0.4,2.3c0,1,0.1,1.7,0.4,2.2s0.6,0.8,1.1,0.8
		s0.9-0.2,1.1-0.8c0.3-0.5,0.4-1.2,0.4-2.2s-0.1-1.8-0.4-2.3C333.9,260.2,333.5,260,333,260z M333,259.2c0.8,0,1.4,0.3,1.9,1
		c0.4,0.6,0.6,1.6,0.6,2.8c0,1.2-0.2,2.2-0.6,2.8c-0.4,0.6-1.1,1-1.9,1s-1.4-0.3-1.9-1c-0.4-0.6-0.6-1.6-0.6-2.8
		c0-1.2,0.2-2.2,0.6-2.8C331.5,259.5,332.1,259.2,333,259.2z"/>
</g>
<g>
	<path id="DejaVuSans-39_9_" d="M337.2,266.4v-0.9c0.2,0.1,0.5,0.2,0.8,0.3c0.3,0.1,0.5,0.1,0.7,0.1c0.7,0,1.1-0.2,1.5-0.7
		c0.3-0.4,0.5-1.1,0.6-2c-0.2,0.3-0.4,0.5-0.7,0.6c-0.3,0.1-0.6,0.2-1,0.2c-0.7,0-1.3-0.2-1.7-0.7c-0.4-0.4-0.6-1-0.6-1.8
		c0-0.7,0.2-1.3,0.7-1.8c0.4-0.5,1-0.7,1.8-0.7s1.5,0.3,1.9,1c0.4,0.6,0.7,1.6,0.7,2.8c0,1.1-0.3,2.1-0.8,2.8c-0.5,0.7-1.3,1-2.2,1
		c-0.2,0-0.5,0-0.8-0.1C337.8,266.6,337.5,266.5,337.2,266.4z M339.2,263.4c0.4,0,0.8-0.2,1.1-0.5c0.3-0.3,0.4-0.7,0.4-1.2
		s-0.1-0.9-0.4-1.2c-0.3-0.3-0.6-0.5-1.1-0.5c-0.4,0-0.8,0.2-1.1,0.5s-0.4,0.7-0.4,1.2s0.1,0.9,0.4,1.2S338.8,263.4,339.2,263.4z"/>
</g>
<g>
	<path id="m5af1f2a635" class="st1" d="M79.1,252v2"/>
</g>
<g>
	<path id="m5af1f2a635_1_" class="st1" d="M110.4,252v2"/>
</g>
<g>
	<path id="m5af1f2a635_2_" class="st1" d="M141.7,252v2"/>
</g>
<g>
	<path id="m5af1f2a635_3_" class="st1" d="M173.1,252v2"/>
</g>
<g>
	<path id="m5af1f2a635_4_" class="st1" d="M204.4,252v2"/>
</g>
<g>
	<path id="m5af1f2a635_5_" class="st1" d="M235.8,252v2"/>
</g>
<g>
	<path id="m5af1f2a635_6_" class="st1" d="M267.1,252v2"/>
</g>
<g>
	<path id="m5af1f2a635_7_" class="st1" d="M298.4,252v2"/>
</g>
<g>
	<path id="m5af1f2a635_8_" class="st1" d="M329.8,252v2"/>
</g>
<g>
	<path id="m5af1f2a635_9_" class="st1" d="M361.1,252v2"/>
</g>
<g>
	<path id="m3f55806d1c" class="st0" d="M54,252h-3.5"/>
</g>
<g>
	<path id="DejaVuSans-30_2_" d="M43.8,249.2c-0.5,0-0.9,0.2-1.1,0.8c-0.3,0.5-0.4,1.2-0.4,2.3c0,1,0.1,1.7,0.4,2.2
		c0.3,0.5,0.6,0.8,1.1,0.8s0.9-0.2,1.2-0.8c0.3-0.5,0.4-1.2,0.4-2.2s-0.1-1.8-0.4-2.3C44.7,249.4,44.3,249.2,43.8,249.2z
		 M43.8,248.4c0.8,0,1.4,0.3,1.9,1c0.4,0.6,0.6,1.6,0.6,2.8s-0.2,2.2-0.6,2.8c-0.4,0.6-1.1,1-1.9,1c-0.8,0-1.4-0.3-1.9-1
		c-0.4-0.6-0.6-1.6-0.6-2.8s0.2-2.2,0.6-2.8C42.4,248.7,43,248.4,43.8,248.4z"/>
</g>
<g>
	<path id="m3f55806d1c_1_" class="st0" d="M54,215.9h-3.5"/>
</g>
<g>
	<path id="DejaVuSans-32_1_" d="M42.6,218.9H46v0.8h-4.6v-0.8c0.4-0.4,0.9-0.9,1.5-1.6c0.6-0.7,1.1-1.1,1.2-1.3
		c0.3-0.4,0.5-0.7,0.7-0.9c0.1-0.2,0.2-0.5,0.2-0.7c0-0.4-0.1-0.7-0.4-0.9c-0.3-0.2-0.6-0.4-1.1-0.4c-0.3,0-0.6,0.1-1,0.2
		c-0.3,0.1-0.7,0.3-1.1,0.5v-1c0.4-0.2,0.8-0.3,1.1-0.4c0.3-0.1,0.7-0.1,0.9-0.1c0.8,0,1.4,0.2,1.8,0.6c0.4,0.4,0.7,0.9,0.7,1.5
		c0,0.3-0.1,0.6-0.2,0.9c-0.1,0.3-0.3,0.6-0.6,0.9c-0.1,0.1-0.3,0.4-0.8,0.8C44,217.5,43.4,218.1,42.6,218.9z"/>
</g>
<g>
	<path id="m3f55806d1c_2_" class="st0" d="M54,179.9h-3.5"/>
</g>
<g>
	<path id="DejaVuSans-34" d="M44.4,177.2l-2.5,3.9h2.5V177.2z M44.2,176.4h1.2v4.8h1v0.8h-1v1.7h-1V182h-3.3v-1L44.2,176.4z"/>
</g>
<g>
	<path id="m3f55806d1c_3_" class="st0" d="M54,143.8h-3.5"/>
</g>
<g>
	<path id="DejaVuSans-36_1_" d="M43.9,143.6c-0.4,0-0.8,0.2-1.1,0.5s-0.4,0.7-0.4,1.2s0.1,0.9,0.4,1.2c0.3,0.3,0.6,0.5,1.1,0.5
		c0.4,0,0.8-0.2,1.1-0.5s0.4-0.7,0.4-1.2s-0.1-0.9-0.4-1.2C44.7,143.7,44.4,143.6,43.9,143.6z M45.9,140.5v0.9
		c-0.2-0.1-0.5-0.2-0.8-0.3s-0.5-0.1-0.8-0.1c-0.7,0-1.1,0.2-1.5,0.7c-0.3,0.4-0.5,1.1-0.6,2c0.2-0.3,0.4-0.5,0.7-0.7s0.6-0.2,1-0.2
		c0.7,0,1.3,0.2,1.7,0.7c0.4,0.4,0.6,1,0.6,1.8c0,0.7-0.2,1.4-0.7,1.8c-0.4,0.5-1,0.7-1.8,0.7s-1.5-0.3-1.9-1
		c-0.4-0.6-0.7-1.6-0.7-2.8s0.3-2.1,0.8-2.8s1.3-1,2.2-1c0.2,0,0.5,0,0.8,0.1C45.4,140.3,45.6,140.4,45.9,140.5z"/>
</g>
<g>
	<path id="m3f55806d1c_4_" class="st0" d="M54,107.8h-3.5"/>
</g>
<g>
	<path id="DejaVuSans-38_1_" d="M43.8,108.1c-0.5,0-0.8,0.1-1.1,0.4s-0.4,0.6-0.4,1s0.1,0.8,0.4,1c0.3,0.3,0.6,0.4,1.1,0.4
		s0.8-0.1,1.1-0.4s0.4-0.6,0.4-1s-0.1-0.8-0.4-1C44.7,108.2,44.3,108.1,43.8,108.1z M42.8,107.7c-0.4-0.1-0.8-0.3-1-0.6
		c-0.2-0.3-0.4-0.6-0.4-1.1c0-0.6,0.2-1,0.6-1.4c0.4-0.3,1-0.5,1.7-0.5s1.3,0.2,1.7,0.5s0.6,0.8,0.6,1.4c0,0.4-0.1,0.8-0.4,1.1
		c-0.2,0.3-0.6,0.5-1,0.6c0.5,0.1,0.8,0.3,1.1,0.7c0.3,0.3,0.4,0.7,0.4,1.2c0,0.7-0.2,1.2-0.6,1.6c-0.4,0.4-1,0.6-1.9,0.6
		c-0.8,0-1.4-0.2-1.9-0.6c-0.4-0.4-0.6-0.9-0.6-1.6c0-0.5,0.1-0.9,0.4-1.2C42,108,42.4,107.8,42.8,107.7z M42.5,106.1
		c0,0.4,0.1,0.7,0.4,0.9c0.2,0.2,0.6,0.3,1,0.3s0.8-0.1,1-0.3c0.2-0.2,0.4-0.5,0.4-0.9s-0.1-0.7-0.4-0.9c-0.2-0.2-0.6-0.3-1-0.3
		s-0.8,0.1-1,0.3C42.6,105.4,42.5,105.7,42.5,106.1z"/>
</g>
<g>
	<path id="m3f55806d1c_5_" class="st0" d="M54,71.7h-3.5"/>
</g>
<g>
	<path id="DejaVuSans-31_4_" d="M35.5,74.7h1.6v-5.6l-1.8,0.4v-0.9l1.7-0.4h1v6.5h1.6v0.8h-4.2v-0.8H35.5z"/>
</g>
<g>
	<path id="DejaVuSans-30_3_" d="M43.8,68.9c-0.5,0-0.9,0.2-1.1,0.8c-0.3,0.5-0.4,1.2-0.4,2.3c0,1,0.1,1.7,0.4,2.2
		c0.3,0.5,0.6,0.8,1.1,0.8s0.9-0.2,1.2-0.8c0.3-0.5,0.4-1.2,0.4-2.2s-0.1-1.8-0.4-2.3C44.7,69.1,44.3,68.9,43.8,68.9z M43.8,68.1
		c0.8,0,1.4,0.3,1.9,1c0.4,0.6,0.6,1.6,0.6,2.8c0,1.2-0.2,2.2-0.6,2.8c-0.4,0.6-1.1,1-1.9,1c-0.8,0-1.4-0.3-1.9-1
		c-0.4-0.6-0.6-1.6-0.6-2.8c0-1.2,0.2-2.2,0.6-2.8C42.4,68.4,43,68.1,43.8,68.1z"/>
</g>
<g>
	<path id="m3f55806d1c_6_" class="st0" d="M54,35.6h-3.5"/>
</g>
<g>
	<path id="DejaVuSans-31_5_" d="M35.5,38.6h1.6V33l-1.8,0.4v-0.9l1.7-0.4h1v6.5h1.6v0.8h-4.2v-0.8H35.5z"/>
</g>
<g>
	<path id="DejaVuSans-32_2_" d="M42.6,38.6H46v0.8h-4.6v-0.8c0.4-0.4,0.9-0.9,1.5-1.6c0.6-0.7,1.1-1.1,1.2-1.3
		c0.3-0.4,0.5-0.7,0.7-0.9c0.1-0.2,0.2-0.5,0.2-0.7c0-0.4-0.1-0.7-0.4-0.9c-0.3-0.2-0.6-0.4-1.1-0.4c-0.3,0-0.6,0.1-1,0.2
		c-0.3,0.1-0.7,0.3-1.1,0.5v-1c0.4-0.2,0.8-0.3,1.1-0.4c0.3-0.1,0.7-0.1,0.9-0.1c0.8,0,1.4,0.2,1.8,0.6c0.4,0.4,0.7,0.9,0.7,1.5
		c0,0.3-0.1,0.6-0.2,0.9c-0.1,0.3-0.3,0.6-0.6,0.9c-0.1,0.1-0.3,0.4-0.8,0.8C44,37.2,43.4,37.8,42.6,38.6z"/>
</g>
<g>
	<g>
		<defs>
			<rect id="SVGID_1_" x="54" y="34.6" width="334.8" height="217.4"/>
		</defs>
		<clipPath id="SVGID_2_">
			<use xlink:href="#SVGID_1_"  style="overflow:visible;"/>
		</clipPath>
		<path class="st2" d="M60.3,73.9l0.5,1.1l1,1.1l0.5,0.4l0.5,0.2l0.5,0.4l0.5,1.1l1,1.1l1,0.4l0.5-0.1l0.5-20.1h0.5l0.5,0.6h0.5
			l0.5,1.2l2.1,2.3l0.5,1.1l1,1.1l0.5-26l1.6,1.8l1,2.4l1,1.2l0.5,1.2l0.5,0.6l0.5,1.2l1,1.1l0.5,1.7l0.5,1.1l0.5,0.5l1,2.2l0.5,0.5
			l3.7,7.2l0.5,1l0.5,0.5l0.5,1l1,1l2.1,3.7l0.5,0.5h0.5l1,0.9l1,1.8l3.7,3l0.5,0.9H98l2.6,2.1l0.5,0.8l0.5,0.4l0.5,0.8l0.5,0.4
			l0.5,0.8l0.5,1.2l0.5,1.6l0.5,1.1l0.5,0.8l0.5,1.1h0.5l0.5,2.9l0.5,0.7l0.5,1.4l0.5,1l1,3l1,3.2l0.5,0.9l0.5-35.8l0.5,1.5l0.5,1.1
			l1,4.7l0.5,1.4l1,3.1l0.5-7.3l0.5,1l1,1.4l0.5,0.3l0.5,1.3l0.5,1.7l0.5,0.7l0.5,1.3l0.5,1l0.5,1.3l0.5,0.9l0.5-15.7l1.6,1l3.1,5.8
			l0.5,0.6l1,1.8l0.5,1.8l0.5,0.9l0.5,1.2l0.5,0.6l1.6,2.6l0.5,0.6l0.5,0.8l0.5,1.1l0.5,0.8l0.5-24.3L136,61l0.5,1.2l3.7,10.5l1,2.1
			l0.5-15l4.7,17.1l1,3.9l0.5-9.2l1.6,6.5l1,3.4l0.5,0.2l1,2.6l1.6,4.9l0.5-11.5l0.5,1.6l2.1,4.8l0.5,1.8l0.5,1.3l0.5,1.6l0.5,0.5
			l1,1.2l1,1h0.5l0.5,0.5l1,3.3l0.5,0.8l0.5,0.3h0.5l0.5,0.6l0.5-0.2l0.5-0.5l0.5,0.3l1,0.3l0.5,1.1l0.5,0.6l0.5,0.3l1,1.1l2.1,1.9
			l0.5,1l0.5,0.7l1.6,1.3l0.5,0.3l1,1l1.6,1.2l1,0.5l1,1.5l1,0.5l1,0.7l1,0.5l1,1.2l1,1.1l0.5-0.3l0.5-0.8l0.5-0.5l1.6,1l0.5,0.1
			l0.5,0.5l1,0.5l0.5,0.5l0.5,0.7l4.7,4.3l0.5,0.5l0.5,0.2l0.5,0.5l1,0.6l0.5,0.8l0.5,0.3l2.6,2.6l2.1,1.8l0.5,0.6l0.5,0.9l0.5,0.6
			l1,0.8h0.5l0.5,0.3l1,1.1l0.5,0.4l0.5,1.1l1,1l0.5-15.6l0.5,0.2l0.5,0.8l0.5,0.6l1,2l0.5,0.9l0.5,0.3l1,1l1,0.1l0.5-14.8l1,0.9
			l0.5,0.2l1,0.8l0.5,0.2l0.5,0.6l0.5,0.4l0.5,0.1l0.5,0.3l0.5,0.5l1.6,1l1,0.7l0.5,0.3l0.5,0.6l0.5,0.4l0.5,0.2l0.5,0.5l1.6,0.9
			l0.5,0.4l1,0.3l1,0.5l0.5,0.5l1,0.6h0.5l1,0.7l0.5,0.1l1,0.6l1.6,1.2l0.5,0.1l2.1,1.3l0.5,0.3l0.5,0.5l2.1,0.9l0.5,0.2l0.5,0.3
			l1,0.3l0.5,0.6l0.5,0.2l1.6,1.1l2.1,1l0.5-14l1,0.8l1,0.5l2.1,0.4l0.5,0.2l0.5,0.3l0.5-10.9l1,0.4l2.6,0.4l0.5,0.4l0.5,0.2
			l0.5,0.4l2.1,0.8l1,0.5l1,0.1l0.5,0.9l1,0.1l0.5,0.6l0.5,0.3l0.5,0.6l1.6,0.8l0.5,0.4l0.5,0.6l0.5,0.8l0.5-0.1l0.5,0.2l0.5,0.8
			l0.5,0.4h0.5l0.5,0.7l1.6,0.8l0.5,0.8l0.5,0.3l0.5,0.1l0.5,0.2l0.5,0.7l0.5,0.3l0.5-0.2h0.5l0.5,0.5l0.5-0.4l1-0.1l1,0.4l0.5,0.4
			l0.5,0.6l1.6,0.5l0.5,0.4l2.1,0.9l1,1.3l0.5,0.2l0.5-0.5l0.5-0.2l0.5,0.1l1.6,1.4l0.5-0.1l0.5,0.1l0.5,0.3l0.5,0.5l1.6,0.7l1,1
			l1,0.2l0.5,0.4l1,1.2l1-0.1l1,0.9l0.5,0.4l0.5-0.1l0.5,0.1l1,1.5l0.5,1.6l0.5,0.2l0.5-0.6h0.5l0.5,0.7l0.5,0.1l0.5,0.2l0.5,0.6
			l1,0.6l1,1.1l1-1.1l0.5,0.1l0.5,0.6l0.5,0.2l0.5,0.4l0.5,0.6l1.6,1.1l0.5-15.1h0.5l1,0.9l0.5,1l2.6,1.8l0.5,0.7l0.5,1.3l0.5-13.6
			l0.5-0.2l0.5,0.1l0.5-1.2l0.5-2.5l0.5-1.2l0.5,0.4l0.5,0.5l0.5-0.1l1,0.3l0.5,1.1l0.5-14.8l0.5,0.5l0.5,0.3l1,1l1,0.2l0.5-0.1
			l1,0.1l1-0.1l1.6,0.7l3.1,3.2l0.5,0.7l0.5,0.5h0.5l1.6,1.2l0.5,0.1l0.5,0.3h0.5l1,0.7l1,0.5l0.5-0.3l0.5-0.1h0.5l1,1.5l0.5,0.4
			l0.5-0.2h0.5l0.5,0.3l0.5,0.8l1-0.7l0.5,0.1l1.6,1l1,0.1l1,0.6l0.5,0.3l0.5,0.2l1.6,0.8l1,0.3h1.6l0.5-0.3l0.5-0.4l0.5-0.9
			l0.5,0.3l0.5,0.5l0.5,0.1l1,0.9l0.5,0.2h0.5l0.5-0.3l1,0.3l0.5-0.1h0.5l0.5-0.2l1,0.8l1,0.8h0.5l2.1,1.1l0.5,0.4l0.5,0.6l0.5,0.1
			l0.5-0.1l0.5,0.2h0.5l1,0.2l1,1.1l0.5,0.1l2.1,1.5l0.5,0.1l1,0.6l1.6,0.6l0.5,0.1l0.5,0.4l1.6-0.1l0.5,0.2l1,0.9l0,0"/>
	</g>
</g>
<path class="st3" d="M54,252V34.6"/>
<path class="st3" d="M388.8,252V34.6"/>
<path class="st3" d="M54,252h334.8"/>
<path class="st3" d="M54,34.6h334.8"/>
</svg>
