<?xml version="1.0" encoding="utf-8"?>
<!-- Generator: Adobe Illustrator 21.0.2, SVG Export Plug-In . SVG Version: 6.00 Build 0)  -->
<svg version="1.1" id="Layer_1" xmlns="http://www.w3.org/2000/svg" xmlns:xlink="http://www.w3.org/1999/xlink" x="0px" y="0px"
	 viewBox="0 0 432 288" style="enable-background:new 0 0 432 288;" xml:space="preserve">
<style type="text/css">
	.st0{fill:#FFFFFF;}
	.st1{stroke:#000000;stroke-width:0.8;stroke-linejoin:round;}
	.st2{stroke:#000000;stroke-width:0.6;stroke-linejoin:round;}
	.st3{clip-path:url(#SVGID_2_);fill:none;stroke:#1F77B4;stroke-width:1.5;stroke-linecap:square;stroke-linejoin:round;}
	.st4{fill:none;stroke:#000000;stroke-width:0.8;stroke-linecap:square;}
	.st5{fill:none;stroke:#000000;stroke-linecap:round;stroke-miterlimit:10;}
</style>
<path class="st0" d="M54,252h334.8V34.6H54V252z"/>
<g id="matplotlib.axis_1">
	<g id="xtick_1">
		<g id="line2d_1">
			<g>
				<g>
					<path id="mc0ffe04144" class="st1" d="M78.8,252v3.5"/>
				</g>
			</g>
		</g>
		<g id="text_1">
			<g transform="translate(66.075 266.598437)scale(0.1 -0.1)">
				<g>
					<path id="DejaVuSans-31" d="M12.4,8.3h16.1v55.6L11,60.4v9l17.4,3.5h9.9V8.3h16.1V0h-42V8.3z"/>
				</g>
				<g>
					<path id="DejaVuSans-39" d="M74.6,1.5v9c2.5-1.2,5-2.1,7.5-2.7c2.5-0.6,5-0.9,7.5-0.9c6.5,0,11.5,2.2,14.9,6.6
						c3.4,4.4,5.4,11,5.9,20c-1.9-2.8-4.3-5-7.2-6.5c-2.9-1.5-6.1-2.2-9.6-2.2c-7.3,0-13.1,2.2-17.3,6.6c-4.2,4.4-6.4,10.5-6.4,18.1
						c0,7.5,2.2,13.5,6.6,18c4.4,4.5,10.3,6.8,17.7,6.8c8.4,0,14.9-3.2,19.3-9.7c4.4-6.5,6.7-15.8,6.7-28.1
						c0-11.5-2.7-20.7-8.2-27.5C106.6,2,99.3-1.4,90-1.4c-2.5,0-5,0.2-7.5,0.7C80-0.2,77.3,0.5,74.6,1.5z M94.2,32.4
						c4.4,0,7.9,1.5,10.5,4.5c2.6,3,3.9,7.2,3.9,12.5c0,5.2-1.3,9.4-3.9,12.4c-2.6,3-6.1,4.6-10.5,4.6s-7.9-1.5-10.5-4.6
						s-3.9-7.2-3.9-12.4c0-5.3,1.3-9.4,3.9-12.5C86.3,33.9,89.8,32.4,94.2,32.4z"/>
				</g>
				<g>
					<path id="DejaVuSans-36" d="M160.3,40.4c-4.4,0-7.9-1.5-10.5-4.5c-2.6-3-3.9-7.2-3.9-12.4c0-5.2,1.3-9.4,3.9-12.4
						c2.6-3,6.1-4.6,10.5-4.6s7.9,1.5,10.5,4.6c2.6,3.1,3.9,7.2,3.9,12.4c0,5.3-1.3,9.4-3.9,12.4C168.2,38.9,164.7,40.4,160.3,40.4z
						 M179.8,71.3v-9c-2.5,1.2-5,2.1-7.5,2.7c-2.5,0.6-5,0.9-7.5,0.9c-6.5,0-11.5-2.2-14.9-6.6c-3.4-4.4-5.4-11-5.9-19.9
						c1.9,2.8,4.3,5,7.2,6.5c2.9,1.5,6.1,2.3,9.6,2.3c7.3,0,13.1-2.2,17.4-6.7c4.2-4.4,6.4-10.5,6.4-18.1c0-7.5-2.2-13.5-6.6-18
						c-4.4-4.5-10.3-6.8-17.7-6.8c-8.4,0-14.9,3.2-19.3,9.7c-4.5,6.5-6.7,15.8-6.7,28.1c0,11.5,2.7,20.7,8.2,27.6s12.8,10.3,22,10.3
						c2.5,0,5-0.2,7.5-0.7S177.1,72.3,179.8,71.3z"/>
				</g>
				<g>
					<path id="DejaVuSans-39_1_" d="M201.9,1.5v9c2.5-1.2,5-2.1,7.5-2.7c2.5-0.6,5-0.9,7.5-0.9c6.5,0,11.5,2.2,14.9,6.6
						c3.4,4.4,5.4,11,5.9,20c-1.9-2.8-4.3-5-7.2-6.5c-2.9-1.5-6.1-2.2-9.6-2.2c-7.3,0-13.1,2.2-17.3,6.6c-4.2,4.4-6.4,10.5-6.4,18.1
						c0,7.5,2.2,13.5,6.6,18c4.4,4.5,10.3,6.8,17.7,6.8c8.4,0,14.9-3.2,19.3-9.7c4.4-6.5,6.7-15.8,6.7-28.1
						c0-11.5-2.7-20.7-8.2-27.5c-5.4-6.9-12.8-10.3-22-10.3c-2.5,0-5,0.2-7.5,0.7C207.2-0.2,204.6,0.5,201.9,1.5z M221.5,32.4
						c4.4,0,7.9,1.5,10.5,4.5c2.6,3,3.9,7.2,3.9,12.5c0,5.2-1.3,9.4-3.9,12.4c-2.6,3-6.1,4.6-10.5,4.6s-7.9-1.5-10.5-4.6
						c-2.6-3-3.9-7.2-3.9-12.4c0-5.3,1.3-9.4,3.9-12.5C213.5,33.9,217.1,32.4,221.5,32.4z"/>
				</g>
			</g>
		</g>
	</g>
	<g id="xtick_2">
		<g id="line2d_2">
			<g>
				<g>
					<path id="mc0ffe04144_1_" class="st1" d="M140.8,252v3.5"/>
				</g>
			</g>
		</g>
		<g id="text_2">
			<g transform="translate(128.075 266.598437)scale(0.1 -0.1)">
				<g>
					<path id="DejaVuSans-31_1_" d="M12.4,8.3h16.1v55.6L11,60.4v9l17.4,3.5h9.9V8.3h16.1V0h-42V8.3z"/>
				</g>
				<g>
					<path id="DejaVuSans-39_2_" d="M74.6,1.5v9c2.5-1.2,5-2.1,7.5-2.7c2.5-0.6,5-0.9,7.5-0.9c6.5,0,11.5,2.2,14.9,6.6
						c3.4,4.4,5.4,11,5.9,20c-1.9-2.8-4.3-5-7.2-6.5c-2.9-1.5-6.1-2.2-9.6-2.2c-7.3,0-13.1,2.2-17.3,6.6c-4.2,4.4-6.4,10.5-6.4,18.1
						c0,7.5,2.2,13.5,6.6,18c4.4,4.5,10.3,6.8,17.7,6.8c8.4,0,14.9-3.2,19.3-9.7c4.4-6.5,6.7-15.8,6.7-28.1
						c0-11.5-2.7-20.7-8.2-27.5C106.6,2,99.3-1.4,90-1.4c-2.5,0-5,0.2-7.5,0.7C80-0.2,77.3,0.5,74.6,1.5z M94.2,32.4
						c4.4,0,7.9,1.5,10.5,4.5c2.6,3,3.9,7.2,3.9,12.5c0,5.2-1.3,9.4-3.9,12.4c-2.6,3-6.1,4.6-10.5,4.6s-7.9-1.5-10.5-4.6
						s-3.9-7.2-3.9-12.4c0-5.3,1.3-9.4,3.9-12.5C86.3,33.9,89.8,32.4,94.2,32.4z"/>
				</g>
				<g>
					<path id="DejaVuSans-37" d="M135.4,72.9h46.9v-4.2L155.9,0h-10.3l24.9,64.6h-35V72.9z"/>
				</g>
				<g>
					<path id="DejaVuSans-39_3_" d="M201.9,1.5v9c2.5-1.2,5-2.1,7.5-2.7c2.5-0.6,5-0.9,7.5-0.9c6.5,0,11.5,2.2,14.9,6.6
						c3.4,4.4,5.4,11,5.9,20c-1.9-2.8-4.3-5-7.2-6.5c-2.9-1.5-6.1-2.2-9.6-2.2c-7.3,0-13.1,2.2-17.3,6.6c-4.2,4.4-6.4,10.5-6.4,18.1
						c0,7.5,2.2,13.5,6.6,18c4.4,4.5,10.3,6.8,17.7,6.8c8.4,0,14.9-3.2,19.3-9.7c4.4-6.5,6.7-15.8,6.7-28.1
						c0-11.5-2.7-20.7-8.2-27.5c-5.4-6.9-12.8-10.3-22-10.3c-2.5,0-5,0.2-7.5,0.7C207.2-0.2,204.6,0.5,201.9,1.5z M221.5,32.4
						c4.4,0,7.9,1.5,10.5,4.5c2.6,3,3.9,7.2,3.9,12.5c0,5.2-1.3,9.4-3.9,12.4c-2.6,3-6.1,4.6-10.5,4.6s-7.9-1.5-10.5-4.6
						c-2.6-3-3.9-7.2-3.9-12.4c0-5.3,1.3-9.4,3.9-12.5C213.5,33.9,217.1,32.4,221.5,32.4z"/>
				</g>
			</g>
		</g>
	</g>
	<g id="xtick_3">
		<g id="line2d_3">
			<g>
				<g>
					<path id="mc0ffe04144_2_" class="st1" d="M202.8,252v3.5"/>
				</g>
			</g>
		</g>
		<g id="text_3">
			<g transform="translate(190.075 266.598437)scale(0.1 -0.1)">
				<g>
					<path id="DejaVuSans-31_2_" d="M12.4,8.3h16.1v55.6L11,60.4v9l17.4,3.5h9.9V8.3h16.1V0h-42V8.3z"/>
				</g>
				<g>
					<path id="DejaVuSans-39_4_" d="M74.6,1.5v9c2.5-1.2,5-2.1,7.5-2.7c2.5-0.6,5-0.9,7.5-0.9c6.5,0,11.5,2.2,14.9,6.6
						c3.4,4.4,5.4,11,5.9,20c-1.9-2.8-4.3-5-7.2-6.5c-2.9-1.5-6.1-2.2-9.6-2.2c-7.3,0-13.1,2.2-17.3,6.6c-4.2,4.4-6.4,10.5-6.4,18.1
						c0,7.5,2.2,13.5,6.6,18c4.4,4.5,10.3,6.8,17.7,6.8c8.4,0,14.9-3.2,19.3-9.7c4.4-6.5,6.7-15.8,6.7-28.1
						c0-11.5-2.7-20.7-8.2-27.5C106.6,2,99.3-1.4,90-1.4c-2.5,0-5,0.2-7.5,0.7C80-0.2,77.3,0.5,74.6,1.5z M94.2,32.4
						c4.4,0,7.9,1.5,10.5,4.5c2.6,3,3.9,7.2,3.9,12.5c0,5.2-1.3,9.4-3.9,12.4c-2.6,3-6.1,4.6-10.5,4.6s-7.9-1.5-10.5-4.6
						s-3.9-7.2-3.9-12.4c0-5.3,1.3-9.4,3.9-12.5C86.3,33.9,89.8,32.4,94.2,32.4z"/>
				</g>
				<g>
					<path id="DejaVuSans-38" d="M159,34.6c-4.7,0-8.4-1.3-11.1-3.8c-2.7-2.5-4-6-4-10.3c0-4.4,1.3-7.8,4-10.4
						c2.7-2.5,6.4-3.8,11.1-3.8s8.4,1.3,11.1,3.8c2.7,2.5,4.1,6,4.1,10.3c0,4.4-1.3,7.8-4,10.3C167.5,33.4,163.8,34.6,159,34.6z
						 M149.2,38.8c-4.2,1-7.5,3-9.9,5.9c-2.4,2.9-3.5,6.4-3.5,10.6c0,5.8,2.1,10.4,6.2,13.8c4.2,3.4,9.8,5.1,17.1,5.1
						c7.3,0,13-1.7,17.1-5.1s6.2-8,6.2-13.8c0-4.2-1.2-7.7-3.5-10.6c-2.4-2.9-5.6-4.9-9.8-5.9c4.8-1.1,8.4-3.3,11.1-6.5
						c2.7-3.2,4-7.2,4-11.8c0-7.1-2.2-12.5-6.5-16.3c-4.3-3.8-10.5-5.7-18.5-5.7c-8,0-14.2,1.9-18.5,5.7c-4.3,3.8-6.5,9.2-6.5,16.3
						c0,4.6,1.3,8.6,4,11.8C140.7,35.5,144.4,37.7,149.2,38.8z M145.6,54.4c0-3.8,1.2-6.7,3.5-8.8c2.4-2.1,5.7-3.2,9.9-3.2
						c4.2,0,7.6,1.1,9.9,3.2c2.4,2.1,3.6,5.1,3.6,8.8c0,3.8-1.2,6.7-3.6,8.8c-2.4,2.1-5.7,3.2-9.9,3.2c-4.3,0-7.6-1.1-9.9-3.2
						C146.7,61.1,145.6,58.2,145.6,54.4z"/>
				</g>
				<g>
					<path id="DejaVuSans-39_5_" d="M201.9,1.5v9c2.5-1.2,5-2.1,7.5-2.7c2.5-0.6,5-0.9,7.5-0.9c6.5,0,11.5,2.2,14.9,6.6
						c3.4,4.4,5.4,11,5.9,20c-1.9-2.8-4.3-5-7.2-6.5c-2.9-1.5-6.1-2.2-9.6-2.2c-7.3,0-13.1,2.2-17.3,6.6c-4.2,4.4-6.4,10.5-6.4,18.1
						c0,7.5,2.2,13.5,6.6,18c4.4,4.5,10.3,6.8,17.7,6.8c8.4,0,14.9-3.2,19.3-9.7c4.4-6.5,6.7-15.8,6.7-28.1
						c0-11.5-2.7-20.7-8.2-27.5c-5.4-6.9-12.8-10.3-22-10.3c-2.5,0-5,0.2-7.5,0.7C207.2-0.2,204.6,0.5,201.9,1.5z M221.5,32.4
						c4.4,0,7.9,1.5,10.5,4.5c2.6,3,3.9,7.2,3.9,12.5c0,5.2-1.3,9.4-3.9,12.4c-2.6,3-6.1,4.6-10.5,4.6s-7.9-1.5-10.5-4.6
						c-2.6-3-3.9-7.2-3.9-12.4c0-5.3,1.3-9.4,3.9-12.5C213.5,33.9,217.1,32.4,221.5,32.4z"/>
				</g>
			</g>
		</g>
	</g>
	<g id="xtick_4">
		<g id="line2d_4">
			<g>
				<g>
					<path id="mc0ffe04144_3_" class="st1" d="M264.8,252v3.5"/>
				</g>
			</g>
		</g>
		<g id="text_4">
			<g transform="translate(252.075 266.598437)scale(0.1 -0.1)">
				<g>
					<path id="DejaVuSans-31_3_" d="M12.4,8.3h16.1v55.6L11,60.4v9l17.4,3.5h9.9V8.3h16.1V0h-42V8.3z"/>
				</g>
				<g>
					<path id="DejaVuSans-39_6_" d="M74.6,1.5v9c2.5-1.2,5-2.1,7.5-2.7c2.5-0.6,5-0.9,7.5-0.9c6.5,0,11.5,2.2,14.9,6.6
						c3.4,4.4,5.4,11,5.9,20c-1.9-2.8-4.3-5-7.2-6.5c-2.9-1.5-6.1-2.2-9.6-2.2c-7.3,0-13.1,2.2-17.3,6.6c-4.2,4.4-6.4,10.5-6.4,18.1
						c0,7.5,2.2,13.5,6.6,18c4.4,4.5,10.3,6.8,17.7,6.8c8.4,0,14.9-3.2,19.3-9.7c4.4-6.5,6.7-15.8,6.7-28.1
						c0-11.5-2.7-20.7-8.2-27.5C106.6,2,99.3-1.4,90-1.4c-2.5,0-5,0.2-7.5,0.7C80-0.2,77.3,0.5,74.6,1.5z M94.2,32.4
						c4.4,0,7.9,1.5,10.5,4.5c2.6,3,3.9,7.2,3.9,12.5c0,5.2-1.3,9.4-3.9,12.4c-2.6,3-6.1,4.6-10.5,4.6s-7.9-1.5-10.5-4.6
						s-3.9-7.2-3.9-12.4c0-5.3,1.3-9.4,3.9-12.5C86.3,33.9,89.8,32.4,94.2,32.4z"/>
				</g>
				<g>
					<path id="DejaVuSans-39_7_" d="M138.2,1.5v9c2.5-1.2,5-2.1,7.5-2.7c2.5-0.6,5-0.9,7.5-0.9c6.5,0,11.5,2.2,14.9,6.6
						c3.4,4.4,5.4,11,5.9,20c-1.9-2.8-4.3-5-7.2-6.5c-2.9-1.5-6.1-2.2-9.6-2.2c-7.3,0-13.1,2.2-17.3,6.6c-4.2,4.4-6.4,10.5-6.4,18.1
						c0,7.5,2.2,13.5,6.6,18c4.4,4.5,10.3,6.8,17.7,6.8c8.4,0,14.9-3.2,19.3-9.7c4.4-6.5,6.7-15.8,6.7-28.1
						c0-11.5-2.7-20.7-8.2-27.5c-5.4-6.9-12.8-10.3-22-10.3c-2.5,0-5,0.2-7.5,0.7C143.6-0.2,141,0.5,138.2,1.5z M157.9,32.4
						c4.4,0,7.9,1.5,10.5,4.5c2.6,3,3.9,7.2,3.9,12.5c0,5.2-1.3,9.4-3.9,12.4c-2.6,3-6.1,4.6-10.5,4.6s-7.9-1.5-10.5-4.6
						s-3.9-7.2-3.9-12.4c0-5.3,1.3-9.4,3.9-12.5C149.9,33.9,153.4,32.4,157.9,32.4z"/>
				</g>
				<g>
					<path id="DejaVuSans-39_8_" d="M201.9,1.5v9c2.5-1.2,5-2.1,7.5-2.7c2.5-0.6,5-0.9,7.5-0.9c6.5,0,11.5,2.2,14.9,6.6
						c3.4,4.4,5.4,11,5.9,20c-1.9-2.8-4.3-5-7.2-6.5c-2.9-1.5-6.1-2.2-9.6-2.2c-7.3,0-13.1,2.2-17.3,6.6c-4.2,4.4-6.4,10.5-6.4,18.1
						c0,7.5,2.2,13.5,6.6,18c4.4,4.5,10.3,6.8,17.7,6.8c8.4,0,14.9-3.2,19.3-9.7c4.4-6.5,6.7-15.8,6.7-28.1
						c0-11.5-2.7-20.7-8.2-27.5c-5.4-6.9-12.8-10.3-22-10.3c-2.5,0-5,0.2-7.5,0.7C207.2-0.2,204.6,0.5,201.9,1.5z M221.5,32.4
						c4.4,0,7.9,1.5,10.5,4.5c2.6,3,3.9,7.2,3.9,12.5c0,5.2-1.3,9.4-3.9,12.4c-2.6,3-6.1,4.6-10.5,4.6s-7.9-1.5-10.5-4.6
						c-2.6-3-3.9-7.2-3.9-12.4c0-5.3,1.3-9.4,3.9-12.5C213.5,33.9,217.1,32.4,221.5,32.4z"/>
				</g>
			</g>
		</g>
	</g>
	<g id="xtick_5">
		<g id="line2d_5">
			<g>
				<g>
					<path id="mc0ffe04144_4_" class="st1" d="M326.8,252v3.5"/>
				</g>
			</g>
		</g>
		<g id="text_5">
			<g transform="translate(314.075 266.598437)scale(0.1 -0.1)">
				<g>
					<path id="DejaVuSans-32" d="M19.2,8.3h34.4V0H7.3v8.3c3.7,3.9,8.8,9.1,15.3,15.6c6.5,6.5,10.5,10.7,12.2,12.6
						c3.2,3.5,5.4,6.5,6.6,9c1.3,2.5,1.9,4.9,1.9,7.2c0,3.9-1.4,7-4.1,9.5c-2.7,2.4-6.3,3.7-10.6,3.7c-3.1,0-6.4-0.5-9.8-1.6
						c-3.4-1.1-7.1-2.7-11-4.9v10c4,1.6,7.7,2.8,11.1,3.6c3.5,0.8,6.6,1.2,9.5,1.2c7.6,0,13.6-1.9,18.1-5.7
						c4.5-3.8,6.7-8.8,6.7-15.1c0-3-0.6-5.8-1.7-8.5c-1.1-2.7-3.2-5.8-6.1-9.5c-0.8-0.9-3.4-3.7-7.8-8.2
						C33.3,22.7,27.1,16.4,19.2,8.3z"/>
				</g>
				<g>
					<path id="DejaVuSans-30" d="M95.4,66.4c-5.1,0-8.9-2.5-11.5-7.5c-2.6-5-3.8-12.5-3.8-22.5c0-10,1.3-17.5,3.8-22.5
						c2.6-5,6.4-7.5,11.5-7.5c5.1,0,8.9,2.5,11.5,7.5c2.6,5,3.8,12.5,3.8,22.5c0,10-1.3,17.5-3.8,22.5
						C104.4,63.9,100.5,66.4,95.4,66.4z M95.4,74.2c8.2,0,14.4-3.2,18.7-9.7c4.3-6.5,6.5-15.8,6.5-28.1c0-12.3-2.2-21.6-6.5-28.1
						c-4.3-6.5-10.6-9.7-18.7-9.7c-8.2,0-14.4,3.2-18.7,9.7c-4.3,6.5-6.5,15.8-6.5,28.1c0,12.3,2.2,21.7,6.5,28.1
						C81,71,87.2,74.2,95.4,74.2z"/>
				</g>
				<g>
					<path id="DejaVuSans-30_1_" d="M159,66.4c-5.1,0-8.9-2.5-11.5-7.5c-2.6-5-3.8-12.5-3.8-22.5c0-10,1.3-17.5,3.8-22.5
						c2.6-5,6.4-7.5,11.5-7.5c5.1,0,8.9,2.5,11.5,7.5c2.6,5,3.8,12.5,3.8,22.5c0,10-1.3,17.5-3.8,22.5C168,63.9,164.1,66.4,159,66.4
						z M159,74.2c8.2,0,14.4-3.2,18.7-9.7c4.3-6.5,6.5-15.8,6.5-28.1c0-12.3-2.2-21.6-6.5-28.1c-4.3-6.5-10.6-9.7-18.7-9.7
						c-8.2,0-14.4,3.2-18.7,9.7c-4.3,6.5-6.5,15.8-6.5,28.1c0,12.3,2.2,21.7,6.5,28.1C144.6,71,150.9,74.2,159,74.2z"/>
				</g>
				<g>
					<path id="DejaVuSans-39_9_" d="M201.9,1.5v9c2.5-1.2,5-2.1,7.5-2.7c2.5-0.6,5-0.9,7.5-0.9c6.5,0,11.5,2.2,14.9,6.6
						c3.4,4.4,5.4,11,5.9,20c-1.9-2.8-4.3-5-7.2-6.5c-2.9-1.5-6.1-2.2-9.6-2.2c-7.3,0-13.1,2.2-17.3,6.6c-4.2,4.4-6.4,10.5-6.4,18.1
						c0,7.5,2.2,13.5,6.6,18c4.4,4.5,10.3,6.8,17.7,6.8c8.4,0,14.9-3.2,19.3-9.7c4.4-6.5,6.7-15.8,6.7-28.1
						c0-11.5-2.7-20.7-8.2-27.5c-5.4-6.9-12.8-10.3-22-10.3c-2.5,0-5,0.2-7.5,0.7C207.2-0.2,204.6,0.5,201.9,1.5z M221.5,32.4
						c4.4,0,7.9,1.5,10.5,4.5c2.6,3,3.9,7.2,3.9,12.5c0,5.2-1.3,9.4-3.9,12.4c-2.6,3-6.1,4.6-10.5,4.6c-4.4,0-7.9-1.5-10.5-4.6
						c-2.6-3-3.9-7.2-3.9-12.4c0-5.3,1.3-9.4,3.9-12.5C213.5,33.9,217.1,32.4,221.5,32.4z"/>
				</g>
			</g>
		</g>
	</g>
	<g id="xtick_6">
		<g id="line2d_6">
			<g>
				<g>
					<path id="mc0ffe04144_5_" class="st1" d="M388.8,252v3.5"/>
				</g>
			</g>
		</g>
		<g id="text_6">
			<g transform="translate(376.075 266.598437)scale(0.1 -0.1)">
				<g>
					<path id="DejaVuSans-32_1_" d="M19.2,8.3h34.4V0H7.3v8.3c3.7,3.9,8.8,9.1,15.3,15.6c6.5,6.5,10.5,10.7,12.2,12.6
						c3.2,3.5,5.4,6.5,6.6,9c1.3,2.5,1.9,4.9,1.9,7.2c0,3.9-1.4,7-4.1,9.5c-2.7,2.4-6.3,3.7-10.6,3.7c-3.1,0-6.4-0.5-9.8-1.6
						c-3.4-1.1-7.1-2.7-11-4.9v10c4,1.6,7.7,2.8,11.1,3.6c3.5,0.8,6.6,1.2,9.5,1.2c7.6,0,13.6-1.9,18.1-5.7
						c4.5-3.8,6.7-8.8,6.7-15.1c0-3-0.6-5.8-1.7-8.5c-1.1-2.7-3.2-5.8-6.1-9.5c-0.8-0.9-3.4-3.7-7.8-8.2
						C33.3,22.7,27.1,16.4,19.2,8.3z"/>
				</g>
				<g>
					<path id="DejaVuSans-30_2_" d="M95.4,66.4c-5.1,0-8.9-2.5-11.5-7.5c-2.6-5-3.8-12.5-3.8-22.5c0-10,1.3-17.5,3.8-22.5
						c2.6-5,6.4-7.5,11.5-7.5c5.1,0,8.9,2.5,11.5,7.5c2.6,5,3.8,12.5,3.8,22.5c0,10-1.3,17.5-3.8,22.5
						C104.4,63.9,100.5,66.4,95.4,66.4z M95.4,74.2c8.2,0,14.4-3.2,18.7-9.7c4.3-6.5,6.5-15.8,6.5-28.1c0-12.3-2.2-21.6-6.5-28.1
						c-4.3-6.5-10.6-9.7-18.7-9.7c-8.2,0-14.4,3.2-18.7,9.7c-4.3,6.5-6.5,15.8-6.5,28.1c0,12.3,2.2,21.7,6.5,28.1
						C81,71,87.2,74.2,95.4,74.2z"/>
				</g>
				<g>
					<path id="DejaVuSans-31_4_" d="M139.7,8.3h16.1v55.6l-17.5-3.5v9l17.4,3.5h9.9V8.3h16.1V0h-42V8.3z"/>
				</g>
				<g>
					<path id="DejaVuSans-39_10_" d="M201.9,1.5v9c2.5-1.2,5-2.1,7.5-2.7c2.5-0.6,5-0.9,7.5-0.9c6.5,0,11.5,2.2,14.9,6.6
						c3.4,4.4,5.4,11,5.9,20c-1.9-2.8-4.3-5-7.2-6.5c-2.9-1.5-6.1-2.2-9.6-2.2c-7.3,0-13.1,2.2-17.3,6.6c-4.2,4.4-6.4,10.5-6.4,18.1
						c0,7.5,2.2,13.5,6.6,18c4.4,4.5,10.3,6.8,17.7,6.8c8.4,0,14.9-3.2,19.3-9.7c4.4-6.5,6.7-15.8,6.7-28.1
						c0-11.5-2.7-20.7-8.2-27.5c-5.4-6.9-12.8-10.3-22-10.3c-2.5,0-5,0.2-7.5,0.7C207.2-0.2,204.6,0.5,201.9,1.5z M221.5,32.4
						c4.4,0,7.9,1.5,10.5,4.5c2.6,3,3.9,7.2,3.9,12.5c0,5.2-1.3,9.4-3.9,12.4c-2.6,3-6.1,4.6-10.5,4.6c-4.4,0-7.9-1.5-10.5-4.6
						c-2.6-3-3.9-7.2-3.9-12.4c0-5.3,1.3-9.4,3.9-12.5C213.5,33.9,217.1,32.4,221.5,32.4z"/>
				</g>
			</g>
		</g>
	</g>
	<g id="xtick_7">
		<g id="line2d_7">
			<g>
				<g>
					<path id="m73d04ce8e7" class="st2" d="M78.8,252v2"/>
				</g>
			</g>
		</g>
	</g>
	<g id="xtick_8">
		<g id="line2d_8">
			<g>
				<g>
					<path id="m73d04ce8e7_1_" class="st2" d="M109.8,252v2"/>
				</g>
			</g>
		</g>
	</g>
	<g id="xtick_9">
		<g id="line2d_9">
			<g>
				<g>
					<path id="m73d04ce8e7_2_" class="st2" d="M140.8,252v2"/>
				</g>
			</g>
		</g>
	</g>
	<g id="xtick_10">
		<g id="line2d_10">
			<g>
				<g>
					<path id="m73d04ce8e7_3_" class="st2" d="M171.8,252v2"/>
				</g>
			</g>
		</g>
	</g>
	<g id="xtick_11">
		<g id="line2d_11">
			<g>
				<g>
					<path id="m73d04ce8e7_4_" class="st2" d="M202.8,252v2"/>
				</g>
			</g>
		</g>
	</g>
	<g id="xtick_12">
		<g id="line2d_12">
			<g>
				<g>
					<path id="m73d04ce8e7_5_" class="st2" d="M233.8,252v2"/>
				</g>
			</g>
		</g>
	</g>
	<g id="xtick_13">
		<g id="line2d_13">
			<g>
				<g>
					<path id="m73d04ce8e7_6_" class="st2" d="M264.8,252v2"/>
				</g>
			</g>
		</g>
	</g>
	<g id="xtick_14">
		<g id="line2d_14">
			<g>
				<g>
					<path id="m73d04ce8e7_7_" class="st2" d="M295.8,252v2"/>
				</g>
			</g>
		</g>
	</g>
	<g id="xtick_15">
		<g id="line2d_15">
			<g>
				<g>
					<path id="m73d04ce8e7_8_" class="st2" d="M326.8,252v2"/>
				</g>
			</g>
		</g>
	</g>
	<g id="xtick_16">
		<g id="line2d_16">
			<g>
				<g>
					<path id="m73d04ce8e7_9_" class="st2" d="M357.8,252v2"/>
				</g>
			</g>
		</g>
	</g>
	<g id="xtick_17">
		<g id="line2d_17">
			<g>
				<g>
					<path id="m73d04ce8e7_10_" class="st2" d="M388.8,252v2"/>
				</g>
			</g>
		</g>
	</g>
</g>
<g id="matplotlib.axis_2">
	<g id="ytick_1">
		<g id="line2d_18">
			<g>
				<g>
					<path id="m2f344a55e6" class="st1" d="M54,252h-3.5"/>
				</g>
			</g>
		</g>
		<g id="text_8">
			<g transform="translate(40.6375 255.799219)scale(0.1 -0.1)">
				<g>
					<path id="DejaVuSans-30_3_" d="M31.8,66.4c-5.1,0-8.9-2.5-11.5-7.5c-2.6-5-3.8-12.5-3.8-22.5c0-10,1.3-17.5,3.8-22.5
						c2.6-5,6.4-7.5,11.5-7.5c5.1,0,8.9,2.5,11.5,7.5c2.6,5,3.8,12.5,3.8,22.5c0,10-1.3,17.5-3.8,22.5
						C40.7,63.9,36.9,66.4,31.8,66.4z M31.8,74.2c8.2,0,14.4-3.2,18.7-9.7c4.3-6.5,6.5-15.8,6.5-28.1c0-12.3-2.2-21.6-6.5-28.1
						C46.2,1.8,40-1.4,31.8-1.4c-8.2,0-14.4,3.2-18.7,9.7c-4.3,6.5-6.5,15.8-6.5,28.1c0,12.3,2.2,21.7,6.5,28.1
						C17.4,71,23.6,74.2,31.8,74.2z"/>
				</g>
			</g>
		</g>
	</g>
	<g id="ytick_2">
		<g id="line2d_19">
			<g>
				<g>
					<path id="m2f344a55e6_1_" class="st1" d="M54,208.6h-3.5"/>
				</g>
			</g>
		</g>
		<g id="text_9">
			<g transform="translate(21.55 212.357569)scale(0.1 -0.1)">
				<g>
					<path id="DejaVuSans-31_5_" d="M12.4,8.3h16.1v55.6L11,60.4v9l17.4,3.5h9.9V8.3h16.1V0h-42V8.3z"/>
				</g>
				<g>
					<path id="DejaVuSans-30_4_" d="M95.4,66.4c-5.1,0-8.9-2.5-11.5-7.5c-2.6-5-3.8-12.5-3.8-22.5c0-10,1.3-17.5,3.8-22.5
						c2.6-5,6.4-7.5,11.5-7.5c5.1,0,8.9,2.5,11.5,7.5c2.6,5,3.8,12.5,3.8,22.5c0,10-1.3,17.5-3.8,22.5
						C104.4,63.9,100.5,66.4,95.4,66.4z M95.4,74.2c8.2,0,14.4-3.2,18.7-9.7c4.3-6.5,6.5-15.8,6.5-28.1c0-12.3-2.2-21.6-6.5-28.1
						c-4.3-6.5-10.6-9.7-18.7-9.7c-8.2,0-14.4,3.2-18.7,9.7c-4.3,6.5-6.5,15.8-6.5,28.1c0,12.3,2.2,21.7,6.5,28.1
						C81,71,87.2,74.2,95.4,74.2z"/>
				</g>
				<g>
					<path id="DejaVuSans-30_5_" d="M159,66.4c-5.1,0-8.9-2.5-11.5-7.5c-2.6-5-3.8-12.5-3.8-22.5c0-10,1.3-17.5,3.8-22.5
						c2.6-5,6.4-7.5,11.5-7.5c5.1,0,8.9,2.5,11.5,7.5c2.6,5,3.8,12.5,3.8,22.5c0,10-1.3,17.5-3.8,22.5C168,63.9,164.1,66.4,159,66.4
						z M159,74.2c8.2,0,14.4-3.2,18.7-9.7c4.3-6.5,6.5-15.8,6.5-28.1c0-12.3-2.2-21.6-6.5-28.1c-4.3-6.5-10.6-9.7-18.7-9.7
						c-8.2,0-14.4,3.2-18.7,9.7c-4.3,6.5-6.5,15.8-6.5,28.1c0,12.3,2.2,21.7,6.5,28.1C144.6,71,150.9,74.2,159,74.2z"/>
				</g>
				<g>
					<path id="DejaVuSans-30_6_" d="M222.7,66.4c-5.1,0-8.9-2.5-11.5-7.5c-2.6-5-3.8-12.5-3.8-22.5c0-10,1.3-17.5,3.8-22.5
						c2.6-5,6.4-7.5,11.5-7.5c5.1,0,8.9,2.5,11.5,7.5c2.6,5,3.8,12.5,3.8,22.5c0,10-1.3,17.5-3.8,22.5
						C231.6,63.9,227.8,66.4,222.7,66.4z M222.7,74.2c8.2,0,14.4-3.2,18.7-9.7c4.3-6.5,6.5-15.8,6.5-28.1c0-12.3-2.2-21.6-6.5-28.1
						c-4.3-6.5-10.6-9.7-18.7-9.7c-8.2,0-14.4,3.2-18.7,9.7c-4.3,6.5-6.5,15.8-6.5,28.1c0,12.3,2.2,21.7,6.5,28.1
						C208.2,71,214.5,74.2,222.7,74.2z"/>
				</g>
			</g>
		</g>
	</g>
	<g id="ytick_3">
		<g id="line2d_20">
			<g>
				<g>
					<path id="m2f344a55e6_2_" class="st1" d="M54,165.1h-3.5"/>
				</g>
			</g>
		</g>
		<g id="text_10">
			<g transform="translate(21.55 168.91592)scale(0.1 -0.1)">
				<g>
					<path id="DejaVuSans-32_2_" d="M19.2,8.3h34.4V0H7.3v8.3c3.7,3.9,8.8,9.1,15.3,15.6c6.5,6.5,10.5,10.7,12.2,12.6
						c3.2,3.5,5.4,6.5,6.6,9c1.3,2.5,1.9,4.9,1.9,7.2c0,3.9-1.4,7-4.1,9.5c-2.7,2.4-6.3,3.7-10.6,3.7c-3.1,0-6.4-0.5-9.8-1.6
						c-3.4-1.1-7.1-2.7-11-4.9v10c4,1.6,7.7,2.8,11.1,3.6c3.5,0.8,6.6,1.2,9.5,1.2c7.6,0,13.6-1.9,18.1-5.7
						c4.5-3.8,6.7-8.8,6.7-15.1c0-3-0.6-5.8-1.7-8.5c-1.1-2.7-3.2-5.8-6.1-9.5c-0.8-0.9-3.4-3.7-7.8-8.2
						C33.3,22.7,27.1,16.4,19.2,8.3z"/>
				</g>
				<g>
					<path id="DejaVuSans-30_7_" d="M95.4,66.4c-5.1,0-8.9-2.5-11.5-7.5c-2.6-5-3.8-12.5-3.8-22.5c0-10,1.3-17.5,3.8-22.5
						c2.6-5,6.4-7.5,11.5-7.5c5.1,0,8.9,2.5,11.5,7.5c2.6,5,3.8,12.5,3.8,22.5c0,10-1.3,17.5-3.8,22.5
						C104.4,63.9,100.5,66.4,95.4,66.4z M95.4,74.2c8.2,0,14.4-3.2,18.7-9.7c4.3-6.5,6.5-15.8,6.5-28.1c0-12.3-2.2-21.6-6.5-28.1
						c-4.3-6.5-10.6-9.7-18.7-9.7c-8.2,0-14.4,3.2-18.7,9.7c-4.3,6.5-6.5,15.8-6.5,28.1c0,12.3,2.2,21.7,6.5,28.1
						C81,71,87.2,74.2,95.4,74.2z"/>
				</g>
				<g>
					<path id="DejaVuSans-30_8_" d="M159,66.4c-5.1,0-8.9-2.5-11.5-7.5c-2.6-5-3.8-12.5-3.8-22.5c0-10,1.3-17.5,3.8-22.5
						c2.6-5,6.4-7.5,11.5-7.5c5.1,0,8.9,2.5,11.5,7.5c2.6,5,3.8,12.5,3.8,22.5c0,10-1.3,17.5-3.8,22.5C168,63.9,164.1,66.4,159,66.4
						z M159,74.2c8.2,0,14.4-3.2,18.7-9.7c4.3-6.5,6.5-15.8,6.5-28.1c0-12.3-2.2-21.6-6.5-28.1c-4.3-6.5-10.6-9.7-18.7-9.7
						c-8.2,0-14.4,3.2-18.7,9.7c-4.3,6.5-6.5,15.8-6.5,28.1c0,12.3,2.2,21.7,6.5,28.1C144.6,71,150.9,74.2,159,74.2z"/>
				</g>
				<g>
					<path id="DejaVuSans-30_9_" d="M222.7,66.4c-5.1,0-8.9-2.5-11.5-7.5c-2.6-5-3.8-12.5-3.8-22.5c0-10,1.3-17.5,3.8-22.5
						c2.6-5,6.4-7.5,11.5-7.5c5.1,0,8.9,2.5,11.5,7.5c2.6,5,3.8,12.5,3.8,22.5c0,10-1.3,17.5-3.8,22.5
						C231.6,63.9,227.8,66.4,222.7,66.4z M222.7,74.2c8.2,0,14.4-3.2,18.7-9.7c4.3-6.5,6.5-15.8,6.5-28.1c0-12.3-2.2-21.6-6.5-28.1
						c-4.3-6.5-10.6-9.7-18.7-9.7c-8.2,0-14.4,3.2-18.7,9.7c-4.3,6.5-6.5,15.8-6.5,28.1c0,12.3,2.2,21.7,6.5,28.1
						C208.2,71,214.5,74.2,222.7,74.2z"/>
				</g>
			</g>
		</g>
	</g>
	<g id="ytick_4">
		<g id="line2d_21">
			<g>
				<g>
					<path id="m2f344a55e6_3_" class="st1" d="M54,121.7h-3.5"/>
				</g>
			</g>
		</g>
		<g id="text_11">
			<g transform="translate(21.55 125.47427)scale(0.1 -0.1)">
				<g>
					<path id="DejaVuSans-33" d="M40.6,39.3c4.7-1,8.4-3.1,11-6.3c2.7-3.2,4-7.1,4-11.8c0-7.2-2.5-12.8-7.4-16.7
						c-4.9-3.9-12-5.9-21.1-5.9c-3.1,0-6.2,0.3-9.4,0.9S11.1,1,7.6,2.2v9.5c2.7-1.6,5.7-2.8,9-3.6c3.3-0.8,6.7-1.2,10.2-1.2
						c6.2,0,10.9,1.2,14.1,3.7s4.9,6,4.9,10.6c0,4.3-1.5,7.7-4.5,10.1c-3,2.4-7.2,3.6-12.6,3.6h-8.5V43h8.9c4.8,0,8.6,1,11.1,2.9
						s3.9,4.7,3.9,8.4c0,3.7-1.3,6.6-4,8.6c-2.6,2-6.4,3-11.4,3c-2.7,0-5.6-0.3-8.7-0.9c-3.1-0.6-6.5-1.5-10.2-2.7v8.8
						c3.8,1,7.3,1.8,10.5,2.3s6.4,0.8,9.2,0.8c7.5,0,13.4-1.7,17.8-5.1c4.4-3.4,6.5-8,6.5-13.8c0-4-1.2-7.5-3.5-10.2
						S44.8,40.4,40.6,39.3z"/>
				</g>
				<g>
					<path id="DejaVuSans-30_10_" d="M95.4,66.4c-5.1,0-8.9-2.5-11.5-7.5c-2.6-5-3.8-12.5-3.8-22.5c0-10,1.3-17.5,3.8-22.5
						c2.6-5,6.4-7.5,11.5-7.5c5.1,0,8.9,2.5,11.5,7.5c2.6,5,3.8,12.5,3.8,22.5c0,10-1.3,17.5-3.8,22.5
						C104.4,63.9,100.5,66.4,95.4,66.4z M95.4,74.2c8.2,0,14.4-3.2,18.7-9.7c4.3-6.5,6.5-15.8,6.5-28.1c0-12.3-2.2-21.6-6.5-28.1
						c-4.3-6.5-10.6-9.7-18.7-9.7c-8.2,0-14.4,3.2-18.7,9.7c-4.3,6.5-6.5,15.8-6.5,28.1c0,12.3,2.2,21.7,6.5,28.1
						C81,71,87.2,74.2,95.4,74.2z"/>
				</g>
				<g>
					<path id="DejaVuSans-30_11_" d="M159,66.4c-5.1,0-8.9-2.5-11.5-7.5c-2.6-5-3.8-12.5-3.8-22.5c0-10,1.3-17.5,3.8-22.5
						c2.6-5,6.4-7.5,11.5-7.5c5.1,0,8.9,2.5,11.5,7.5c2.6,5,3.8,12.5,3.8,22.5c0,10-1.3,17.5-3.8,22.5C168,63.9,164.1,66.4,159,66.4
						z M159,74.2c8.2,0,14.4-3.2,18.7-9.7c4.3-6.5,6.5-15.8,6.5-28.1c0-12.3-2.2-21.6-6.5-28.1c-4.3-6.5-10.6-9.7-18.7-9.7
						c-8.2,0-14.4,3.2-18.7,9.7c-4.3,6.5-6.5,15.8-6.5,28.1c0,12.3,2.2,21.7,6.5,28.1C144.6,71,150.9,74.2,159,74.2z"/>
				</g>
				<g>
					<path id="DejaVuSans-30_12_" d="M222.7,66.4c-5.1,0-8.9-2.5-11.5-7.5c-2.6-5-3.8-12.5-3.8-22.5c0-10,1.3-17.5,3.8-22.5
						c2.6-5,6.4-7.5,11.5-7.5c5.1,0,8.9,2.5,11.5,7.5c2.6,5,3.8,12.5,3.8,22.5c0,10-1.3,17.5-3.8,22.5
						C231.6,63.9,227.8,66.4,222.7,66.4z M222.7,74.2c8.2,0,14.4-3.2,18.7-9.7c4.3-6.5,6.5-15.8,6.5-28.1c0-12.3-2.2-21.6-6.5-28.1
						c-4.3-6.5-10.6-9.7-18.7-9.7c-8.2,0-14.4,3.2-18.7,9.7c-4.3,6.5-6.5,15.8-6.5,28.1c0,12.3,2.2,21.7,6.5,28.1
						C208.2,71,214.5,74.2,222.7,74.2z"/>
				</g>
			</g>
		</g>
	</g>
	<g id="ytick_5">
		<g id="line2d_22">
			<g>
				<g>
					<path id="m2f344a55e6_4_" class="st1" d="M54,78.2h-3.5"/>
				</g>
			</g>
		</g>
		<g id="text_12">
			<g transform="translate(21.55 82.03262)scale(0.1 -0.1)">
				<g>
					<path id="DejaVuSans-34" d="M37.8,64.3L12.9,25.4h24.9V64.3z M35.2,72.9h12.4V25.4H58v-8.2H47.6V0h-9.8v17.2H4.9v9.5L35.2,72.9
						z"/>
				</g>
				<g>
					<path id="DejaVuSans-30_13_" d="M95.4,66.4c-5.1,0-8.9-2.5-11.5-7.5c-2.6-5-3.8-12.5-3.8-22.5c0-10,1.3-17.5,3.8-22.5
						c2.6-5,6.4-7.5,11.5-7.5c5.1,0,8.9,2.5,11.5,7.5c2.6,5,3.8,12.5,3.8,22.5c0,10-1.3,17.5-3.8,22.5
						C104.4,63.9,100.5,66.4,95.4,66.4z M95.4,74.2c8.2,0,14.4-3.2,18.7-9.7c4.3-6.5,6.5-15.8,6.5-28.1c0-12.3-2.2-21.6-6.5-28.1
						c-4.3-6.5-10.6-9.7-18.7-9.7c-8.2,0-14.4,3.2-18.7,9.7c-4.3,6.5-6.5,15.8-6.5,28.1c0,12.3,2.2,21.7,6.5,28.1
						C81,71,87.2,74.2,95.4,74.2z"/>
				</g>
				<g>
					<path id="DejaVuSans-30_14_" d="M159,66.4c-5.1,0-8.9-2.5-11.5-7.5c-2.6-5-3.8-12.5-3.8-22.5c0-10,1.3-17.5,3.8-22.5
						c2.6-5,6.4-7.5,11.5-7.5c5.1,0,8.9,2.5,11.5,7.5c2.6,5,3.8,12.5,3.8,22.5c0,10-1.3,17.5-3.8,22.5C168,63.9,164.1,66.4,159,66.4
						z M159,74.2c8.2,0,14.4-3.2,18.7-9.7c4.3-6.5,6.5-15.8,6.5-28.1c0-12.3-2.2-21.6-6.5-28.1c-4.3-6.5-10.6-9.7-18.7-9.7
						c-8.2,0-14.4,3.2-18.7,9.7c-4.3,6.5-6.5,15.8-6.5,28.1c0,12.3,2.2,21.7,6.5,28.1C144.6,71,150.9,74.2,159,74.2z"/>
				</g>
				<g>
					<path id="DejaVuSans-30_15_" d="M222.7,66.4c-5.1,0-8.9-2.5-11.5-7.5c-2.6-5-3.8-12.5-3.8-22.5c0-10,1.3-17.5,3.8-22.5
						c2.6-5,6.4-7.5,11.5-7.5c5.1,0,8.9,2.5,11.5,7.5c2.6,5,3.8,12.5,3.8,22.5c0,10-1.3,17.5-3.8,22.5
						C231.6,63.9,227.8,66.4,222.7,66.4z M222.7,74.2c8.2,0,14.4-3.2,18.7-9.7c4.3-6.5,6.5-15.8,6.5-28.1c0-12.3-2.2-21.6-6.5-28.1
						c-4.3-6.5-10.6-9.7-18.7-9.7c-8.2,0-14.4,3.2-18.7,9.7c-4.3,6.5-6.5,15.8-6.5,28.1c0,12.3,2.2,21.7,6.5,28.1
						C208.2,71,214.5,74.2,222.7,74.2z"/>
				</g>
			</g>
		</g>
	</g>
	<g id="ytick_6">
		<g id="line2d_23">
			<g>
				<g>
					<path id="m2f344a55e6_5_" class="st1" d="M54,34.8h-3.5"/>
				</g>
			</g>
		</g>
		<g id="text_13">
			<g transform="translate(21.55 38.590971)scale(0.1 -0.1)">
				<g>
					<path id="DejaVuSans-35" d="M10.8,72.9h38.7v-8.3H19.8V46.7c1.4,0.5,2.9,0.9,4.3,1.1c1.4,0.2,2.9,0.4,4.3,0.4
						c8.1,0,14.6-2.2,19.3-6.7c4.8-4.5,7.1-10.5,7.1-18.1c0-7.8-2.4-13.9-7.3-18.3c-4.9-4.3-11.8-6.5-20.7-6.5
						c-3.1,0-6.2,0.3-9.4,0.8c-3.2,0.5-6.4,1.3-9.8,2.3v9.9c2.9-1.6,6-2.8,9.1-3.6s6.4-1.2,9.9-1.2c5.6,0,10.1,1.5,13.4,4.4
						c3.3,3,4.9,7,4.9,12.1c0,5.1-1.6,9.1-4.9,12c-3.3,3-7.7,4.5-13.4,4.5c-2.6,0-5.3-0.3-7.9-0.9c-2.6-0.6-5.3-1.5-8-2.7V72.9z"/>
				</g>
				<g>
					<path id="DejaVuSans-30_16_" d="M95.4,66.4c-5.1,0-8.9-2.5-11.5-7.5c-2.6-5-3.8-12.5-3.8-22.5c0-10,1.3-17.5,3.8-22.5
						c2.6-5,6.4-7.5,11.5-7.5c5.1,0,8.9,2.5,11.5,7.5c2.6,5,3.8,12.5,3.8,22.5c0,10-1.3,17.5-3.8,22.5
						C104.4,63.9,100.5,66.4,95.4,66.4z M95.4,74.2c8.2,0,14.4-3.2,18.7-9.7c4.3-6.5,6.5-15.8,6.5-28.1c0-12.3-2.2-21.6-6.5-28.1
						c-4.3-6.5-10.6-9.7-18.7-9.7c-8.2,0-14.4,3.2-18.7,9.7c-4.3,6.5-6.5,15.8-6.5,28.1c0,12.3,2.2,21.7,6.5,28.1
						C81,71,87.2,74.2,95.4,74.2z"/>
				</g>
				<g>
					<path id="DejaVuSans-30_17_" d="M159,66.4c-5.1,0-8.9-2.5-11.5-7.5c-2.6-5-3.8-12.5-3.8-22.5c0-10,1.3-17.5,3.8-22.5
						c2.6-5,6.4-7.5,11.5-7.5c5.1,0,8.9,2.5,11.5,7.5c2.6,5,3.8,12.5,3.8,22.5c0,10-1.3,17.5-3.8,22.5C168,63.9,164.1,66.4,159,66.4
						z M159,74.2c8.2,0,14.4-3.2,18.7-9.7c4.3-6.5,6.5-15.8,6.5-28.1c0-12.3-2.2-21.6-6.5-28.1c-4.3-6.5-10.6-9.7-18.7-9.7
						c-8.2,0-14.4,3.2-18.7,9.7c-4.3,6.5-6.5,15.8-6.5,28.1c0,12.3,2.2,21.7,6.5,28.1C144.6,71,150.9,74.2,159,74.2z"/>
				</g>
				<g>
					<path id="DejaVuSans-30_18_" d="M222.7,66.4c-5.1,0-8.9-2.5-11.5-7.5c-2.6-5-3.8-12.5-3.8-22.5c0-10,1.3-17.5,3.8-22.5
						c2.6-5,6.4-7.5,11.5-7.5c5.1,0,8.9,2.5,11.5,7.5c2.6,5,3.8,12.5,3.8,22.5c0,10-1.3,17.5-3.8,22.5
						C231.6,63.9,227.8,66.4,222.7,66.4z M222.7,74.2c8.2,0,14.4-3.2,18.7-9.7c4.3-6.5,6.5-15.8,6.5-28.1c0-12.3-2.2-21.6-6.5-28.1
						c-4.3-6.5-10.6-9.7-18.7-9.7c-8.2,0-14.4,3.2-18.7,9.7c-4.3,6.5-6.5,15.8-6.5,28.1c0,12.3,2.2,21.7,6.5,28.1
						C208.2,71,214.5,74.2,222.7,74.2z"/>
				</g>
			</g>
		</g>
	</g>
</g>
<g>
	<defs>
		<rect id="SVGID_1_" x="54" y="34.6" width="334.8" height="217.4"/>
	</defs>
	<clipPath id="SVGID_2_">
		<use xlink:href="#SVGID_1_"  style="overflow:visible;"/>
	</clipPath>
	<path class="st3" d="M87.1,214.2l4.7-0.2l2.1-0.5l4.1-1.4l1.6-0.8l7.2-5.6l4.7-3.2l1-0.2l4.1-0.2l3.6,0.2l2.1,0.2l3.1,0.8l6.7,2.1
		l2.1,0.5l2.1,1.1l1.6,0l4.1,0l5.2,0.1l3.1,0l3.1,0.3l3.1,0.5l2.6,0.2l3.1-0.6l3.6-1.3l2.6-1.3l4.1-2.7l5.2-3.9l6.7-5.8l4.7-3.8
		l10.3-8.4l7.2-6.5l3.6-3.5l6.2-3.3l1.6-0.3l6.2-1.8l9.3-4.1l1.5-0.7l4.7-4.3l1.6-1.5l2.6-3.2l5.7-6.7l1-1.1l4.7-2.4l1-0.4l5.7-0.2
		l5.7,0.2l7.8,1.1l4.6-1.7l1-0.5l5.2-4.5l5.7-6.3l6.7-11.5l7.8-16.3L317,77l6.2-5.4l6.2,0.5l10.3,8.3l2.1,1.6l6.2-2l6.7-7.2l6.2-9.4
		l5.7-7.6l5.7-5.8l9.8-6.9l0,0"/>
</g>
<g id="patch_3">
	<path class="st4" d="M54,252V34.6"/>
</g>
<g id="patch_4">
	<path class="st4" d="M388.8,252V34.6"/>
</g>
<g id="patch_5">
	<path class="st4" d="M54,252h334.8"/>
</g>
<g id="patch_6">
	<path class="st4" d="M54,34.6h334.8"/>
</g>
<g>
	<g>
		<text transform="matrix(1 0 0 1 -55.0923 575.3431)" style="font-family:'MyriadPro-Regular'; font-size:20.3438px;">0</text>
		<text transform="matrix(1 0 0 1 -86.4004 519.9427)" style="font-family:'MyriadPro-Regular'; font-size:20.3438px;">1000</text>
		<text transform="matrix(1 0 0 1 -86.4004 464.5432)" style="font-family:'MyriadPro-Regular'; font-size:20.3438px;">2000</text>
		<text transform="matrix(1 0 0 1 -86.4004 409.1429)" style="font-family:'MyriadPro-Regular'; font-size:20.3438px;">3000</text>
		<text transform="matrix(1 0 0 1 -86.4004 353.7434)" style="font-family:'MyriadPro-Regular'; font-size:20.3438px;">4000</text>
		<text transform="matrix(1 0 0 1 -86.4004 298.343)" style="font-family:'MyriadPro-Regular'; font-size:20.3438px;">5000</text>
	</g>
</g>
<g>
	<g>
		<g>
			<line class="st5" x1="86.3" y1="214.2" x2="85.8" y2="214.2"/>
			<line class="st5" x1="86.8" y1="214.2" x2="86.3" y2="214.2"/>
			<line class="st5" x1="87.4" y1="214.2" x2="86.8" y2="214.2"/>
			<line class="st5" x1="87.9" y1="214.1" x2="87.4" y2="214.2"/>
			<line class="st5" x1="88.4" y1="214.1" x2="87.9" y2="214.1"/>
			<line class="st5" x1="88.9" y1="214.1" x2="88.4" y2="214.1"/>
			<line class="st5" x1="89.4" y1="214.1" x2="88.9" y2="214.1"/>
			<line class="st5" x1="89.9" y1="214.1" x2="89.4" y2="214.1"/>
			<line class="st5" x1="90.5" y1="214" x2="89.9" y2="214.1"/>
			<line class="st5" x1="91" y1="213.9" x2="90.5" y2="214"/>
			<line class="st5" x1="91.5" y1="213.8" x2="91" y2="213.9"/>
			<line class="st5" x1="92" y1="213.6" x2="91.5" y2="213.8"/>
			<line class="st5" x1="92.5" y1="213.5" x2="92" y2="213.6"/>
			<line class="st5" x1="93.1" y1="213.3" x2="92.5" y2="213.5"/>
			<line class="st5" x1="93.6" y1="213.1" x2="93.1" y2="213.3"/>
			<line class="st5" x1="94.1" y1="213" x2="93.6" y2="213.1"/>
			<line class="st5" x1="94.6" y1="212.8" x2="94.1" y2="213"/>
			<line class="st5" x1="95.1" y1="212.7" x2="94.6" y2="212.8"/>
			<line class="st5" x1="95.7" y1="212.5" x2="95.1" y2="212.7"/>
			<line class="st5" x1="96.2" y1="212.3" x2="95.7" y2="212.5"/>
			<line class="st5" x1="96.7" y1="212.1" x2="96.2" y2="212.3"/>
			<line class="st5" x1="97.2" y1="211.8" x2="96.7" y2="212.1"/>
			<line class="st5" x1="97.7" y1="211.5" x2="97.2" y2="211.8"/>
			<line class="st5" x1="98.3" y1="211.3" x2="97.7" y2="211.5"/>
			<line class="st5" x1="98.8" y1="210.8" x2="98.3" y2="211.3"/>
			<line class="st5" x1="99.3" y1="210.4" x2="98.8" y2="210.8"/>
			<line class="st5" x1="99.8" y1="210" x2="99.3" y2="210.4"/>
			<line class="st5" x1="100.3" y1="209.6" x2="99.8" y2="210"/>
			<line class="st5" x1="100.9" y1="209.2" x2="100.3" y2="209.6"/>
			<line class="st5" x1="101.4" y1="208.8" x2="100.9" y2="209.2"/>
			<line class="st5" x1="101.9" y1="208.4" x2="101.4" y2="208.8"/>
			<line class="st5" x1="102.4" y1="208" x2="101.9" y2="208.4"/>
			<line class="st5" x1="102.9" y1="207.6" x2="102.4" y2="208"/>
			<line class="st5" x1="103.5" y1="207.2" x2="102.9" y2="207.6"/>
			<line class="st5" x1="104" y1="206.7" x2="103.5" y2="207.2"/>
			<line class="st5" x1="104.5" y1="206.3" x2="104" y2="206.7"/>
			<line class="st5" x1="105" y1="206" x2="104.5" y2="206.3"/>
			<line class="st5" x1="105.5" y1="205.6" x2="105" y2="206"/>
			<line class="st5" x1="106.1" y1="205.3" x2="105.5" y2="205.6"/>
			<line class="st5" x1="106.6" y1="204.9" x2="106.1" y2="205.3"/>
			<line class="st5" x1="107.1" y1="204.6" x2="106.6" y2="204.9"/>
			<line class="st5" x1="107.6" y1="204.2" x2="107.1" y2="204.6"/>
			<line class="st5" x1="108.1" y1="203.9" x2="107.6" y2="204.2"/>
			<line class="st5" x1="108.7" y1="203.5" x2="108.1" y2="203.9"/>
			<line class="st5" x1="109.2" y1="203.2" x2="108.7" y2="203.5"/>
			<line class="st5" x1="109.7" y1="202.8" x2="109.2" y2="203.2"/>
			<line class="st5" x1="110.2" y1="202.5" x2="109.7" y2="202.8"/>
			<line class="st5" x1="110.7" y1="202.4" x2="110.2" y2="202.5"/>
			<line class="st5" x1="111.3" y1="202.3" x2="110.7" y2="202.4"/>
			<line class="st5" x1="111.8" y1="202.3" x2="111.3" y2="202.3"/>
			<line class="st5" x1="112.3" y1="202.3" x2="111.8" y2="202.3"/>
			<line class="st5" x1="112.8" y1="202.2" x2="112.3" y2="202.3"/>
			<line class="st5" x1="113.3" y1="202.2" x2="112.8" y2="202.2"/>
			<line class="st5" x1="113.8" y1="202.1" x2="113.3" y2="202.2"/>
			<line class="st5" x1="114.4" y1="202.1" x2="113.8" y2="202.1"/>
			<line class="st5" x1="114.9" y1="202.1" x2="114.4" y2="202.1"/>
			<line class="st5" x1="115.4" y1="202.1" x2="114.9" y2="202.1"/>
			<line class="st5" x1="115.9" y1="202.1" x2="115.4" y2="202.1"/>
			<line class="st5" x1="116.4" y1="202.1" x2="115.9" y2="202.1"/>
			<line class="st5" x1="117" y1="202.1" x2="116.4" y2="202.1"/>
			<line class="st5" x1="117.5" y1="202.2" x2="117" y2="202.1"/>
			<line class="st5" x1="118" y1="202.2" x2="117.5" y2="202.2"/>
			<line class="st5" x1="118.5" y1="202.2" x2="118" y2="202.2"/>
			<line class="st5" x1="119" y1="202.3" x2="118.5" y2="202.2"/>
			<line class="st5" x1="119.6" y1="202.3" x2="119" y2="202.3"/>
			<line class="st5" x1="120.1" y1="202.3" x2="119.6" y2="202.3"/>
			<line class="st5" x1="120.6" y1="202.4" x2="120.1" y2="202.3"/>
			<line class="st5" x1="121.1" y1="202.5" x2="120.6" y2="202.4"/>
			<line class="st5" x1="121.6" y1="202.6" x2="121.1" y2="202.5"/>
			<line class="st5" x1="122.2" y1="202.7" x2="121.6" y2="202.6"/>
			<line class="st5" x1="122.7" y1="202.8" x2="122.2" y2="202.7"/>
			<line class="st5" x1="123.2" y1="202.9" x2="122.7" y2="202.8"/>
			<line class="st5" x1="123.7" y1="203.1" x2="123.2" y2="202.9"/>
			<line class="st5" x1="124.2" y1="203.3" x2="123.7" y2="203.1"/>
			<line class="st5" x1="124.8" y1="203.4" x2="124.2" y2="203.3"/>
			<line class="st5" x1="125.3" y1="203.6" x2="124.8" y2="203.4"/>
			<line class="st5" x1="125.8" y1="203.8" x2="125.3" y2="203.6"/>
			<line class="st5" x1="126.3" y1="203.9" x2="125.8" y2="203.8"/>
			<line class="st5" x1="126.8" y1="204.1" x2="126.3" y2="203.9"/>
			<line class="st5" x1="127.4" y1="204.3" x2="126.8" y2="204.1"/>
			<line class="st5" x1="127.9" y1="204.4" x2="127.4" y2="204.3"/>
			<line class="st5" x1="128.4" y1="204.6" x2="127.9" y2="204.4"/>
			<line class="st5" x1="128.9" y1="204.8" x2="128.4" y2="204.6"/>
			<line class="st5" x1="129.4" y1="204.9" x2="128.9" y2="204.8"/>
			<line class="st5" x1="130" y1="205.1" x2="129.4" y2="204.9"/>
			<line class="st5" x1="130.5" y1="205.2" x2="130" y2="205.1"/>
			<line class="st5" x1="131" y1="205.3" x2="130.5" y2="205.2"/>
			<line class="st5" x1="131.5" y1="205.5" x2="131" y2="205.3"/>
			<line class="st5" x1="132" y1="205.6" x2="131.5" y2="205.5"/>
			<line class="st5" x1="132.6" y1="205.7" x2="132" y2="205.6"/>
			<line class="st5" x1="133.1" y1="205.9" x2="132.6" y2="205.7"/>
			<line class="st5" x1="133.6" y1="206.1" x2="133.1" y2="205.9"/>
			<line class="st5" x1="134.1" y1="206.4" x2="133.6" y2="206.1"/>
			<line class="st5" x1="134.6" y1="206.7" x2="134.1" y2="206.4"/>
			<line class="st5" x1="135.2" y1="206.9" x2="134.6" y2="206.7"/>
			<line class="st5" x1="135.7" y1="207" x2="135.2" y2="206.9"/>
			<line class="st5" x1="136.2" y1="207" x2="135.7" y2="207"/>
			<line class="st5" x1="136.7" y1="206.9" x2="136.2" y2="207"/>
			<line class="st5" x1="137.2" y1="206.9" x2="136.7" y2="206.9"/>
			<line class="st5" x1="137.8" y1="206.9" x2="137.2" y2="206.9"/>
			<line class="st5" x1="138.3" y1="206.9" x2="137.8" y2="206.9"/>
			<line class="st5" x1="138.8" y1="206.9" x2="138.3" y2="206.9"/>
			<line class="st5" x1="139.3" y1="206.9" x2="138.8" y2="206.9"/>
			<line class="st5" x1="139.8" y1="206.9" x2="139.3" y2="206.9"/>
			<line class="st5" x1="140.3" y1="206.9" x2="139.8" y2="206.9"/>
			<line class="st5" x1="140.9" y1="207" x2="140.3" y2="206.9"/>
			<line class="st5" x1="141.4" y1="207" x2="140.9" y2="207"/>
			<line class="st5" x1="141.9" y1="207" x2="141.4" y2="207"/>
			<line class="st5" x1="142.4" y1="207" x2="141.9" y2="207"/>
			<line class="st5" x1="142.9" y1="207" x2="142.4" y2="207"/>
			<line class="st5" x1="143.5" y1="207" x2="142.9" y2="207"/>
			<line class="st5" x1="144" y1="207.1" x2="143.5" y2="207"/>
			<line class="st5" x1="144.5" y1="207.1" x2="144" y2="207.1"/>
			<line class="st5" x1="145" y1="207.1" x2="144.5" y2="207.1"/>
			<line class="st5" x1="145.5" y1="207.1" x2="145" y2="207.1"/>
			<line class="st5" x1="146.1" y1="207.1" x2="145.5" y2="207.1"/>
			<line class="st5" x1="146.6" y1="207.1" x2="146.1" y2="207.1"/>
			<line class="st5" x1="147.1" y1="207.1" x2="146.6" y2="207.1"/>
			<line class="st5" x1="147.6" y1="207.1" x2="147.1" y2="207.1"/>
			<line class="st5" x1="148.1" y1="207.1" x2="147.6" y2="207.1"/>
			<line class="st5" x1="148.7" y1="207.1" x2="148.1" y2="207.1"/>
			<line class="st5" x1="149.2" y1="207.1" x2="148.7" y2="207.1"/>
			<line class="st5" x1="149.7" y1="207.2" x2="149.2" y2="207.1"/>
			<line class="st5" x1="150.2" y1="207.2" x2="149.7" y2="207.2"/>
			<line class="st5" x1="150.7" y1="207.2" x2="150.2" y2="207.2"/>
			<line class="st5" x1="151.3" y1="207.3" x2="150.7" y2="207.2"/>
			<line class="st5" x1="151.8" y1="207.3" x2="151.3" y2="207.3"/>
			<line class="st5" x1="152.3" y1="207.4" x2="151.8" y2="207.3"/>
			<line class="st5" x1="152.8" y1="207.5" x2="152.3" y2="207.4"/>
			<line class="st5" x1="153.3" y1="207.6" x2="152.8" y2="207.5"/>
			<line class="st5" x1="153.9" y1="207.7" x2="153.3" y2="207.6"/>
			<line class="st5" x1="154.4" y1="207.8" x2="153.9" y2="207.7"/>
			<line class="st5" x1="154.9" y1="207.8" x2="154.4" y2="207.8"/>
			<line class="st5" x1="155.4" y1="207.9" x2="154.9" y2="207.8"/>
			<line class="st5" x1="155.9" y1="207.9" x2="155.4" y2="207.9"/>
			<line class="st5" x1="156.5" y1="208" x2="155.9" y2="207.9"/>
			<line class="st5" x1="157" y1="208" x2="156.5" y2="208"/>
			<line class="st5" x1="157.5" y1="208.1" x2="157" y2="208"/>
			<line class="st5" x1="158" y1="208.1" x2="157.5" y2="208.1"/>
			<line class="st5" x1="158.5" y1="208" x2="158" y2="208.1"/>
			<line class="st5" x1="159.1" y1="207.9" x2="158.5" y2="208"/>
			<line class="st5" x1="159.6" y1="207.9" x2="159.1" y2="207.9"/>
			<line class="st5" x1="160.1" y1="207.8" x2="159.6" y2="207.9"/>
			<line class="st5" x1="160.6" y1="207.7" x2="160.1" y2="207.8"/>
			<line class="st5" x1="161.1" y1="207.5" x2="160.6" y2="207.7"/>
			<line class="st5" x1="161.7" y1="207.3" x2="161.1" y2="207.5"/>
			<line class="st5" x1="162.2" y1="207.2" x2="161.7" y2="207.3"/>
			<line class="st5" x1="162.7" y1="207" x2="162.2" y2="207.2"/>
			<line class="st5" x1="163.2" y1="206.8" x2="162.7" y2="207"/>
			<line class="st5" x1="163.7" y1="206.6" x2="163.2" y2="206.8"/>
			<line class="st5" x1="164.3" y1="206.5" x2="163.7" y2="206.6"/>
			<line class="st5" x1="164.8" y1="206.2" x2="164.3" y2="206.5"/>
			<line class="st5" x1="165.3" y1="205.9" x2="164.8" y2="206.2"/>
			<line class="st5" x1="165.8" y1="205.7" x2="165.3" y2="205.9"/>
			<line class="st5" x1="166.3" y1="205.4" x2="165.8" y2="205.7"/>
			<line class="st5" x1="166.8" y1="205.2" x2="166.3" y2="205.4"/>
			<line class="st5" x1="167.4" y1="204.9" x2="166.8" y2="205.2"/>
			<line class="st5" x1="167.9" y1="204.5" x2="167.4" y2="204.9"/>
			<line class="st5" x1="168.4" y1="204.2" x2="167.9" y2="204.5"/>
			<line class="st5" x1="168.9" y1="203.9" x2="168.4" y2="204.2"/>
			<line class="st5" x1="169.4" y1="203.6" x2="168.9" y2="203.9"/>
			<line class="st5" x1="170" y1="203.3" x2="169.4" y2="203.6"/>
			<line class="st5" x1="170.5" y1="203" x2="170" y2="203.3"/>
			<line class="st5" x1="171" y1="202.6" x2="170.5" y2="203"/>
			<line class="st5" x1="171.5" y1="202.2" x2="171" y2="202.6"/>
			<line class="st5" x1="172" y1="201.8" x2="171.5" y2="202.2"/>
			<line class="st5" x1="172.6" y1="201.4" x2="172" y2="201.8"/>
			<line class="st5" x1="173.1" y1="201.1" x2="172.6" y2="201.4"/>
			<line class="st5" x1="173.6" y1="200.7" x2="173.1" y2="201.1"/>
			<line class="st5" x1="174.1" y1="200.3" x2="173.6" y2="200.7"/>
			<line class="st5" x1="174.6" y1="199.9" x2="174.1" y2="200.3"/>
			<line class="st5" x1="175.2" y1="199.5" x2="174.6" y2="199.9"/>
			<line class="st5" x1="175.7" y1="199.1" x2="175.2" y2="199.5"/>
			<line class="st5" x1="176.2" y1="198.7" x2="175.7" y2="199.1"/>
			<line class="st5" x1="176.7" y1="198.3" x2="176.2" y2="198.7"/>
			<line class="st5" x1="177.2" y1="197.9" x2="176.7" y2="198.3"/>
			<line class="st5" x1="177.8" y1="197.4" x2="177.2" y2="197.9"/>
			<line class="st5" x1="178.3" y1="197" x2="177.8" y2="197.4"/>
			<line class="st5" x1="178.8" y1="196.5" x2="178.3" y2="197"/>
			<line class="st5" x1="179.3" y1="196.1" x2="178.8" y2="196.5"/>
			<line class="st5" x1="179.8" y1="195.6" x2="179.3" y2="196.1"/>
			<line class="st5" x1="180.4" y1="195.2" x2="179.8" y2="195.6"/>
			<line class="st5" x1="180.9" y1="194.7" x2="180.4" y2="195.2"/>
			<line class="st5" x1="181.4" y1="194.3" x2="180.9" y2="194.7"/>
			<line class="st5" x1="181.9" y1="193.9" x2="181.4" y2="194.3"/>
			<line class="st5" x1="182.4" y1="193.4" x2="181.9" y2="193.9"/>
			<line class="st5" x1="183" y1="193" x2="182.4" y2="193.4"/>
			<line class="st5" x1="183.5" y1="192.5" x2="183" y2="193"/>
			<line class="st5" x1="184" y1="192.1" x2="183.5" y2="192.5"/>
			<line class="st5" x1="184.5" y1="191.7" x2="184" y2="192.1"/>
			<line class="st5" x1="185" y1="191.2" x2="184.5" y2="191.7"/>
			<line class="st5" x1="185.6" y1="190.8" x2="185" y2="191.2"/>
			<line class="st5" x1="186.1" y1="190.4" x2="185.6" y2="190.8"/>
			<line class="st5" x1="186.6" y1="190" x2="186.1" y2="190.4"/>
			<line class="st5" x1="187.1" y1="189.5" x2="186.6" y2="190"/>
			<line class="st5" x1="187.6" y1="189.1" x2="187.1" y2="189.5"/>
			<line class="st5" x1="188.2" y1="188.7" x2="187.6" y2="189.1"/>
			<line class="st5" x1="188.7" y1="188.3" x2="188.2" y2="188.7"/>
			<line class="st5" x1="189.2" y1="187.9" x2="188.7" y2="188.3"/>
			<line class="st5" x1="189.7" y1="187.5" x2="189.2" y2="187.9"/>
			<line class="st5" x1="190.2" y1="187.1" x2="189.7" y2="187.5"/>
			<line class="st5" x1="190.7" y1="186.7" x2="190.2" y2="187.1"/>
			<line class="st5" x1="191.3" y1="186.2" x2="190.7" y2="186.7"/>
			<line class="st5" x1="191.8" y1="185.8" x2="191.3" y2="186.2"/>
			<line class="st5" x1="192.3" y1="185.4" x2="191.8" y2="185.8"/>
			<line class="st5" x1="192.8" y1="185" x2="192.3" y2="185.4"/>
			<line class="st5" x1="193.3" y1="184.6" x2="192.8" y2="185"/>
			<line class="st5" x1="193.9" y1="184.2" x2="193.3" y2="184.6"/>
			<line class="st5" x1="194.4" y1="183.7" x2="193.9" y2="184.2"/>
			<line class="st5" x1="194.9" y1="183.3" x2="194.4" y2="183.7"/>
			<line class="st5" x1="195.4" y1="182.9" x2="194.9" y2="183.3"/>
			<line class="st5" x1="195.9" y1="182.5" x2="195.4" y2="182.9"/>
			<line class="st5" x1="196.5" y1="182" x2="195.9" y2="182.5"/>
			<line class="st5" x1="197" y1="181.6" x2="196.5" y2="182"/>
			<line class="st5" x1="197.5" y1="181.2" x2="197" y2="181.6"/>
			<line class="st5" x1="198" y1="180.8" x2="197.5" y2="181.2"/>
			<line class="st5" x1="198.5" y1="180.3" x2="198" y2="180.8"/>
			<line class="st5" x1="199.1" y1="179.9" x2="198.5" y2="180.3"/>
			<line class="st5" x1="199.6" y1="179.4" x2="199.1" y2="179.9"/>
			<line class="st5" x1="200.1" y1="179" x2="199.6" y2="179.4"/>
			<line class="st5" x1="200.6" y1="178.5" x2="200.1" y2="179"/>
			<line class="st5" x1="201.1" y1="178.1" x2="200.6" y2="178.5"/>
			<line class="st5" x1="201.7" y1="177.6" x2="201.1" y2="178.1"/>
			<line class="st5" x1="202.2" y1="177.2" x2="201.7" y2="177.6"/>
			<line class="st5" x1="202.7" y1="176.7" x2="202.2" y2="177.2"/>
			<line class="st5" x1="203.2" y1="176.3" x2="202.7" y2="176.7"/>
			<line class="st5" x1="203.7" y1="175.8" x2="203.2" y2="176.3"/>
			<line class="st5" x1="204.3" y1="175.4" x2="203.7" y2="175.8"/>
			<line class="st5" x1="204.8" y1="174.9" x2="204.3" y2="175.4"/>
			<line class="st5" x1="205.3" y1="174.4" x2="204.8" y2="174.9"/>
			<line class="st5" x1="205.8" y1="173.9" x2="205.3" y2="174.4"/>
			<line class="st5" x1="206.3" y1="173.4" x2="205.8" y2="173.9"/>
			<line class="st5" x1="206.9" y1="172.9" x2="206.3" y2="173.4"/>
			<line class="st5" x1="207.4" y1="172.4" x2="206.9" y2="172.9"/>
			<line class="st5" x1="207.9" y1="171.9" x2="207.4" y2="172.4"/>
			<line class="st5" x1="208.4" y1="171.4" x2="207.9" y2="171.9"/>
			<line class="st5" x1="208.9" y1="170.9" x2="208.4" y2="171.4"/>
			<line class="st5" x1="209.5" y1="170.4" x2="208.9" y2="170.9"/>
			<line class="st5" x1="210" y1="170.1" x2="209.5" y2="170.4"/>
			<line class="st5" x1="210.5" y1="169.9" x2="210" y2="170.1"/>
			<line class="st5" x1="211" y1="169.6" x2="210.5" y2="169.9"/>
			<line class="st5" x1="211.5" y1="169.3" x2="211" y2="169.6"/>
			<line class="st5" x1="212.1" y1="169" x2="211.5" y2="169.3"/>
			<line class="st5" x1="212.6" y1="168.8" x2="212.1" y2="169"/>
			<line class="st5" x1="213.1" y1="168.5" x2="212.6" y2="168.8"/>
			<line class="st5" x1="213.6" y1="168.2" x2="213.1" y2="168.5"/>
			<line class="st5" x1="214.1" y1="168" x2="213.6" y2="168.2"/>
			<line class="st5" x1="214.7" y1="167.7" x2="214.1" y2="168"/>
			<line class="st5" x1="215.2" y1="167.4" x2="214.7" y2="167.7"/>
			<line class="st5" x1="215.7" y1="167.1" x2="215.2" y2="167.4"/>
			<line class="st5" x1="216.2" y1="167.1" x2="215.7" y2="167.1"/>
			<line class="st5" x1="216.7" y1="167" x2="216.2" y2="167.1"/>
			<line class="st5" x1="217.2" y1="166.8" x2="216.7" y2="167"/>
			<line class="st5" x1="217.8" y1="166.7" x2="217.2" y2="166.8"/>
			<line class="st5" x1="218.3" y1="166.6" x2="217.8" y2="166.7"/>
			<line class="st5" x1="218.8" y1="166.4" x2="218.3" y2="166.6"/>
			<line class="st5" x1="219.3" y1="166.3" x2="218.8" y2="166.4"/>
			<line class="st5" x1="219.8" y1="166.1" x2="219.3" y2="166.3"/>
			<line class="st5" x1="220.4" y1="166" x2="219.8" y2="166.1"/>
			<line class="st5" x1="220.9" y1="165.9" x2="220.4" y2="166"/>
			<line class="st5" x1="221.4" y1="165.7" x2="220.9" y2="165.9"/>
			<line class="st5" x1="221.9" y1="165.6" x2="221.4" y2="165.7"/>
			<line class="st5" x1="222.4" y1="165.4" x2="221.9" y2="165.6"/>
			<line class="st5" x1="223" y1="165.3" x2="222.4" y2="165.4"/>
			<line class="st5" x1="223.5" y1="165.1" x2="223" y2="165.3"/>
			<line class="st5" x1="224" y1="164.8" x2="223.5" y2="165.1"/>
			<line class="st5" x1="224.5" y1="164.6" x2="224" y2="164.8"/>
			<line class="st5" x1="225" y1="164.4" x2="224.5" y2="164.6"/>
			<line class="st5" x1="225.6" y1="164.2" x2="225" y2="164.4"/>
			<line class="st5" x1="226.1" y1="164" x2="225.6" y2="164.2"/>
			<line class="st5" x1="226.6" y1="163.7" x2="226.1" y2="164"/>
			<line class="st5" x1="227.1" y1="163.5" x2="226.6" y2="163.7"/>
			<line class="st5" x1="227.6" y1="163.3" x2="227.1" y2="163.5"/>
			<line class="st5" x1="228.2" y1="163.1" x2="227.6" y2="163.3"/>
			<line class="st5" x1="228.7" y1="162.8" x2="228.2" y2="163.1"/>
			<line class="st5" x1="229.2" y1="162.6" x2="228.7" y2="162.8"/>
			<line class="st5" x1="229.7" y1="162.4" x2="229.2" y2="162.6"/>
			<line class="st5" x1="230.2" y1="162.2" x2="229.7" y2="162.4"/>
			<line class="st5" x1="230.8" y1="161.9" x2="230.2" y2="162.2"/>
			<line class="st5" x1="231.3" y1="161.7" x2="230.8" y2="161.9"/>
			<line class="st5" x1="231.8" y1="161.4" x2="231.3" y2="161.7"/>
			<line class="st5" x1="232.3" y1="161.2" x2="231.8" y2="161.4"/>
			<line class="st5" x1="232.8" y1="161" x2="232.3" y2="161.2"/>
			<line class="st5" x1="233.4" y1="160.7" x2="232.8" y2="161"/>
			<line class="st5" x1="233.9" y1="160.5" x2="233.4" y2="160.7"/>
			<line class="st5" x1="234.4" y1="160.3" x2="233.9" y2="160.5"/>
			<line class="st5" x1="234.9" y1="159.8" x2="234.4" y2="160.3"/>
			<line class="st5" x1="235.4" y1="159.3" x2="234.9" y2="159.8"/>
			<line class="st5" x1="236" y1="158.8" x2="235.4" y2="159.3"/>
			<line class="st5" x1="236.5" y1="158.4" x2="236" y2="158.8"/>
			<line class="st5" x1="237" y1="157.9" x2="236.5" y2="158.4"/>
			<line class="st5" x1="237.5" y1="157.4" x2="237" y2="157.9"/>
			<line class="st5" x1="238" y1="156.9" x2="237.5" y2="157.4"/>
			<line class="st5" x1="238.6" y1="156.4" x2="238" y2="156.9"/>
			<line class="st5" x1="239.1" y1="155.9" x2="238.6" y2="156.4"/>
			<line class="st5" x1="239.6" y1="155.5" x2="239.1" y2="155.9"/>
			<line class="st5" x1="240.1" y1="155" x2="239.6" y2="155.5"/>
			<line class="st5" x1="240.6" y1="154.5" x2="240.1" y2="155"/>
			<line class="st5" x1="241.1" y1="153.8" x2="240.6" y2="154.5"/>
			<line class="st5" x1="241.7" y1="153.1" x2="241.1" y2="153.8"/>
			<line class="st5" x1="242.2" y1="152.5" x2="241.7" y2="153.1"/>
			<line class="st5" x1="242.7" y1="151.9" x2="242.2" y2="152.5"/>
			<line class="st5" x1="243.2" y1="151.3" x2="242.7" y2="151.9"/>
			<line class="st5" x1="243.7" y1="150.7" x2="243.2" y2="151.3"/>
			<line class="st5" x1="244.3" y1="150" x2="243.7" y2="150.7"/>
			<line class="st5" x1="244.8" y1="149.4" x2="244.3" y2="150"/>
			<line class="st5" x1="245.3" y1="148.8" x2="244.8" y2="149.4"/>
			<line class="st5" x1="245.8" y1="148.2" x2="245.3" y2="148.8"/>
			<line class="st5" x1="246.3" y1="147.6" x2="245.8" y2="148.2"/>
			<line class="st5" x1="246.9" y1="146.9" x2="246.3" y2="147.6"/>
			<line class="st5" x1="247.4" y1="146.3" x2="246.9" y2="146.9"/>
			<line class="st5" x1="247.9" y1="145.7" x2="247.4" y2="146.3"/>
			<line class="st5" x1="248.4" y1="145.1" x2="247.9" y2="145.7"/>
			<line class="st5" x1="248.9" y1="144.6" x2="248.4" y2="145.1"/>
			<line class="st5" x1="249.5" y1="144.1" x2="248.9" y2="144.6"/>
			<line class="st5" x1="250" y1="143.5" x2="249.5" y2="144.1"/>
			<line class="st5" x1="250.5" y1="143.2" x2="250" y2="143.5"/>
			<line class="st5" x1="251" y1="143" x2="250.5" y2="143.2"/>
			<line class="st5" x1="251.5" y1="142.7" x2="251" y2="143"/>
			<line class="st5" x1="252.1" y1="142.4" x2="251.5" y2="142.7"/>
			<line class="st5" x1="252.6" y1="142.1" x2="252.1" y2="142.4"/>
			<line class="st5" x1="253.1" y1="141.9" x2="252.6" y2="142.1"/>
			<line class="st5" x1="253.6" y1="141.6" x2="253.1" y2="141.9"/>
			<line class="st5" x1="254.1" y1="141.3" x2="253.6" y2="141.6"/>
			<line class="st5" x1="254.7" y1="141.1" x2="254.1" y2="141.3"/>
			<line class="st5" x1="255.2" y1="140.9" x2="254.7" y2="141.1"/>
			<line class="st5" x1="255.7" y1="140.7" x2="255.2" y2="140.9"/>
			<line class="st5" x1="256.2" y1="140.7" x2="255.7" y2="140.7"/>
			<line class="st5" x1="256.7" y1="140.6" x2="256.2" y2="140.7"/>
			<line class="st5" x1="257.3" y1="140.6" x2="256.7" y2="140.6"/>
			<line class="st5" x1="257.8" y1="140.6" x2="257.3" y2="140.6"/>
			<line class="st5" x1="258.3" y1="140.6" x2="257.8" y2="140.6"/>
			<line class="st5" x1="258.8" y1="140.5" x2="258.3" y2="140.6"/>
			<line class="st5" x1="259.3" y1="140.5" x2="258.8" y2="140.5"/>
			<line class="st5" x1="259.9" y1="140.5" x2="259.3" y2="140.5"/>
			<line class="st5" x1="260.4" y1="140.5" x2="259.9" y2="140.5"/>
			<line class="st5" x1="260.9" y1="140.5" x2="260.4" y2="140.5"/>
			<line class="st5" x1="261.4" y1="140.5" x2="260.9" y2="140.5"/>
			<line class="st5" x1="261.9" y1="140.5" x2="261.4" y2="140.5"/>
			<line class="st5" x1="262.5" y1="140.5" x2="261.9" y2="140.5"/>
			<line class="st5" x1="263" y1="140.5" x2="262.5" y2="140.5"/>
			<line class="st5" x1="263.5" y1="140.6" x2="263" y2="140.5"/>
			<line class="st5" x1="264" y1="140.6" x2="263.5" y2="140.6"/>
			<line class="st5" x1="264.5" y1="140.6" x2="264" y2="140.6"/>
			<line class="st5" x1="265.1" y1="140.6" x2="264.5" y2="140.6"/>
			<line class="st5" x1="265.6" y1="140.6" x2="265.1" y2="140.6"/>
			<line class="st5" x1="266.1" y1="140.6" x2="265.6" y2="140.6"/>
			<line class="st5" x1="266.6" y1="140.6" x2="266.1" y2="140.6"/>
			<line class="st5" x1="267.1" y1="140.7" x2="266.6" y2="140.6"/>
			<line class="st5" x1="267.6" y1="140.8" x2="267.1" y2="140.7"/>
			<line class="st5" x1="268.2" y1="140.8" x2="267.6" y2="140.8"/>
			<line class="st5" x1="268.7" y1="140.9" x2="268.2" y2="140.8"/>
			<line class="st5" x1="269.2" y1="141" x2="268.7" y2="140.9"/>
			<line class="st5" x1="269.7" y1="141.1" x2="269.2" y2="141"/>
			<line class="st5" x1="270.2" y1="141.1" x2="269.7" y2="141.1"/>
			<line class="st5" x1="270.8" y1="141.2" x2="270.2" y2="141.1"/>
			<line class="st5" x1="271.3" y1="141.3" x2="270.8" y2="141.2"/>
			<line class="st5" x1="271.8" y1="141.3" x2="271.3" y2="141.3"/>
			<line class="st5" x1="272.3" y1="141.4" x2="271.8" y2="141.3"/>
			<line class="st5" x1="272.8" y1="141.5" x2="272.3" y2="141.4"/>
			<line class="st5" x1="273.4" y1="141.6" x2="272.8" y2="141.5"/>
			<line class="st5" x1="273.9" y1="141.7" x2="273.4" y2="141.6"/>
			<line class="st5" x1="274.4" y1="141.7" x2="273.9" y2="141.7"/>
			<line class="st5" x1="274.9" y1="141.8" x2="274.4" y2="141.7"/>
			<line class="st5" x1="275.4" y1="141.6" x2="274.9" y2="141.8"/>
			<line class="st5" x1="276" y1="141.5" x2="275.4" y2="141.6"/>
			<line class="st5" x1="276.5" y1="141.3" x2="276" y2="141.5"/>
			<line class="st5" x1="277" y1="141.1" x2="276.5" y2="141.3"/>
			<line class="st5" x1="277.5" y1="140.9" x2="277" y2="141.1"/>
			<line class="st5" x1="278" y1="140.7" x2="277.5" y2="140.9"/>
			<line class="st5" x1="278.6" y1="140.5" x2="278" y2="140.7"/>
			<line class="st5" x1="279.1" y1="140.4" x2="278.6" y2="140.5"/>
			<line class="st5" x1="279.6" y1="140.1" x2="279.1" y2="140.4"/>
			<line class="st5" x1="280.1" y1="139.8" x2="279.6" y2="140.1"/>
			<line class="st5" x1="280.6" y1="139.6" x2="280.1" y2="139.8"/>
			<line class="st5" x1="281.2" y1="139.2" x2="280.6" y2="139.6"/>
			<line class="st5" x1="281.7" y1="138.7" x2="281.2" y2="139.2"/>
			<line class="st5" x1="282.2" y1="138.3" x2="281.7" y2="138.7"/>
			<line class="st5" x1="282.7" y1="137.8" x2="282.2" y2="138.3"/>
			<line class="st5" x1="283.2" y1="137.4" x2="282.7" y2="137.8"/>
			<line class="st5" x1="283.8" y1="137" x2="283.2" y2="137.4"/>
			<line class="st5" x1="284.3" y1="136.5" x2="283.8" y2="137"/>
			<line class="st5" x1="284.8" y1="136.1" x2="284.3" y2="136.5"/>
			<line class="st5" x1="285.3" y1="135.6" x2="284.8" y2="136.1"/>
			<line class="st5" x1="285.8" y1="135.1" x2="285.3" y2="135.6"/>
			<line class="st5" x1="286.4" y1="134.5" x2="285.8" y2="135.1"/>
			<line class="st5" x1="286.9" y1="133.9" x2="286.4" y2="134.5"/>
			<line class="st5" x1="287.4" y1="133.3" x2="286.9" y2="133.9"/>
			<line class="st5" x1="287.9" y1="132.8" x2="287.4" y2="133.3"/>
			<line class="st5" x1="288.4" y1="132.2" x2="287.9" y2="132.8"/>
			<line class="st5" x1="289" y1="131.6" x2="288.4" y2="132.2"/>
			<line class="st5" x1="289.5" y1="131.1" x2="289" y2="131.6"/>
			<line class="st5" x1="290" y1="130.5" x2="289.5" y2="131.1"/>
			<line class="st5" x1="290.5" y1="129.9" x2="290" y2="130.5"/>
			<line class="st5" x1="291" y1="129.3" x2="290.5" y2="129.9"/>
			<line class="st5" x1="291.6" y1="128.8" x2="291" y2="129.3"/>
			<line class="st5" x1="292.1" y1="127.9" x2="291.6" y2="128.8"/>
			<line class="st5" x1="292.6" y1="127" x2="292.1" y2="127.9"/>
			<line class="st5" x1="293.1" y1="126.2" x2="292.6" y2="127"/>
			<line class="st5" x1="293.6" y1="125.3" x2="293.1" y2="126.2"/>
			<line class="st5" x1="294.1" y1="124.4" x2="293.6" y2="125.3"/>
			<line class="st5" x1="294.7" y1="123.5" x2="294.1" y2="124.4"/>
			<line class="st5" x1="295.2" y1="122.7" x2="294.7" y2="123.5"/>
			<line class="st5" x1="295.7" y1="121.8" x2="295.2" y2="122.7"/>
			<line class="st5" x1="296.2" y1="120.9" x2="295.7" y2="121.8"/>
			<line class="st5" x1="296.7" y1="120.1" x2="296.2" y2="120.9"/>
			<line class="st5" x1="297.3" y1="119.2" x2="296.7" y2="120.1"/>
			<line class="st5" x1="297.8" y1="118.3" x2="297.3" y2="119.2"/>
			<line class="st5" x1="298.3" y1="117.3" x2="297.8" y2="118.3"/>
			<line class="st5" x1="298.8" y1="116.2" x2="298.3" y2="117.3"/>
			<line class="st5" x1="299.3" y1="115.1" x2="298.8" y2="116.2"/>
			<line class="st5" x1="299.9" y1="114.1" x2="299.3" y2="115.1"/>
			<line class="st5" x1="300.4" y1="113" x2="299.9" y2="114.1"/>
			<line class="st5" x1="300.9" y1="111.9" x2="300.4" y2="113"/>
			<line class="st5" x1="301.4" y1="110.8" x2="300.9" y2="111.9"/>
			<line class="st5" x1="301.9" y1="109.8" x2="301.4" y2="110.8"/>
			<line class="st5" x1="302.5" y1="108.7" x2="301.9" y2="109.8"/>
			<line class="st5" x1="303" y1="107.6" x2="302.5" y2="108.7"/>
			<line class="st5" x1="303.5" y1="106.6" x2="303" y2="107.6"/>
			<line class="st5" x1="304" y1="105.5" x2="303.5" y2="106.6"/>
			<line class="st5" x1="304.5" y1="104.4" x2="304" y2="105.5"/>
			<line class="st5" x1="305.1" y1="103.2" x2="304.5" y2="104.4"/>
			<line class="st5" x1="305.6" y1="102.1" x2="305.1" y2="103.2"/>
			<line class="st5" x1="306.1" y1="101" x2="305.6" y2="102.1"/>
			<line class="st5" x1="306.6" y1="99.8" x2="306.1" y2="101"/>
			<line class="st5" x1="307.1" y1="98.7" x2="306.6" y2="99.8"/>
			<line class="st5" x1="307.7" y1="97.6" x2="307.1" y2="98.7"/>
			<line class="st5" x1="308.2" y1="96.4" x2="307.7" y2="97.6"/>
			<line class="st5" x1="308.7" y1="95.3" x2="308.2" y2="96.4"/>
			<line class="st5" x1="309.2" y1="94.2" x2="308.7" y2="95.3"/>
			<line class="st5" x1="309.7" y1="93" x2="309.2" y2="94.2"/>
			<line class="st5" x1="310.3" y1="91.9" x2="309.7" y2="93"/>
			<line class="st5" x1="310.8" y1="90.8" x2="310.3" y2="91.9"/>
			<line class="st5" x1="311.3" y1="89.6" x2="310.8" y2="90.8"/>
			<line class="st5" x1="311.8" y1="88.5" x2="311.3" y2="89.6"/>
			<line class="st5" x1="312.3" y1="87.3" x2="311.8" y2="88.5"/>
			<line class="st5" x1="312.9" y1="86.2" x2="312.3" y2="87.3"/>
			<line class="st5" x1="313.4" y1="85.1" x2="312.9" y2="86.2"/>
			<line class="st5" x1="313.9" y1="83.9" x2="313.4" y2="85.1"/>
			<line class="st5" x1="314.4" y1="82.8" x2="313.9" y2="83.9"/>
			<line class="st5" x1="314.9" y1="81.7" x2="314.4" y2="82.8"/>
			<line class="st5" x1="315.5" y1="80.5" x2="314.9" y2="81.7"/>
			<line class="st5" x1="316" y1="79.4" x2="315.5" y2="80.5"/>
			<line class="st5" x1="316.5" y1="78.3" x2="316" y2="79.4"/>
			<line class="st5" x1="317" y1="77.3" x2="316.5" y2="78.3"/>
			<line class="st5" x1="317.5" y1="76.8" x2="317" y2="77.3"/>
			<line class="st5" x1="318" y1="76.4" x2="317.5" y2="76.8"/>
			<line class="st5" x1="318.6" y1="75.9" x2="318" y2="76.4"/>
			<line class="st5" x1="319.1" y1="75.5" x2="318.6" y2="75.9"/>
			<line class="st5" x1="319.6" y1="75" x2="319.1" y2="75.5"/>
			<line class="st5" x1="320.1" y1="74.6" x2="319.6" y2="75"/>
			<line class="st5" x1="320.6" y1="74.1" x2="320.1" y2="74.6"/>
			<line class="st5" x1="321.2" y1="73.7" x2="320.6" y2="74.1"/>
			<line class="st5" x1="321.7" y1="73.2" x2="321.2" y2="73.7"/>
			<line class="st5" x1="322.2" y1="72.8" x2="321.7" y2="73.2"/>
			<line class="st5" x1="322.7" y1="72.3" x2="322.2" y2="72.8"/>
			<line class="st5" x1="323.2" y1="71.9" x2="322.7" y2="72.3"/>
			<line class="st5" x1="323.8" y1="72" x2="323.2" y2="71.9"/>
			<line class="st5" x1="324.3" y1="72" x2="323.8" y2="72"/>
			<line class="st5" x1="324.8" y1="72.1" x2="324.3" y2="72"/>
			<line class="st5" x1="325.3" y1="72.1" x2="324.8" y2="72.1"/>
			<line class="st5" x1="325.8" y1="72.2" x2="325.3" y2="72.1"/>
			<line class="st5" x1="326.4" y1="72.2" x2="325.8" y2="72.2"/>
			<line class="st5" x1="326.9" y1="72.3" x2="326.4" y2="72.2"/>
			<line class="st5" x1="327.4" y1="72.3" x2="326.9" y2="72.3"/>
			<line class="st5" x1="327.9" y1="72.4" x2="327.4" y2="72.3"/>
			<line class="st5" x1="328.4" y1="72.4" x2="327.9" y2="72.4"/>
			<line class="st5" x1="329" y1="72.4" x2="328.4" y2="72.4"/>
			<line class="st5" x1="329.5" y1="72.5" x2="329" y2="72.4"/>
			<line class="st5" x1="330" y1="72.9" x2="329.5" y2="72.5"/>
			<line class="st5" x1="330.5" y1="73.3" x2="330" y2="72.9"/>
			<line class="st5" x1="331" y1="73.7" x2="330.5" y2="73.3"/>
			<line class="st5" x1="331.6" y1="74.1" x2="331" y2="73.7"/>
			<line class="st5" x1="332.1" y1="74.5" x2="331.6" y2="74.1"/>
			<line class="st5" x1="332.6" y1="74.9" x2="332.1" y2="74.5"/>
			<line class="st5" x1="333.1" y1="75.3" x2="332.6" y2="74.9"/>
			<line class="st5" x1="333.6" y1="75.7" x2="333.1" y2="75.3"/>
			<line class="st5" x1="334.2" y1="76.2" x2="333.6" y2="75.7"/>
			<line class="st5" x1="334.7" y1="76.6" x2="334.2" y2="76.2"/>
			<line class="st5" x1="335.2" y1="77" x2="334.7" y2="76.6"/>
			<line class="st5" x1="335.7" y1="77.4" x2="335.2" y2="77"/>
			<line class="st5" x1="336.2" y1="77.8" x2="335.7" y2="77.4"/>
			<line class="st5" x1="336.8" y1="78.2" x2="336.2" y2="77.8"/>
			<line class="st5" x1="337.3" y1="78.6" x2="336.8" y2="78.2"/>
			<line class="st5" x1="337.8" y1="79.1" x2="337.3" y2="78.6"/>
			<line class="st5" x1="338.3" y1="79.5" x2="337.8" y2="79.1"/>
			<line class="st5" x1="338.8" y1="79.9" x2="338.3" y2="79.5"/>
			<line class="st5" x1="339.4" y1="80.3" x2="338.8" y2="79.9"/>
			<line class="st5" x1="339.9" y1="80.8" x2="339.4" y2="80.3"/>
			<line class="st5" x1="340.4" y1="81.2" x2="339.9" y2="80.8"/>
			<line class="st5" x1="340.9" y1="81.6" x2="340.4" y2="81.2"/>
			<line class="st5" x1="341.4" y1="82" x2="340.9" y2="81.6"/>
			<line class="st5" x1="342" y1="82.3" x2="341.4" y2="82"/>
			<line class="st5" x1="342.5" y1="82.2" x2="342" y2="82.3"/>
			<line class="st5" x1="343" y1="82" x2="342.5" y2="82.2"/>
			<line class="st5" x1="343.5" y1="81.8" x2="343" y2="82"/>
			<line class="st5" x1="344" y1="81.6" x2="343.5" y2="81.8"/>
			<line class="st5" x1="344.5" y1="81.5" x2="344" y2="81.6"/>
			<line class="st5" x1="345.1" y1="81.3" x2="344.5" y2="81.5"/>
			<line class="st5" x1="345.6" y1="81.1" x2="345.1" y2="81.3"/>
			<line class="st5" x1="346.1" y1="81" x2="345.6" y2="81.1"/>
			<line class="st5" x1="346.6" y1="80.8" x2="346.1" y2="81"/>
			<line class="st5" x1="347.1" y1="80.6" x2="346.6" y2="80.8"/>
			<line class="st5" x1="347.7" y1="80.4" x2="347.1" y2="80.6"/>
			<line class="st5" x1="348.2" y1="80.3" x2="347.7" y2="80.4"/>
			<line class="st5" x1="348.7" y1="79.8" x2="348.2" y2="80.3"/>
			<line class="st5" x1="349.2" y1="79.2" x2="348.7" y2="79.8"/>
			<line class="st5" x1="349.7" y1="78.7" x2="349.2" y2="79.2"/>
			<line class="st5" x1="350.3" y1="78.2" x2="349.7" y2="78.7"/>
			<line class="st5" x1="350.8" y1="77.6" x2="350.3" y2="78.2"/>
			<line class="st5" x1="351.3" y1="77.1" x2="350.8" y2="77.6"/>
			<line class="st5" x1="351.8" y1="76.5" x2="351.3" y2="77.1"/>
			<line class="st5" x1="352.3" y1="76" x2="351.8" y2="76.5"/>
			<line class="st5" x1="352.9" y1="75.5" x2="352.3" y2="76"/>
			<line class="st5" x1="353.4" y1="74.9" x2="352.9" y2="75.5"/>
			<line class="st5" x1="353.9" y1="74.4" x2="353.4" y2="74.9"/>
			<line class="st5" x1="354.4" y1="73.9" x2="353.9" y2="74.4"/>
			<line class="st5" x1="354.9" y1="73.1" x2="354.4" y2="73.9"/>
			<line class="st5" x1="355.5" y1="72.3" x2="354.9" y2="73.1"/>
			<line class="st5" x1="356" y1="71.5" x2="355.5" y2="72.3"/>
			<line class="st5" x1="356.5" y1="70.8" x2="356" y2="71.5"/>
			<line class="st5" x1="357" y1="70" x2="356.5" y2="70.8"/>
			<line class="st5" x1="357.5" y1="69.2" x2="357" y2="70"/>
			<line class="st5" x1="358.1" y1="68.4" x2="357.5" y2="69.2"/>
			<line class="st5" x1="358.6" y1="67.6" x2="358.1" y2="68.4"/>
			<line class="st5" x1="359.1" y1="66.8" x2="358.6" y2="67.6"/>
			<line class="st5" x1="359.6" y1="66" x2="359.1" y2="66.8"/>
			<line class="st5" x1="360.1" y1="65.2" x2="359.6" y2="66"/>
			<line class="st5" x1="360.7" y1="64.5" x2="360.1" y2="65.2"/>
			<line class="st5" x1="361.2" y1="63.8" x2="360.7" y2="64.5"/>
			<line class="st5" x1="361.7" y1="63.1" x2="361.2" y2="63.8"/>
			<line class="st5" x1="362.2" y1="62.4" x2="361.7" y2="63.1"/>
			<line class="st5" x1="362.7" y1="61.7" x2="362.2" y2="62.4"/>
			<line class="st5" x1="363.3" y1="61" x2="362.7" y2="61.7"/>
			<line class="st5" x1="363.8" y1="60.3" x2="363.3" y2="61"/>
			<line class="st5" x1="364.3" y1="59.6" x2="363.8" y2="60.3"/>
			<line class="st5" x1="364.8" y1="58.9" x2="364.3" y2="59.6"/>
			<line class="st5" x1="365.3" y1="58.2" x2="364.8" y2="58.9"/>
			<line class="st5" x1="365.9" y1="57.5" x2="365.3" y2="58.2"/>
			<line class="st5" x1="366.4" y1="56.7" x2="365.9" y2="57.5"/>
			<line class="st5" x1="366.9" y1="56.2" x2="366.4" y2="56.7"/>
			<line class="st5" x1="367.4" y1="55.7" x2="366.9" y2="56.2"/>
			<line class="st5" x1="367.9" y1="55.2" x2="367.4" y2="55.7"/>
			<line class="st5" x1="368.4" y1="54.6" x2="367.9" y2="55.2"/>
			<line class="st5" x1="369" y1="54.1" x2="368.4" y2="54.6"/>
			<line class="st5" x1="369.5" y1="53.6" x2="369" y2="54.1"/>
			<line class="st5" x1="370" y1="53" x2="369.5" y2="53.6"/>
			<line class="st5" x1="370.5" y1="52.5" x2="370" y2="53"/>
			<line class="st5" x1="371" y1="52" x2="370.5" y2="52.5"/>
			<line class="st5" x1="371.6" y1="51.4" x2="371" y2="52"/>
			<line class="st5" x1="372.1" y1="50.9" x2="371.6" y2="51.4"/>
			<line class="st5" x1="372.6" y1="50.4" x2="372.1" y2="50.9"/>
			<line class="st5" x1="373.1" y1="50" x2="372.6" y2="50.4"/>
			<line class="st5" x1="373.6" y1="49.6" x2="373.1" y2="50"/>
			<line class="st5" x1="374.2" y1="49.3" x2="373.6" y2="49.6"/>
			<line class="st5" x1="374.7" y1="48.9" x2="374.2" y2="49.3"/>
			<line class="st5" x1="375.2" y1="48.6" x2="374.7" y2="48.9"/>
			<line class="st5" x1="375.7" y1="48.2" x2="375.2" y2="48.6"/>
			<line class="st5" x1="376.2" y1="47.8" x2="375.7" y2="48.2"/>
			<line class="st5" x1="376.8" y1="47.5" x2="376.2" y2="47.8"/>
			<line class="st5" x1="377.3" y1="47.1" x2="376.8" y2="47.5"/>
			<line class="st5" x1="377.8" y1="46.7" x2="377.3" y2="47.1"/>
			<line class="st5" x1="378.3" y1="46.4" x2="377.8" y2="46.7"/>
			<line class="st5" x1="378.8" y1="46" x2="378.3" y2="46.4"/>
			<line class="st5" x1="379.4" y1="45.6" x2="378.8" y2="46"/>
			<line class="st5" x1="379.9" y1="45.3" x2="379.4" y2="45.6"/>
			<line class="st5" x1="380.4" y1="44.9" x2="379.9" y2="45.3"/>
			<line class="st5" x1="380.9" y1="44.5" x2="380.4" y2="44.9"/>
			<line class="st5" x1="381.4" y1="44.2" x2="380.9" y2="44.5"/>
			<line class="st5" x1="382" y1="43.8" x2="381.4" y2="44.2"/>
			<line class="st5" x1="382.5" y1="43.5" x2="382" y2="43.8"/>
		</g>
	</g>
</g>
<g>
	<g>
	</g>
</g>
</svg>
